ISO-10303-21;
HEADER;
/* Generated by software containing ST-Developer
 * from STEP Tools, Inc. (www.steptools.com) 
 */
/* OPTION: using custom renumber hook */

FILE_DESCRIPTION(
/* description */ ('STEP AP242 Edition 2',
'CAx-IF Rec.Pracs.---Representation and Presentation of Product Manufa
cturing Information (PMI)---4.0---2014-10-13',
'CAx-IF Rec.Pracs.---3D Tessellated Geometry---0.4---2014-09-14','2;1',
'CAx-IF Rec.Pracs.---User Defined Attributes---1.5---2016-08-15'),
/* implementation_level */ '2;1');

FILE_NAME(
/* name */ 'Part Studio 1',
/* time_stamp */ '2026-09-01T23:28:30Z',
/* author */ (''),
/* organization */ (''),
/* preprocessor_version */ 'ST-DEVELOPER v20',
/* originating_system */ 'ONSHAPE BY PTC INC, 1.220',
/* authorisation */ '  ');

FILE_SCHEMA (('AP242_MANAGED_MODEL_BASED_3D_ENGINEERING_MIM_LF { 1 0 10303 442 3 1 4 }'));
ENDSEC;

DATA;
#10=B_SPLINE_CURVE_WITH_KNOTS('',3,(#561,#562,#563,#564,#565,#566,#567,
#568,#569),.UNSPECIFIED.,.F.,.F.,(4,1,1,1,1,1,4),(0.,0.130376505833094,
0.302557212878875,0.483836444859553,0.663587672892087,0.859699414700839,
1.),.UNSPECIFIED.);
#11=B_SPLINE_CURVE_WITH_KNOTS('',3,(#574,#575,#576,#577,#578,#579,#580,
#581,#582),.UNSPECIFIED.,.F.,.F.,(4,1,1,1,1,1,4),(0.,0.130376505833094,
0.302557212878875,0.483836444859553,0.663587672892087,0.859699414700839,
1.),.UNSPECIFIED.);
#12=B_SPLINE_CURVE_WITH_KNOTS('',3,(#602,#603,#604,#605,#606),
 .UNSPECIFIED.,.F.,.F.,(4,1,4),(0.,0.505603618935433,1.),.UNSPECIFIED.);
#13=B_SPLINE_CURVE_WITH_KNOTS('',3,(#611,#612,#613,#614,#615),
 .UNSPECIFIED.,.F.,.F.,(4,1,4),(0.,0.505603618935433,1.),.UNSPECIFIED.);
#14=B_SPLINE_SURFACE_WITH_KNOTS('',3,1,((#529,#530),(#531,#532),(#533,#534),
(#535,#536),(#537,#538),(#539,#540),(#541,#542),(#543,#544),(#545,#546),
(#547,#548),(#549,#550),(#551,#552),(#553,#554),(#555,#556),(#557,#558),
(#559,#560)),.SURF_OF_LINEAR_EXTRUSION.,.F.,.F.,.F.,(4,1,1,1,1,1,1,1,1,
1,1,1,1,4),(2,2),(0.,0.125,0.1875,0.25,0.3125,0.375,0.4375,0.5,0.5625,0.625,
0.6875,0.75,0.875,1.),(0.,1.),.UNSPECIFIED.);
#15=B_SPLINE_SURFACE_WITH_KNOTS('',3,1,((#588,#589),(#590,#591),(#592,#593),
(#594,#595),(#596,#597),(#598,#599),(#600,#601)),
 .SURF_OF_LINEAR_EXTRUSION.,.F.,.F.,.F.,(4,1,1,1,4),(2,2),(0.,0.25,0.5,
0.75,1.),(0.,1.),.UNSPECIFIED.);
#16=OPEN_SHELL('',(#282));
#17=OPEN_SHELL('',(#283));
#18=OPEN_SHELL('',(#284,#285,#286));
#19=OPEN_SHELL('',(#287));
#20=OPEN_SHELL('',(#288,#289,#290,#291,#292,#293));
#21=SHAPE_REPRESENTATION_RELATIONSHIP('','',#351,#27);
#22=SHAPE_REPRESENTATION_RELATIONSHIP('','',#352,#28);
#23=SHAPE_REPRESENTATION_RELATIONSHIP('','',#353,#29);
#24=SHAPE_REPRESENTATION_RELATIONSHIP('','',#354,#30);
#25=SHAPE_REPRESENTATION_RELATIONSHIP('','',#355,#31);
#26=SHAPE_REPRESENTATION_RELATIONSHIP('','',#356,#32);
#27=MANIFOLD_SURFACE_SHAPE_REPRESENTATION('',(#339),#631);
#28=MANIFOLD_SURFACE_SHAPE_REPRESENTATION('',(#340),#632);
#29=MANIFOLD_SURFACE_SHAPE_REPRESENTATION('',(#341),#633);
#30=MANIFOLD_SURFACE_SHAPE_REPRESENTATION('',(#342),#634);
#31=MANIFOLD_SURFACE_SHAPE_REPRESENTATION('',(#343),#635);
#32=MANIFOLD_SURFACE_SHAPE_REPRESENTATION('',(#344),#636);
#33=PLANE('',#361);
#34=PLANE('',#362);
#35=PLANE('',#364);
#36=PLANE('',#368);
#37=PLANE('',#370);
#38=PLANE('',#375);
#39=PLANE('',#376);
#40=PLANE('',#378);
#41=PLANE('',#380);
#42=PLANE('',#381);
#43=PLANE('',#382);
#44=PLANE('',#383);
#45=LINE('',#472,#74);
#46=LINE('',#476,#75);
#47=LINE('',#478,#76);
#48=LINE('',#480,#77);
#49=LINE('',#482,#78);
#50=LINE('',#490,#79);
#51=LINE('',#493,#80);
#52=LINE('',#495,#81);
#53=LINE('',#497,#82);
#54=LINE('',#500,#83);
#55=LINE('',#503,#84);
#56=LINE('',#505,#85);
#57=LINE('',#511,#86);
#58=LINE('',#515,#87);
#59=LINE('',#517,#88);
#60=LINE('',#518,#89);
#61=LINE('',#522,#90);
#62=LINE('',#525,#91);
#63=LINE('',#527,#92);
#64=LINE('',#572,#93);
#65=LINE('',#584,#94);
#66=LINE('',#586,#95);
#67=LINE('',#587,#96);
#68=LINE('',#609,#97);
#69=LINE('',#617,#98);
#70=LINE('',#619,#99);
#71=LINE('',#620,#100);
#72=LINE('',#623,#101);
#73=LINE('',#624,#102);
#74=VECTOR('',#390,1.);
#75=VECTOR('',#393,1.);
#76=VECTOR('',#396,1.);
#77=VECTOR('',#397,1.);
#78=VECTOR('',#398,1.);
#79=VECTOR('',#413,1.);
#80=VECTOR('',#414,1.);
#81=VECTOR('',#415,1.);
#82=VECTOR('',#416,1.);
#83=VECTOR('',#421,1.);
#84=VECTOR('',#422,1.);
#85=VECTOR('',#423,1.);
#86=VECTOR('',#430,1.);
#87=VECTOR('',#433,1.);
#88=VECTOR('',#436,1.);
#89=VECTOR('',#437,1.);
#90=VECTOR('',#444,1.);
#91=VECTOR('',#445,1.);
#92=VECTOR('',#446,1.);
#93=VECTOR('',#449,1.);
#94=VECTOR('',#450,1.);
#95=VECTOR('',#453,1.);
#96=VECTOR('',#454,1.);
#97=VECTOR('',#455,1.);
#98=VECTOR('',#456,1.);
#99=VECTOR('',#459,1.);
#100=VECTOR('',#460,1.);
#101=VECTOR('',#465,1.);
#102=VECTOR('',#466,1.);
#103=ORIENTED_EDGE('',*,*,#165,.T.);
#104=ORIENTED_EDGE('',*,*,#166,.T.);
#105=ORIENTED_EDGE('',*,*,#167,.F.);
#106=ORIENTED_EDGE('',*,*,#168,.F.);
#107=ORIENTED_EDGE('',*,*,#169,.F.);
#108=ORIENTED_EDGE('',*,*,#170,.T.);
#109=ORIENTED_EDGE('',*,*,#171,.T.);
#110=ORIENTED_EDGE('',*,*,#168,.T.);
#111=ORIENTED_EDGE('',*,*,#167,.T.);
#112=ORIENTED_EDGE('',*,*,#172,.T.);
#113=ORIENTED_EDGE('',*,*,#169,.T.);
#114=ORIENTED_EDGE('',*,*,#171,.F.);
#115=ORIENTED_EDGE('',*,*,#173,.T.);
#116=ORIENTED_EDGE('',*,*,#165,.F.);
#117=ORIENTED_EDGE('',*,*,#173,.F.);
#118=ORIENTED_EDGE('',*,*,#170,.F.);
#119=ORIENTED_EDGE('',*,*,#172,.F.);
#120=ORIENTED_EDGE('',*,*,#166,.F.);
#121=ORIENTED_EDGE('',*,*,#174,.T.);
#122=ORIENTED_EDGE('',*,*,#175,.T.);
#123=ORIENTED_EDGE('',*,*,#176,.T.);
#124=ORIENTED_EDGE('',*,*,#177,.T.);
#125=ORIENTED_EDGE('',*,*,#178,.T.);
#126=ORIENTED_EDGE('',*,*,#179,.T.);
#127=ORIENTED_EDGE('',*,*,#180,.T.);
#128=ORIENTED_EDGE('',*,*,#181,.F.);
#129=ORIENTED_EDGE('',*,*,#182,.F.);
#130=ORIENTED_EDGE('',*,*,#183,.T.);
#131=ORIENTED_EDGE('',*,*,#184,.T.);
#132=ORIENTED_EDGE('',*,*,#185,.F.);
#133=ORIENTED_EDGE('',*,*,#184,.F.);
#134=ORIENTED_EDGE('',*,*,#186,.T.);
#135=ORIENTED_EDGE('',*,*,#182,.T.);
#136=ORIENTED_EDGE('',*,*,#185,.T.);
#137=ORIENTED_EDGE('',*,*,#181,.T.);
#138=ORIENTED_EDGE('',*,*,#187,.T.);
#139=ORIENTED_EDGE('',*,*,#188,.T.);
#140=ORIENTED_EDGE('',*,*,#189,.T.);
#141=ORIENTED_EDGE('',*,*,#190,.F.);
#142=ORIENTED_EDGE('',*,*,#191,.F.);
#143=ORIENTED_EDGE('',*,*,#192,.T.);
#144=ORIENTED_EDGE('',*,*,#193,.T.);
#145=ORIENTED_EDGE('',*,*,#194,.F.);
#146=ORIENTED_EDGE('',*,*,#193,.F.);
#147=ORIENTED_EDGE('',*,*,#195,.T.);
#148=ORIENTED_EDGE('',*,*,#191,.T.);
#149=ORIENTED_EDGE('',*,*,#196,.F.);
#150=ORIENTED_EDGE('',*,*,#197,.F.);
#151=ORIENTED_EDGE('',*,*,#198,.T.);
#152=ORIENTED_EDGE('',*,*,#199,.T.);
#153=ORIENTED_EDGE('',*,*,#200,.F.);
#154=ORIENTED_EDGE('',*,*,#199,.F.);
#155=ORIENTED_EDGE('',*,*,#201,.T.);
#156=ORIENTED_EDGE('',*,*,#197,.T.);
#157=ORIENTED_EDGE('',*,*,#200,.T.);
#158=ORIENTED_EDGE('',*,*,#196,.T.);
#159=ORIENTED_EDGE('',*,*,#190,.T.);
#160=ORIENTED_EDGE('',*,*,#194,.T.);
#161=ORIENTED_EDGE('',*,*,#192,.F.);
#162=ORIENTED_EDGE('',*,*,#202,.F.);
#163=ORIENTED_EDGE('',*,*,#198,.F.);
#164=ORIENTED_EDGE('',*,*,#203,.F.);
#165=EDGE_CURVE('',#204,#205,#232,.T.);
#166=EDGE_CURVE('',#205,#206,#45,.T.);
#167=EDGE_CURVE('',#207,#206,#233,.T.);
#168=EDGE_CURVE('',#204,#207,#46,.T.);
#169=EDGE_CURVE('',#208,#207,#47,.F.);
#170=EDGE_CURVE('',#208,#209,#48,.F.);
#171=EDGE_CURVE('',#209,#204,#49,.F.);
#172=EDGE_CURVE('',#206,#208,#234,.T.);
#173=EDGE_CURVE('',#209,#205,#235,.F.);
#174=EDGE_CURVE('',#210,#211,#50,.F.);
#175=EDGE_CURVE('',#211,#212,#51,.F.);
#176=EDGE_CURVE('',#212,#213,#52,.F.);
#177=EDGE_CURVE('',#213,#210,#53,.F.);
#178=EDGE_CURVE('',#214,#215,#54,.F.);
#179=EDGE_CURVE('',#215,#216,#55,.F.);
#180=EDGE_CURVE('',#216,#214,#56,.F.);
#181=EDGE_CURVE('',#217,#218,#236,.T.);
#182=EDGE_CURVE('',#219,#217,#57,.T.);
#183=EDGE_CURVE('',#219,#220,#237,.T.);
#184=EDGE_CURVE('',#220,#218,#58,.T.);
#185=EDGE_CURVE('',#218,#217,#59,.F.);
#186=EDGE_CURVE('',#220,#219,#60,.F.);
#187=EDGE_CURVE('',#221,#222,#61,.F.);
#188=EDGE_CURVE('',#222,#223,#62,.F.);
#189=EDGE_CURVE('',#223,#221,#63,.F.);
#190=EDGE_CURVE('',#224,#225,#10,.T.);
#191=EDGE_CURVE('',#226,#224,#64,.T.);
#192=EDGE_CURVE('',#226,#227,#11,.T.);
#193=EDGE_CURVE('',#227,#225,#65,.T.);
#194=EDGE_CURVE('',#225,#224,#66,.T.);
#195=EDGE_CURVE('',#227,#226,#67,.T.);
#196=EDGE_CURVE('',#228,#229,#12,.T.);
#197=EDGE_CURVE('',#230,#228,#68,.T.);
#198=EDGE_CURVE('',#230,#231,#13,.T.);
#199=EDGE_CURVE('',#231,#229,#69,.T.);
#200=EDGE_CURVE('',#229,#228,#70,.T.);
#201=EDGE_CURVE('',#231,#230,#71,.T.);
#202=EDGE_CURVE('',#231,#226,#72,.T.);
#203=EDGE_CURVE('',#227,#230,#73,.T.);
#204=VERTEX_POINT('',#470);
#205=VERTEX_POINT('',#471);
#206=VERTEX_POINT('',#473);
#207=VERTEX_POINT('',#475);
#208=VERTEX_POINT('',#479);
#209=VERTEX_POINT('',#481);
#210=VERTEX_POINT('',#491);
#211=VERTEX_POINT('',#492);
#212=VERTEX_POINT('',#494);
#213=VERTEX_POINT('',#496);
#214=VERTEX_POINT('',#501);
#215=VERTEX_POINT('',#502);
#216=VERTEX_POINT('',#504);
#217=VERTEX_POINT('',#509);
#218=VERTEX_POINT('',#510);
#219=VERTEX_POINT('',#512);
#220=VERTEX_POINT('',#514);
#221=VERTEX_POINT('',#523);
#222=VERTEX_POINT('',#524);
#223=VERTEX_POINT('',#526);
#224=VERTEX_POINT('',#570);
#225=VERTEX_POINT('',#571);
#226=VERTEX_POINT('',#573);
#227=VERTEX_POINT('',#583);
#228=VERTEX_POINT('',#607);
#229=VERTEX_POINT('',#608);
#230=VERTEX_POINT('',#610);
#231=VERTEX_POINT('',#616);
#232=CIRCLE('',#359,0.0210939209558886);
#233=CIRCLE('',#360,0.0210939209558886);
#234=CIRCLE('',#363,0.000858494342779873);
#235=CIRCLE('',#365,0.000858494342779873);
#236=CIRCLE('',#373,0.0156557815820713);
#237=CIRCLE('',#374,0.0156557815820713);
#238=EDGE_LOOP('',(#103,#104,#105,#106));
#239=EDGE_LOOP('',(#107,#108,#109,#110));
#240=EDGE_LOOP('',(#111,#112,#113));
#241=EDGE_LOOP('',(#114,#115,#116));
#242=EDGE_LOOP('',(#117,#118,#119,#120));
#243=EDGE_LOOP('',(#121,#122,#123,#124));
#244=EDGE_LOOP('',(#125,#126,#127));
#245=EDGE_LOOP('',(#128,#129,#130,#131));
#246=EDGE_LOOP('',(#132,#133,#134,#135));
#247=EDGE_LOOP('',(#136,#137));
#248=EDGE_LOOP('',(#138,#139,#140));
#249=EDGE_LOOP('',(#141,#142,#143,#144));
#250=EDGE_LOOP('',(#145,#146,#147,#148));
#251=EDGE_LOOP('',(#149,#150,#151,#152));
#252=EDGE_LOOP('',(#153,#154,#155,#156));
#253=EDGE_LOOP('',(#157,#158));
#254=EDGE_LOOP('',(#159,#160));
#255=EDGE_LOOP('',(#161,#162,#163,#164));
#256=FACE_BOUND('',#238,.T.);
#257=FACE_BOUND('',#239,.T.);
#258=FACE_BOUND('',#240,.T.);
#259=FACE_BOUND('',#241,.T.);
#260=FACE_BOUND('',#242,.T.);
#261=FACE_BOUND('',#243,.T.);
#262=FACE_BOUND('',#244,.T.);
#263=FACE_BOUND('',#245,.T.);
#264=FACE_BOUND('',#246,.T.);
#265=FACE_BOUND('',#247,.T.);
#266=FACE_BOUND('',#248,.T.);
#267=FACE_BOUND('',#249,.T.);
#268=FACE_BOUND('',#250,.T.);
#269=FACE_BOUND('',#251,.T.);
#270=FACE_BOUND('',#252,.T.);
#271=FACE_BOUND('',#253,.T.);
#272=FACE_BOUND('',#254,.T.);
#273=FACE_BOUND('',#255,.T.);
#274=CYLINDRICAL_SURFACE('',#358,0.0210939209558886);
#275=CYLINDRICAL_SURFACE('',#366,0.000858494342779873);
#276=CYLINDRICAL_SURFACE('',#372,0.0156557815820713);
#277=ADVANCED_FACE('',(#256),#274,.T.);
#278=ADVANCED_FACE('',(#257),#33,.T.);
#279=ADVANCED_FACE('',(#258),#34,.T.);
#280=ADVANCED_FACE('',(#259),#35,.F.);
#281=ADVANCED_FACE('',(#260),#275,.T.);
#282=ADVANCED_FACE('',(#261),#36,.F.);
#283=ADVANCED_FACE('',(#262),#37,.F.);
#284=ADVANCED_FACE('',(#263),#276,.T.);
#285=ADVANCED_FACE('',(#264),#38,.T.);
#286=ADVANCED_FACE('',(#265),#39,.T.);
#287=ADVANCED_FACE('',(#266),#40,.F.);
#288=ADVANCED_FACE('',(#267),#14,.T.);
#289=ADVANCED_FACE('',(#268),#41,.T.);
#290=ADVANCED_FACE('',(#269),#15,.T.);
#291=ADVANCED_FACE('',(#270),#42,.T.);
#292=ADVANCED_FACE('',(#271,#272),#43,.F.);
#293=ADVANCED_FACE('',(#273),#44,.T.);
#294=CLOSED_SHELL('',(#277,#278,#279,#280,#281));
#295=STYLED_ITEM('',(#301),#339);
#296=STYLED_ITEM('',(#302),#340);
#297=STYLED_ITEM('',(#303),#341);
#298=STYLED_ITEM('',(#304),#342);
#299=STYLED_ITEM('',(#305),#343);
#300=STYLED_ITEM('',(#306),#344);
#301=PRESENTATION_STYLE_ASSIGNMENT((#307));
#302=PRESENTATION_STYLE_ASSIGNMENT((#308));
#303=PRESENTATION_STYLE_ASSIGNMENT((#309));
#304=PRESENTATION_STYLE_ASSIGNMENT((#310));
#305=PRESENTATION_STYLE_ASSIGNMENT((#311));
#306=PRESENTATION_STYLE_ASSIGNMENT((#312));
#307=SURFACE_STYLE_USAGE(.BOTH.,#313);
#308=SURFACE_STYLE_USAGE(.BOTH.,#314);
#309=SURFACE_STYLE_USAGE(.BOTH.,#315);
#310=SURFACE_STYLE_USAGE(.BOTH.,#316);
#311=SURFACE_STYLE_USAGE(.BOTH.,#317);
#312=SURFACE_STYLE_USAGE(.BOTH.,#318);
#313=SURFACE_SIDE_STYLE('',(#319));
#314=SURFACE_SIDE_STYLE('',(#320));
#315=SURFACE_SIDE_STYLE('',(#321));
#316=SURFACE_SIDE_STYLE('',(#322));
#317=SURFACE_SIDE_STYLE('',(#323));
#318=SURFACE_SIDE_STYLE('',(#324));
#319=SURFACE_STYLE_FILL_AREA(#325);
#320=SURFACE_STYLE_FILL_AREA(#326);
#321=SURFACE_STYLE_FILL_AREA(#327);
#322=SURFACE_STYLE_FILL_AREA(#328);
#323=SURFACE_STYLE_FILL_AREA(#329);
#324=SURFACE_STYLE_FILL_AREA(#330);
#325=FILL_AREA_STYLE('',(#331));
#326=FILL_AREA_STYLE('',(#332));
#327=FILL_AREA_STYLE('',(#333));
#328=FILL_AREA_STYLE('',(#334));
#329=FILL_AREA_STYLE('',(#335));
#330=FILL_AREA_STYLE('',(#336));
#331=FILL_AREA_STYLE_COLOUR('',#337);
#332=FILL_AREA_STYLE_COLOUR('',#338);
#333=FILL_AREA_STYLE_COLOUR('',#337);
#334=FILL_AREA_STYLE_COLOUR('',#337);
#335=FILL_AREA_STYLE_COLOUR('',#337);
#336=FILL_AREA_STYLE_COLOUR('',#337);
#337=COLOUR_RGB('',0.647058823529412,0.647058823529412,0.647058823529412);
#338=COLOUR_RGB('',0.917647058823529,0.917647058823529,0.917647058823529);
#339=SHELL_BASED_SURFACE_MODEL('Surface 1',(#294));
#340=SHELL_BASED_SURFACE_MODEL('Surface 4',(#16));
#341=SHELL_BASED_SURFACE_MODEL('Surface 6',(#17));
#342=SHELL_BASED_SURFACE_MODEL('Surface 3',(#18));
#343=SHELL_BASED_SURFACE_MODEL('Surface 5',(#19));
#344=SHELL_BASED_SURFACE_MODEL('Surface 2',(#20));
#345=SHAPE_DEFINITION_REPRESENTATION(#661,#351);
#346=SHAPE_DEFINITION_REPRESENTATION(#662,#352);
#347=SHAPE_DEFINITION_REPRESENTATION(#663,#353);
#348=SHAPE_DEFINITION_REPRESENTATION(#664,#354);
#349=SHAPE_DEFINITION_REPRESENTATION(#665,#355);
#350=SHAPE_DEFINITION_REPRESENTATION(#666,#356);
#351=SHAPE_REPRESENTATION('Surface 1',(#357),#631);
#352=SHAPE_REPRESENTATION('Surface 4',(#367),#632);
#353=SHAPE_REPRESENTATION('Surface 6',(#369),#633);
#354=SHAPE_REPRESENTATION('Surface 3',(#371),#634);
#355=SHAPE_REPRESENTATION('Surface 5',(#377),#635);
#356=SHAPE_REPRESENTATION('Surface 2',(#379),#636);
#357=AXIS2_PLACEMENT_3D('',#467,#384,#385);
#358=AXIS2_PLACEMENT_3D('',#468,#386,#387);
#359=AXIS2_PLACEMENT_3D('',#469,#388,#389);
#360=AXIS2_PLACEMENT_3D('',#474,#391,#392);
#361=AXIS2_PLACEMENT_3D('',#477,#394,#395);
#362=AXIS2_PLACEMENT_3D('',#483,#399,#400);
#363=AXIS2_PLACEMENT_3D('',#484,#401,#402);
#364=AXIS2_PLACEMENT_3D('',#485,#403,#404);
#365=AXIS2_PLACEMENT_3D('',#486,#405,#406);
#366=AXIS2_PLACEMENT_3D('',#487,#407,#408);
#367=AXIS2_PLACEMENT_3D('',#488,#409,#410);
#368=AXIS2_PLACEMENT_3D('',#489,#411,#412);
#369=AXIS2_PLACEMENT_3D('',#498,#417,#418);
#370=AXIS2_PLACEMENT_3D('',#499,#419,#420);
#371=AXIS2_PLACEMENT_3D('',#506,#424,#425);
#372=AXIS2_PLACEMENT_3D('',#507,#426,#427);
#373=AXIS2_PLACEMENT_3D('',#508,#428,#429);
#374=AXIS2_PLACEMENT_3D('',#513,#431,#432);
#375=AXIS2_PLACEMENT_3D('',#516,#434,#435);
#376=AXIS2_PLACEMENT_3D('',#519,#438,#439);
#377=AXIS2_PLACEMENT_3D('',#520,#440,#441);
#378=AXIS2_PLACEMENT_3D('',#521,#442,#443);
#379=AXIS2_PLACEMENT_3D('',#528,#447,#448);
#380=AXIS2_PLACEMENT_3D('',#585,#451,#452);
#381=AXIS2_PLACEMENT_3D('',#618,#457,#458);
#382=AXIS2_PLACEMENT_3D('',#621,#461,#462);
#383=AXIS2_PLACEMENT_3D('',#622,#463,#464);
#384=DIRECTION('',(0.,0.,1.));
#385=DIRECTION('',(1.,0.,0.));
#386=DIRECTION('',(0.,-1.,0.));
#387=DIRECTION('',(0.,0.,-1.));
#388=DIRECTION('',(0.,-1.,0.));
#389=DIRECTION('',(-0.850590334786677,0.,-0.525828947821903));
#390=DIRECTION('',(0.,-1.,0.));
#391=DIRECTION('',(0.,-1.,0.));
#392=DIRECTION('',(-0.850590334786677,0.,-0.525828947821903));
#393=DIRECTION('',(0.,-1.,0.));
#394=DIRECTION('',(-0.525828947821903,0.,0.850590334786677));
#395=DIRECTION('',(0.850590334786677,0.,0.525828947821903));
#396=DIRECTION('',(0.850590334786676,0.,0.525828947821903));
#397=DIRECTION('',(0.,-1.,0.));
#398=DIRECTION('',(0.850590334786676,0.,0.525828947821903));
#399=DIRECTION('',(0.,-1.,0.));
#400=DIRECTION('',(0.,0.,-1.));
#401=DIRECTION('',(0.,-1.,0.));
#402=DIRECTION('',(0.,0.,-1.));
#403=DIRECTION('',(0.,-1.,0.));
#404=DIRECTION('',(0.,0.,-1.));
#405=DIRECTION('',(0.,-1.,0.));
#406=DIRECTION('',(0.,0.,-1.));
#407=DIRECTION('',(0.,-1.,0.));
#408=DIRECTION('',(0.,0.,-1.));
#409=DIRECTION('',(0.,0.,1.));
#410=DIRECTION('',(1.,0.,0.));
#411=DIRECTION('',(0.,1.,0.));
#412=DIRECTION('',(0.,0.,1.));
#413=DIRECTION('',(0.850590334786676,0.,0.525828947821903));
#414=DIRECTION('',(-0.525828947821903,0.,0.850590334786676));
#415=DIRECTION('',(-0.850590334786676,0.,-0.525828947821903));
#416=DIRECTION('',(0.525828947821903,0.,-0.850590334786676));
#417=DIRECTION('',(0.,0.,1.));
#418=DIRECTION('',(1.,0.,0.));
#419=DIRECTION('',(0.,1.,0.));
#420=DIRECTION('',(0.,0.,1.));
#421=DIRECTION('',(0.252247694108214,0.,0.967662699920323));
#422=DIRECTION('',(-0.850590334786677,0.,-0.525828947821903));
#423=DIRECTION('',(0.525828947821903,0.,-0.850590334786676));
#424=DIRECTION('',(0.,0.,1.));
#425=DIRECTION('',(1.,0.,0.));
#426=DIRECTION('',(0.,-1.,0.));
#427=DIRECTION('',(0.,0.,-1.));
#428=DIRECTION('',(0.,-1.,0.));
#429=DIRECTION('',(-0.850590334786676,0.,-0.525828947821903));
#430=DIRECTION('',(0.,-1.,0.));
#431=DIRECTION('',(0.,-1.,0.));
#432=DIRECTION('',(-0.850590334786676,0.,-0.525828947821903));
#433=DIRECTION('',(0.,-1.,0.));
#434=DIRECTION('',(-0.525828947821903,0.,0.850590334786677));
#435=DIRECTION('',(0.850590334786677,0.,0.525828947821903));
#436=DIRECTION('',(0.850590334786676,0.,0.525828947821903));
#437=DIRECTION('',(0.850590334786676,0.,0.525828947821903));
#438=DIRECTION('',(0.,-1.,0.));
#439=DIRECTION('',(0.,0.,-1.));
#440=DIRECTION('',(0.,0.,1.));
#441=DIRECTION('',(1.,0.,0.));
#442=DIRECTION('',(0.,-1.,0.));
#443=DIRECTION('',(0.,0.,-1.));
#444=DIRECTION('',(-0.97929330228565,0.,0.202446605549383));
#445=DIRECTION('',(0.850590334786677,0.,0.525828947821902));
#446=DIRECTION('',(0.525828947821904,0.,-0.850590334786676));
#447=DIRECTION('',(0.,0.,1.));
#448=DIRECTION('',(1.,0.,0.));
#449=DIRECTION('',(0.,-1.,0.));
#450=DIRECTION('',(0.,-1.,0.));
#451=DIRECTION('',(-0.525828947821903,0.,0.850590334786677));
#452=DIRECTION('',(0.850590334786677,0.,0.525828947821903));
#453=DIRECTION('',(-0.850590334786677,0.,-0.525828947821903));
#454=DIRECTION('',(-0.850590334786677,0.,-0.525828947821903));
#455=DIRECTION('',(0.,-1.,0.));
#456=DIRECTION('',(0.,-1.,0.));
#457=DIRECTION('',(0.525828947821903,0.,-0.850590334786677));
#458=DIRECTION('',(-0.850590334786677,0.,-0.525828947821903));
#459=DIRECTION('',(0.850590334786677,0.,0.525828947821903));
#460=DIRECTION('',(0.850590334786677,0.,0.525828947821903));
#461=DIRECTION('',(0.,-1.,0.));
#462=DIRECTION('',(0.850590334786677,0.,0.525828947821903));
#463=DIRECTION('',(0.,-1.,0.));
#464=DIRECTION('',(0.850590334786677,0.,0.525828947821903));
#465=DIRECTION('',(-0.252247694108214,0.,-0.967662699920323));
#466=DIRECTION('',(-0.97929330228565,0.,0.202446605549383));
#467=CARTESIAN_POINT('',(0.,0.,0.));
#468=CARTESIAN_POINT('',(0.00283495181710866,0.,-0.002997868250218));
#469=CARTESIAN_POINT('',(0.00283495181710866,0.,-0.002997868250218));
#470=CARTESIAN_POINT('',(-0.0151073334707243,0.,-0.0140896625118912));
#471=CARTESIAN_POINT('',(0.0212317083713572,0.,0.00732276203428814));
#472=CARTESIAN_POINT('',(0.0212316554695988,0.,0.00732273231446474));
#473=CARTESIAN_POINT('',(0.0212316554695988,-0.00075,0.00732273231446473));
#474=CARTESIAN_POINT('',(0.00283495181710866,-0.00075,-0.002997868250218));
#475=CARTESIAN_POINT('',(-0.0151073334707243,-0.00075,-0.0140896625118912));
#476=CARTESIAN_POINT('',(-0.0151073334707243,0.,-0.0140896625118912));
#477=CARTESIAN_POINT('',(0.0184790708435422,0.,0.00667321583203087));
#478=CARTESIAN_POINT('',(0.0184790708435422,-0.00075,0.00667321583203087));
#479=CARTESIAN_POINT('',(0.020031513083111,-0.00075,0.00763292467893596));
#480=CARTESIAN_POINT('',(0.020031513083111,0.,0.00763292467893596));
#481=CARTESIAN_POINT('',(0.020031513083111,0.,0.00763292467893596));
#482=CARTESIAN_POINT('',(0.0184790708435422,0.,0.00667321583203087));
#483=CARTESIAN_POINT('',(0.00283495181710866,-0.00075,-0.002997868250218));
#484=CARTESIAN_POINT('',(0.020482934260086,-0.00075,0.00690269768849836));
#485=CARTESIAN_POINT('',(0.00284432619810105,0.,-0.00299207307398319));
#486=CARTESIAN_POINT('',(0.020482934260086,0.,0.00690269768849836));
#487=CARTESIAN_POINT('',(0.020482934260086,0.,0.00690269768849836));
#488=CARTESIAN_POINT('',(0.,0.,0.));
#489=CARTESIAN_POINT('',(0.00483192934194753,0.,0.00311457363953132));
#490=CARTESIAN_POINT('',(-8.72522514556943E-5,0.,0.00169954508274203));
#491=CARTESIAN_POINT('',(0.00829662761097061,0.,0.00688240050259639));
#492=CARTESIAN_POINT('',(-0.00847113211388199,0.,-0.00348331033711233));
#493=CARTESIAN_POINT('',(-0.00701771228143667,0.,-0.00583438831976456));
#494=CARTESIAN_POINT('',(-0.00556216546512168,0.,-0.00818890694966391));
#495=CARTESIAN_POINT('',(0.00282171439730461,0.,-0.00300605152980955));
#496=CARTESIAN_POINT('',(0.0112055942597309,0.,0.00217680389004482));
#497=CARTESIAN_POINT('',(0.00975004744341593,0.,0.00453132251994417));
#498=CARTESIAN_POINT('',(0.,0.,0.));
#499=CARTESIAN_POINT('',(-0.00752192880751653,0.,-0.00777444400925326));
#500=CARTESIAN_POINT('',(-0.00948169214991137,0.,-0.0073599810688426));
#501=CARTESIAN_POINT('',(-0.00847113211388199,0.,-0.00348331033711233));
#502=CARTESIAN_POINT('',(-0.0104922521859407,0.,-0.0112366518005729));
#503=CARTESIAN_POINT('',(-0.00802720882553121,0.,-0.00971277937511839));
#504=CARTESIAN_POINT('',(-0.00556216546512168,0.,-0.00818890694966391));
#505=CARTESIAN_POINT('',(-0.00701664878950184,0.,-0.00583610864338812));
#506=CARTESIAN_POINT('',(0.,0.,0.));
#507=CARTESIAN_POINT('',(0.00285373198738586,-0.00075,-0.00298625848136346));
#508=CARTESIAN_POINT('',(0.00285373198738586,-0.005,-0.00298625848136346));
#509=CARTESIAN_POINT('',(-0.0104629245098552,-0.005,-0.0112185216379935));
#510=CARTESIAN_POINT('',(0.016170388484627,-0.005,0.00524600467526661));
#511=CARTESIAN_POINT('',(-0.0104629245098552,-0.00075,-0.0112185216379935));
#512=CARTESIAN_POINT('',(-0.0104629245098552,-0.00075,-0.0112185216379935));
#513=CARTESIAN_POINT('',(0.00285373198738586,-0.00075,-0.00298625848136346));
#514=CARTESIAN_POINT('',(0.016170388484627,-0.00075,0.00524600467526661));
#515=CARTESIAN_POINT('',(0.016170388484627,-0.00075,0.00524600467526661));
#516=CARTESIAN_POINT('',(0.0027161448973039,-0.00075,-0.00307131385038528));
#517=CARTESIAN_POINT('',(0.0027161448973039,-0.005,-0.00307131385038528));
#518=CARTESIAN_POINT('',(0.0027161448973039,-0.00075,-0.00307131385038528));
#519=CARTESIAN_POINT('',(0.00285373198738586,-0.005,-0.00298625848136346));
#520=CARTESIAN_POINT('',(0.,0.,0.));
#521=CARTESIAN_POINT('',(0.0117221801781438,0.,0.00412212848382313));
#522=CARTESIAN_POINT('',(0.0122387660965567,0.,0.00606745307760144));
#523=CARTESIAN_POINT('',(0.00829662761097061,0.,0.00688240050259639));
#524=CARTESIAN_POINT('',(0.0161809045821428,0.,0.00525250565260649));
#525=CARTESIAN_POINT('',(0.0136932494209369,0.,0.00371465477132565));
#526=CARTESIAN_POINT('',(0.0112055942597309,0.,0.00217680389004481));
#527=CARTESIAN_POINT('',(0.00975111093535076,0.,0.00452960219632061));
#528=CARTESIAN_POINT('',(0.,0.,0.));
#529=CARTESIAN_POINT('',(-0.0104922521859407,0.,-0.0112366518005729));
#530=CARTESIAN_POINT('',(-0.0104922521859407,-0.005,-0.0112366518005729));
#531=CARTESIAN_POINT('',(-0.010968746596173,0.,-0.0100824080514797));
#532=CARTESIAN_POINT('',(-0.010968746596173,-0.005,-0.0100824080514797));
#533=CARTESIAN_POINT('',(-0.0112810910967986,0.,-0.00760712392039421));
#534=CARTESIAN_POINT('',(-0.0112810910967986,-0.005,-0.00760712392039421));
#535=CARTESIAN_POINT('',(-0.0116898775452536,0.,-0.00372188342700747));
#536=CARTESIAN_POINT('',(-0.0116898775452536,-0.005,-0.00372188342700747));
#537=CARTESIAN_POINT('',(-0.0118475513090264,0.,-0.000558090003891502));
#538=CARTESIAN_POINT('',(-0.0118475513090264,-0.005,-0.000558090003891502));
#539=CARTESIAN_POINT('',(-0.0116765954179176,0.,0.0028522321145092));
#540=CARTESIAN_POINT('',(-0.0116765954179176,-0.005,0.0028522321145092));
#541=CARTESIAN_POINT('',(-0.0110072666070668,0.,0.00642109639795264));
#542=CARTESIAN_POINT('',(-0.0110072666070668,-0.005,0.00642109639795264));
#543=CARTESIAN_POINT('',(-0.00969498688520777,0.,0.00962136685195441));
#544=CARTESIAN_POINT('',(-0.00969498688520777,-0.005,0.00962136685195441));
#545=CARTESIAN_POINT('',(-0.00756130681587232,0.,0.0119169430714996));
#546=CARTESIAN_POINT('',(-0.00756130681587232,-0.005,0.0119169430714996));
#547=CARTESIAN_POINT('',(-0.00455788561639722,0.,0.0129749258200073));
#548=CARTESIAN_POINT('',(-0.00455788561639722,-0.005,0.0129749258200073));
#549=CARTESIAN_POINT('',(-0.00103593428185081,0.,0.0131281799415316));
#550=CARTESIAN_POINT('',(-0.00103593428185081,-0.005,0.0131281799415316));
#551=CARTESIAN_POINT('',(0.00270086964795393,0.,0.0126308574404766));
#552=CARTESIAN_POINT('',(0.00270086964795393,-0.005,0.0126308574404766));
#553=CARTESIAN_POINT('',(0.00760037827206221,0.,0.0113730035234844));
#554=CARTESIAN_POINT('',(0.00760037827206221,-0.005,0.0113730035234844));
#555=CARTESIAN_POINT('',(0.0130154443143392,0.,0.00882184058156517));
#556=CARTESIAN_POINT('',(0.0130154443143392,-0.005,0.00882184058156517));
#557=CARTESIAN_POINT('',(0.0154848356450062,0.,0.00628422057493586));
#558=CARTESIAN_POINT('',(0.0154848356450062,-0.005,0.00628422057493586));
#559=CARTESIAN_POINT('',(0.0161809045821428,0.,0.00525250565260649));
#560=CARTESIAN_POINT('',(0.0161809045821428,-0.005,0.00525250565260649));
#561=CARTESIAN_POINT('',(-0.0104922521859407,-0.005,-0.0112366518005729));
#562=CARTESIAN_POINT('',(-0.0109892415959814,-0.005,-0.0100327616654812));
#563=CARTESIAN_POINT('',(-0.0114735843848643,-0.005,-0.00599084862392491));
#564=CARTESIAN_POINT('',(-0.0122659697068129,-0.005,0.0022090800131507));
#565=CARTESIAN_POINT('',(-0.00934453071525323,-0.005,0.0129575006714268));
#566=CARTESIAN_POINT('',(0.00155270753566343,-0.005,0.0134957543459309));
#567=CARTESIAN_POINT('',(0.0118830784398857,-0.005,0.00988641340951004));
#568=CARTESIAN_POINT('',(0.0153996335478321,-0.005,0.006410507312324));
#569=CARTESIAN_POINT('',(0.0161809045821428,-0.005,0.00525250565260649));
#570=CARTESIAN_POINT('',(-0.0104922521859407,-0.005,-0.0112366518005729));
#571=CARTESIAN_POINT('',(0.0161809045821428,-0.005,0.00525250565260649));
#572=CARTESIAN_POINT('',(-0.0104922521859407,0.,-0.0112366518005729));
#573=CARTESIAN_POINT('',(-0.0104922521859407,0.,-0.0112366518005729));
#574=CARTESIAN_POINT('',(-0.0104922521859407,0.,-0.0112366518005729));
#575=CARTESIAN_POINT('',(-0.0109892415959814,0.,-0.0100327616654812));
#576=CARTESIAN_POINT('',(-0.0114735843848643,0.,-0.00599084862392491));
#577=CARTESIAN_POINT('',(-0.0122659697068129,0.,0.0022090800131507));
#578=CARTESIAN_POINT('',(-0.00934453071525323,0.,0.0129575006714268));
#579=CARTESIAN_POINT('',(0.00155270753566343,0.,0.0134957543459309));
#580=CARTESIAN_POINT('',(0.0118830784398857,0.,0.00988641340951004));
#581=CARTESIAN_POINT('',(0.0153996335478321,0.,0.006410507312324));
#582=CARTESIAN_POINT('',(0.0161809045821428,0.,0.00525250565260649));
#583=CARTESIAN_POINT('',(0.0161809045821428,0.,0.00525250565260649));
#584=CARTESIAN_POINT('',(0.0161809045821428,0.,0.00525250565260649));
#585=CARTESIAN_POINT('',(0.00284432619810105,0.,-0.0029920730739832));
#586=CARTESIAN_POINT('',(0.00284432619810105,-0.005,-0.0029920730739832));
#587=CARTESIAN_POINT('',(0.00284432619810105,0.,-0.0029920730739832));
#588=CARTESIAN_POINT('',(0.0082966276109706,0.,0.00688240050259639));
#589=CARTESIAN_POINT('',(0.0082966276109706,-0.005,0.00688240050259639));
#590=CARTESIAN_POINT('',(0.00744031572695325,0.,0.0075760599511603));
#591=CARTESIAN_POINT('',(0.00744031572695325,-0.005,0.0075760599511603));
#592=CARTESIAN_POINT('',(0.00291859747933139,0.,0.00973791825030272));
#593=CARTESIAN_POINT('',(0.00291859747933139,-0.005,0.00973791825030272));
#594=CARTESIAN_POINT('',(-0.00564056125251055,0.,0.0102322160882258));
#595=CARTESIAN_POINT('',(-0.00564056125251055,-0.005,0.0102322160882258));
#596=CARTESIAN_POINT('',(-0.00917790065277781,0.,0.00265779119104525));
#597=CARTESIAN_POINT('',(-0.00917790065277781,-0.005,0.00265779119104525));
#598=CARTESIAN_POINT('',(-0.00898229018418455,0.,-0.00236989687105272));
#599=CARTESIAN_POINT('',(-0.00898229018418455,-0.005,-0.00236989687105272));
#600=CARTESIAN_POINT('',(-0.00847113211388199,0.,-0.00348331033711233));
#601=CARTESIAN_POINT('',(-0.00847113211388199,-0.005,-0.00348331033711233));
#602=CARTESIAN_POINT('',(0.0082966276109706,-0.005,0.00688240050259639));
#603=CARTESIAN_POINT('',(0.00656481006098424,-0.005,0.00828526741260706));
#604=CARTESIAN_POINT('',(-0.00823933903214143,-0.005,0.0142206630605096));
#605=CARTESIAN_POINT('',(-0.00948199091432012,-0.005,-0.00128143998411861));
#606=CARTESIAN_POINT('',(-0.00847113211388199,-0.005,-0.00348331033711233));
#607=CARTESIAN_POINT('',(0.0082966276109706,-0.005,0.00688240050259639));
#608=CARTESIAN_POINT('',(-0.008471132113882,-0.005,-0.00348331033711233));
#609=CARTESIAN_POINT('',(0.0082966276109706,0.,0.00688240050259639));
#610=CARTESIAN_POINT('',(0.00829662761097061,0.,0.00688240050259639));
#611=CARTESIAN_POINT('',(0.0082966276109706,0.,0.00688240050259639));
#612=CARTESIAN_POINT('',(0.00656481006098424,0.,0.00828526741260706));
#613=CARTESIAN_POINT('',(-0.00823933903214143,0.,0.0142206630605096));
#614=CARTESIAN_POINT('',(-0.00948199091432012,0.,-0.00128143998411861));
#615=CARTESIAN_POINT('',(-0.00847113211388199,0.,-0.00348331033711233));
#616=CARTESIAN_POINT('',(-0.00847113211388199,0.,-0.00348331033711233));
#617=CARTESIAN_POINT('',(-0.00847113211388199,0.,-0.00348331033711233));
#618=CARTESIAN_POINT('',(-0.000134163021572462,0.,0.00167054517540332));
#619=CARTESIAN_POINT('',(-0.000134163021572462,-0.005,0.00167054517540332));
#620=CARTESIAN_POINT('',(-0.000134163021572462,0.,0.00167054517540332));
#621=CARTESIAN_POINT('',(-0.0104922521859407,-0.005,-0.0112366518005729));
#622=CARTESIAN_POINT('',(-0.0104922521859407,0.,-0.0112366518005729));
#623=CARTESIAN_POINT('',(-0.00948169214991137,0.,-0.0073599810688426));
#624=CARTESIAN_POINT('',(0.0122387660965567,0.,0.00606745307760144));
#625=MECHANICAL_DESIGN_GEOMETRIC_PRESENTATION_REPRESENTATION('',(#295),
#631);
#626=MECHANICAL_DESIGN_GEOMETRIC_PRESENTATION_REPRESENTATION('',(#296),
#632);
#627=MECHANICAL_DESIGN_GEOMETRIC_PRESENTATION_REPRESENTATION('',(#297),
#633);
#628=MECHANICAL_DESIGN_GEOMETRIC_PRESENTATION_REPRESENTATION('',(#298),
#634);
#629=MECHANICAL_DESIGN_GEOMETRIC_PRESENTATION_REPRESENTATION('',(#299),
#635);
#630=MECHANICAL_DESIGN_GEOMETRIC_PRESENTATION_REPRESENTATION('',(#300),
#636);
#631=(
GEOMETRIC_REPRESENTATION_CONTEXT(3)
GLOBAL_UNCERTAINTY_ASSIGNED_CONTEXT((#637))
GLOBAL_UNIT_ASSIGNED_CONTEXT((#655,#649,#643))
REPRESENTATION_CONTEXT('Surface 1','TOP_LEVEL_ASSEMBLY_PART')
);
#632=(
GEOMETRIC_REPRESENTATION_CONTEXT(3)
GLOBAL_UNCERTAINTY_ASSIGNED_CONTEXT((#638))
GLOBAL_UNIT_ASSIGNED_CONTEXT((#656,#650,#644))
REPRESENTATION_CONTEXT('Surface 4','TOP_LEVEL_ASSEMBLY_PART')
);
#633=(
GEOMETRIC_REPRESENTATION_CONTEXT(3)
GLOBAL_UNCERTAINTY_ASSIGNED_CONTEXT((#639))
GLOBAL_UNIT_ASSIGNED_CONTEXT((#657,#651,#645))
REPRESENTATION_CONTEXT('Surface 6','TOP_LEVEL_ASSEMBLY_PART')
);
#634=(
GEOMETRIC_REPRESENTATION_CONTEXT(3)
GLOBAL_UNCERTAINTY_ASSIGNED_CONTEXT((#640))
GLOBAL_UNIT_ASSIGNED_CONTEXT((#658,#652,#646))
REPRESENTATION_CONTEXT('Surface 3','TOP_LEVEL_ASSEMBLY_PART')
);
#635=(
GEOMETRIC_REPRESENTATION_CONTEXT(3)
GLOBAL_UNCERTAINTY_ASSIGNED_CONTEXT((#641))
GLOBAL_UNIT_ASSIGNED_CONTEXT((#659,#653,#647))
REPRESENTATION_CONTEXT('Surface 5','TOP_LEVEL_ASSEMBLY_PART')
);
#636=(
GEOMETRIC_REPRESENTATION_CONTEXT(3)
GLOBAL_UNCERTAINTY_ASSIGNED_CONTEXT((#642))
GLOBAL_UNIT_ASSIGNED_CONTEXT((#660,#654,#648))
REPRESENTATION_CONTEXT('Surface 2','TOP_LEVEL_ASSEMBLY_PART')
);
#637=UNCERTAINTY_MEASURE_WITH_UNIT(LENGTH_MEASURE(2.E-5),#655,
'DISTANCE_ACCURACY_VALUE','Maximum Tolerance applied to model');
#638=UNCERTAINTY_MEASURE_WITH_UNIT(LENGTH_MEASURE(1.E-8),#656,
'DISTANCE_ACCURACY_VALUE','Maximum Tolerance applied to model');
#639=UNCERTAINTY_MEASURE_WITH_UNIT(LENGTH_MEASURE(1.E-8),#657,
'DISTANCE_ACCURACY_VALUE','Maximum Tolerance applied to model');
#640=UNCERTAINTY_MEASURE_WITH_UNIT(LENGTH_MEASURE(1.E-8),#658,
'DISTANCE_ACCURACY_VALUE','Maximum Tolerance applied to model');
#641=UNCERTAINTY_MEASURE_WITH_UNIT(LENGTH_MEASURE(1.E-8),#659,
'DISTANCE_ACCURACY_VALUE','Maximum Tolerance applied to model');
#642=UNCERTAINTY_MEASURE_WITH_UNIT(LENGTH_MEASURE(2.E-5),#660,
'DISTANCE_ACCURACY_VALUE','Maximum Tolerance applied to model');
#643=(
NAMED_UNIT(*)
SI_UNIT($,.STERADIAN.)
SOLID_ANGLE_UNIT()
);
#644=(
NAMED_UNIT(*)
SI_UNIT($,.STERADIAN.)
SOLID_ANGLE_UNIT()
);
#645=(
NAMED_UNIT(*)
SI_UNIT($,.STERADIAN.)
SOLID_ANGLE_UNIT()
);
#646=(
NAMED_UNIT(*)
SI_UNIT($,.STERADIAN.)
SOLID_ANGLE_UNIT()
);
#647=(
NAMED_UNIT(*)
SI_UNIT($,.STERADIAN.)
SOLID_ANGLE_UNIT()
);
#648=(
NAMED_UNIT(*)
SI_UNIT($,.STERADIAN.)
SOLID_ANGLE_UNIT()
);
#649=(
NAMED_UNIT(*)
PLANE_ANGLE_UNIT()
SI_UNIT($,.RADIAN.)
);
#650=(
NAMED_UNIT(*)
PLANE_ANGLE_UNIT()
SI_UNIT($,.RADIAN.)
);
#651=(
NAMED_UNIT(*)
PLANE_ANGLE_UNIT()
SI_UNIT($,.RADIAN.)
);
#652=(
NAMED_UNIT(*)
PLANE_ANGLE_UNIT()
SI_UNIT($,.RADIAN.)
);
#653=(
NAMED_UNIT(*)
PLANE_ANGLE_UNIT()
SI_UNIT($,.RADIAN.)
);
#654=(
NAMED_UNIT(*)
PLANE_ANGLE_UNIT()
SI_UNIT($,.RADIAN.)
);
#655=(
LENGTH_UNIT()
NAMED_UNIT(*)
SI_UNIT($,.METRE.)
);
#656=(
LENGTH_UNIT()
NAMED_UNIT(*)
SI_UNIT($,.METRE.)
);
#657=(
LENGTH_UNIT()
NAMED_UNIT(*)
SI_UNIT($,.METRE.)
);
#658=(
LENGTH_UNIT()
NAMED_UNIT(*)
SI_UNIT($,.METRE.)
);
#659=(
LENGTH_UNIT()
NAMED_UNIT(*)
SI_UNIT($,.METRE.)
);
#660=(
LENGTH_UNIT()
NAMED_UNIT(*)
SI_UNIT($,.METRE.)
);
#661=PRODUCT_DEFINITION_SHAPE('','',#667);
#662=PRODUCT_DEFINITION_SHAPE('','',#668);
#663=PRODUCT_DEFINITION_SHAPE('','',#669);
#664=PRODUCT_DEFINITION_SHAPE('','',#670);
#665=PRODUCT_DEFINITION_SHAPE('','',#671);
#666=PRODUCT_DEFINITION_SHAPE('','',#672);
#667=PRODUCT_DEFINITION('','',#679,#673);
#668=PRODUCT_DEFINITION('','',#680,#674);
#669=PRODUCT_DEFINITION('','',#681,#675);
#670=PRODUCT_DEFINITION('','',#682,#676);
#671=PRODUCT_DEFINITION('','',#683,#677);
#672=PRODUCT_DEFINITION('','',#684,#678);
#673=PRODUCT_DEFINITION_CONTEXT('',#715,'design');
#674=PRODUCT_DEFINITION_CONTEXT('',#716,'design');
#675=PRODUCT_DEFINITION_CONTEXT('',#717,'design');
#676=PRODUCT_DEFINITION_CONTEXT('',#718,'design');
#677=PRODUCT_DEFINITION_CONTEXT('',#719,'design');
#678=PRODUCT_DEFINITION_CONTEXT('',#720,'design');
#679=PRODUCT_DEFINITION_FORMATION_WITH_SPECIFIED_SOURCE('','',#691,
 .NOT_KNOWN.);
#680=PRODUCT_DEFINITION_FORMATION_WITH_SPECIFIED_SOURCE('','',#692,
 .NOT_KNOWN.);
#681=PRODUCT_DEFINITION_FORMATION_WITH_SPECIFIED_SOURCE('','',#693,
 .NOT_KNOWN.);
#682=PRODUCT_DEFINITION_FORMATION_WITH_SPECIFIED_SOURCE('','',#694,
 .NOT_KNOWN.);
#683=PRODUCT_DEFINITION_FORMATION_WITH_SPECIFIED_SOURCE('','',#695,
 .NOT_KNOWN.);
#684=PRODUCT_DEFINITION_FORMATION_WITH_SPECIFIED_SOURCE('','',#696,
 .NOT_KNOWN.);
#685=PRODUCT_RELATED_PRODUCT_CATEGORY('','',(#691));
#686=PRODUCT_RELATED_PRODUCT_CATEGORY('','',(#692));
#687=PRODUCT_RELATED_PRODUCT_CATEGORY('','',(#693));
#688=PRODUCT_RELATED_PRODUCT_CATEGORY('','',(#694));
#689=PRODUCT_RELATED_PRODUCT_CATEGORY('','',(#695));
#690=PRODUCT_RELATED_PRODUCT_CATEGORY('','',(#696));
#691=PRODUCT('Surface 1','Surface 1','Surface 1',(#703));
#692=PRODUCT('Surface 4','Surface 4','Surface 4',(#704));
#693=PRODUCT('Surface 6','Surface 6','Surface 6',(#705));
#694=PRODUCT('Surface 3','Surface 3','Surface 3',(#706));
#695=PRODUCT('Surface 5','Surface 5','Surface 5',(#707));
#696=PRODUCT('Surface 2','Surface 2','Surface 2',(#708));
#697=PRODUCT_CATEGORY('','');
#698=PRODUCT_CATEGORY('','');
#699=PRODUCT_CATEGORY('','');
#700=PRODUCT_CATEGORY('','');
#701=PRODUCT_CATEGORY('','');
#702=PRODUCT_CATEGORY('','');
#703=PRODUCT_CONTEXT('',#715,'mechanical');
#704=PRODUCT_CONTEXT('',#716,'mechanical');
#705=PRODUCT_CONTEXT('',#717,'mechanical');
#706=PRODUCT_CONTEXT('',#718,'mechanical');
#707=PRODUCT_CONTEXT('',#719,'mechanical');
#708=PRODUCT_CONTEXT('',#720,'mechanical');
#709=APPLICATION_PROTOCOL_DEFINITION('international standard',
'ap242_managed_model_based_3d_engineering',2020,#715);
#710=APPLICATION_PROTOCOL_DEFINITION('international standard',
'ap242_managed_model_based_3d_engineering',2020,#716);
#711=APPLICATION_PROTOCOL_DEFINITION('international standard',
'ap242_managed_model_based_3d_engineering',2020,#717);
#712=APPLICATION_PROTOCOL_DEFINITION('international standard',
'ap242_managed_model_based_3d_engineering',2020,#718);
#713=APPLICATION_PROTOCOL_DEFINITION('international standard',
'ap242_managed_model_based_3d_engineering',2020,#719);
#714=APPLICATION_PROTOCOL_DEFINITION('international standard',
'ap242_managed_model_based_3d_engineering',2020,#720);
#715=APPLICATION_CONTEXT('managed model based 3d engineering');
#716=APPLICATION_CONTEXT('managed model based 3d engineering');
#717=APPLICATION_CONTEXT('managed model based 3d engineering');
#718=APPLICATION_CONTEXT('managed model based 3d engineering');
#719=APPLICATION_CONTEXT('managed model based 3d engineering');
#720=APPLICATION_CONTEXT('managed model based 3d engineering');
ENDSEC;
END-ISO-10303-21;
