ISO-10303-21;
HEADER;
/* Generated by software containing ST-Developer
 * from STEP Tools, Inc. (www.steptools.com) 
 */
/* OPTION: using custom renumber hook */

FILE_DESCRIPTION(
/* description */ ('STEP AP242 Edition 2',
'CAx-IF Rec.Pracs.---Representation and Presentation of Product Manufa
cturing Information (PMI)---4.0---2014-10-13',
'CAx-IF Rec.Pracs.---3D Tessellated Geometry---0.4---2014-09-14','2;1',
'CAx-IF Rec.Pracs.---User Defined Attributes---1.5---2016-08-15'),
/* implementation_level */ '2;1');

FILE_NAME(
/* name */ '6a9878e9d8bb3edbeb05ec3f',
/* time_stamp */ '2026-09-02T19:28:41Z',
/* author */ (''),
/* organization */ (''),
/* preprocessor_version */ 'ST-DEVELOPER v20',
/* originating_system */ 'ONSHAPE BY PTC INC, 1.220',
/* authorisation */ '  ');

FILE_SCHEMA (('AP242_MANAGED_MODEL_BASED_3D_ENGINEERING_MIM_LF { 1 0 10303 442 3 1 4 }'));
ENDSEC;

DATA;
#10=CONTEXT_DEPENDENT_SHAPE_REPRESENTATION(#16,#1134);
#11=CONTEXT_DEPENDENT_SHAPE_REPRESENTATION(#17,#1136);
#12=CONTEXT_DEPENDENT_SHAPE_REPRESENTATION(#18,#1138);
#13=NEXT_ASSEMBLY_USAGE_OCCURRENCE('NAUO1','Alexander''s Part',
'Alexander''s Part',#1139,#1140,'');
#14=NEXT_ASSEMBLY_USAGE_OCCURRENCE('NAUO2','Sahil''s Part',
'Sahil''s Part',#1139,#1141,'');
#15=NEXT_ASSEMBLY_USAGE_OCCURRENCE('NAUO3','Gabriel''s Part',
'Gabriel''s Part',#1139,#1142,'');
#16=(
REPRESENTATION_RELATIONSHIP(' ',' ',#718,#717)
REPRESENTATION_RELATIONSHIP_WITH_TRANSFORMATION(#19)
SHAPE_REPRESENTATION_RELATIONSHIP()
);
#17=(
REPRESENTATION_RELATIONSHIP(' ',' ',#719,#717)
REPRESENTATION_RELATIONSHIP_WITH_TRANSFORMATION(#20)
SHAPE_REPRESENTATION_RELATIONSHIP()
);
#18=(
REPRESENTATION_RELATIONSHIP(' ',' ',#720,#717)
REPRESENTATION_RELATIONSHIP_WITH_TRANSFORMATION(#21)
SHAPE_REPRESENTATION_RELATIONSHIP()
);
#19=ITEM_DEFINED_TRANSFORMATION(' ',' ',#721,#733);
#20=ITEM_DEFINED_TRANSFORMATION(' ',' ',#721,#749);
#21=ITEM_DEFINED_TRANSFORMATION(' ',' ',#721,#760);
#22=SHAPE_REPRESENTATION_RELATIONSHIP('','',#718,#25);
#23=SHAPE_REPRESENTATION_RELATIONSHIP('','',#719,#26);
#24=SHAPE_REPRESENTATION_RELATIONSHIP('','',#720,#27);
#25=ADVANCED_BREP_SHAPE_REPRESENTATION('',(#710),#1122);
#26=ADVANCED_BREP_SHAPE_REPRESENTATION('',(#711),#1123);
#27=ADVANCED_BREP_SHAPE_REPRESENTATION('',(#712),#1124);
#28=ORIENTED_EDGE('',*,*,#208,.F.);
#29=ORIENTED_EDGE('',*,*,#209,.F.);
#30=ORIENTED_EDGE('',*,*,#210,.F.);
#31=ORIENTED_EDGE('',*,*,#211,.F.);
#32=ORIENTED_EDGE('',*,*,#212,.T.);
#33=ORIENTED_EDGE('',*,*,#213,.T.);
#34=ORIENTED_EDGE('',*,*,#214,.T.);
#35=ORIENTED_EDGE('',*,*,#215,.F.);
#36=ORIENTED_EDGE('',*,*,#216,.F.);
#37=ORIENTED_EDGE('',*,*,#210,.T.);
#38=ORIENTED_EDGE('',*,*,#217,.T.);
#39=ORIENTED_EDGE('',*,*,#218,.T.);
#40=ORIENTED_EDGE('',*,*,#219,.T.);
#41=ORIENTED_EDGE('',*,*,#220,.F.);
#42=ORIENTED_EDGE('',*,*,#221,.F.);
#43=ORIENTED_EDGE('',*,*,#215,.T.);
#44=ORIENTED_EDGE('',*,*,#222,.T.);
#45=ORIENTED_EDGE('',*,*,#223,.F.);
#46=ORIENTED_EDGE('',*,*,#224,.F.);
#47=ORIENTED_EDGE('',*,*,#220,.T.);
#48=ORIENTED_EDGE('',*,*,#225,.T.);
#49=ORIENTED_EDGE('',*,*,#226,.F.);
#50=ORIENTED_EDGE('',*,*,#227,.F.);
#51=ORIENTED_EDGE('',*,*,#223,.T.);
#52=ORIENTED_EDGE('',*,*,#228,.T.);
#53=ORIENTED_EDGE('',*,*,#212,.F.);
#54=ORIENTED_EDGE('',*,*,#229,.F.);
#55=ORIENTED_EDGE('',*,*,#226,.T.);
#56=ORIENTED_EDGE('',*,*,#211,.T.);
#57=ORIENTED_EDGE('',*,*,#216,.T.);
#58=ORIENTED_EDGE('',*,*,#221,.T.);
#59=ORIENTED_EDGE('',*,*,#224,.T.);
#60=ORIENTED_EDGE('',*,*,#227,.T.);
#61=ORIENTED_EDGE('',*,*,#229,.T.);
#62=ORIENTED_EDGE('',*,*,#213,.F.);
#63=ORIENTED_EDGE('',*,*,#228,.F.);
#64=ORIENTED_EDGE('',*,*,#225,.F.);
#65=ORIENTED_EDGE('',*,*,#222,.F.);
#66=ORIENTED_EDGE('',*,*,#219,.F.);
#67=ORIENTED_EDGE('',*,*,#214,.F.);
#68=ORIENTED_EDGE('',*,*,#230,.T.);
#69=ORIENTED_EDGE('',*,*,#231,.F.);
#70=ORIENTED_EDGE('',*,*,#231,.T.);
#71=ORIENTED_EDGE('',*,*,#232,.F.);
#72=ORIENTED_EDGE('',*,*,#233,.F.);
#73=ORIENTED_EDGE('',*,*,#208,.T.);
#74=ORIENTED_EDGE('',*,*,#230,.F.);
#75=ORIENTED_EDGE('',*,*,#218,.F.);
#76=ORIENTED_EDGE('',*,*,#234,.T.);
#77=ORIENTED_EDGE('',*,*,#232,.T.);
#78=ORIENTED_EDGE('',*,*,#217,.F.);
#79=ORIENTED_EDGE('',*,*,#209,.T.);
#80=ORIENTED_EDGE('',*,*,#233,.T.);
#81=ORIENTED_EDGE('',*,*,#234,.F.);
#82=ORIENTED_EDGE('',*,*,#235,.F.);
#83=ORIENTED_EDGE('',*,*,#236,.T.);
#84=ORIENTED_EDGE('',*,*,#237,.T.);
#85=ORIENTED_EDGE('',*,*,#238,.T.);
#86=ORIENTED_EDGE('',*,*,#239,.T.);
#87=ORIENTED_EDGE('',*,*,#240,.F.);
#88=ORIENTED_EDGE('',*,*,#241,.F.);
#89=ORIENTED_EDGE('',*,*,#242,.T.);
#90=ORIENTED_EDGE('',*,*,#243,.F.);
#91=ORIENTED_EDGE('',*,*,#244,.F.);
#92=ORIENTED_EDGE('',*,*,#245,.T.);
#93=ORIENTED_EDGE('',*,*,#246,.T.);
#94=ORIENTED_EDGE('',*,*,#247,.T.);
#95=ORIENTED_EDGE('',*,*,#248,.T.);
#96=ORIENTED_EDGE('',*,*,#249,.F.);
#97=ORIENTED_EDGE('',*,*,#248,.F.);
#98=ORIENTED_EDGE('',*,*,#250,.T.);
#99=ORIENTED_EDGE('',*,*,#251,.T.);
#100=ORIENTED_EDGE('',*,*,#252,.T.);
#101=ORIENTED_EDGE('',*,*,#251,.F.);
#102=ORIENTED_EDGE('',*,*,#253,.F.);
#103=ORIENTED_EDGE('',*,*,#254,.T.);
#104=ORIENTED_EDGE('',*,*,#255,.T.);
#105=ORIENTED_EDGE('',*,*,#254,.F.);
#106=ORIENTED_EDGE('',*,*,#256,.F.);
#107=ORIENTED_EDGE('',*,*,#257,.F.);
#108=ORIENTED_EDGE('',*,*,#258,.F.);
#109=ORIENTED_EDGE('',*,*,#259,.F.);
#110=ORIENTED_EDGE('',*,*,#260,.F.);
#111=ORIENTED_EDGE('',*,*,#244,.T.);
#112=ORIENTED_EDGE('',*,*,#261,.F.);
#113=ORIENTED_EDGE('',*,*,#238,.F.);
#114=ORIENTED_EDGE('',*,*,#262,.T.);
#115=ORIENTED_EDGE('',*,*,#240,.T.);
#116=ORIENTED_EDGE('',*,*,#247,.F.);
#117=ORIENTED_EDGE('',*,*,#263,.T.);
#118=ORIENTED_EDGE('',*,*,#241,.T.);
#119=ORIENTED_EDGE('',*,*,#262,.F.);
#120=ORIENTED_EDGE('',*,*,#237,.F.);
#121=ORIENTED_EDGE('',*,*,#264,.F.);
#122=ORIENTED_EDGE('',*,*,#265,.F.);
#123=ORIENTED_EDGE('',*,*,#256,.T.);
#124=ORIENTED_EDGE('',*,*,#253,.T.);
#125=ORIENTED_EDGE('',*,*,#250,.F.);
#126=ORIENTED_EDGE('',*,*,#266,.T.);
#127=ORIENTED_EDGE('',*,*,#235,.T.);
#128=ORIENTED_EDGE('',*,*,#261,.T.);
#129=ORIENTED_EDGE('',*,*,#239,.F.);
#130=ORIENTED_EDGE('',*,*,#255,.F.);
#131=ORIENTED_EDGE('',*,*,#243,.T.);
#132=ORIENTED_EDGE('',*,*,#249,.T.);
#133=ORIENTED_EDGE('',*,*,#252,.F.);
#134=ORIENTED_EDGE('',*,*,#242,.F.);
#135=ORIENTED_EDGE('',*,*,#264,.T.);
#136=ORIENTED_EDGE('',*,*,#236,.F.);
#137=ORIENTED_EDGE('',*,*,#266,.F.);
#138=ORIENTED_EDGE('',*,*,#267,.F.);
#139=ORIENTED_EDGE('',*,*,#268,.T.);
#140=ORIENTED_EDGE('',*,*,#257,.T.);
#141=ORIENTED_EDGE('',*,*,#265,.T.);
#142=ORIENTED_EDGE('',*,*,#263,.F.);
#143=ORIENTED_EDGE('',*,*,#246,.F.);
#144=ORIENTED_EDGE('',*,*,#269,.T.);
#145=ORIENTED_EDGE('',*,*,#270,.T.);
#146=ORIENTED_EDGE('',*,*,#271,.T.);
#147=ORIENTED_EDGE('',*,*,#267,.T.);
#148=ORIENTED_EDGE('',*,*,#260,.T.);
#149=ORIENTED_EDGE('',*,*,#272,.T.);
#150=ORIENTED_EDGE('',*,*,#269,.F.);
#151=ORIENTED_EDGE('',*,*,#245,.F.);
#152=ORIENTED_EDGE('',*,*,#268,.F.);
#153=ORIENTED_EDGE('',*,*,#271,.F.);
#154=ORIENTED_EDGE('',*,*,#273,.T.);
#155=ORIENTED_EDGE('',*,*,#258,.T.);
#156=ORIENTED_EDGE('',*,*,#273,.F.);
#157=ORIENTED_EDGE('',*,*,#270,.F.);
#158=ORIENTED_EDGE('',*,*,#272,.F.);
#159=ORIENTED_EDGE('',*,*,#259,.T.);
#160=ORIENTED_EDGE('',*,*,#274,.T.);
#161=ORIENTED_EDGE('',*,*,#275,.T.);
#162=ORIENTED_EDGE('',*,*,#276,.F.);
#163=ORIENTED_EDGE('',*,*,#277,.F.);
#164=ORIENTED_EDGE('',*,*,#278,.F.);
#165=ORIENTED_EDGE('',*,*,#279,.F.);
#166=ORIENTED_EDGE('',*,*,#280,.F.);
#167=ORIENTED_EDGE('',*,*,#281,.T.);
#168=ORIENTED_EDGE('',*,*,#282,.F.);
#169=ORIENTED_EDGE('',*,*,#274,.F.);
#170=ORIENTED_EDGE('',*,*,#283,.T.);
#171=ORIENTED_EDGE('',*,*,#284,.T.);
#172=ORIENTED_EDGE('',*,*,#285,.F.);
#173=ORIENTED_EDGE('',*,*,#279,.T.);
#174=ORIENTED_EDGE('',*,*,#286,.F.);
#175=ORIENTED_EDGE('',*,*,#287,.F.);
#176=ORIENTED_EDGE('',*,*,#288,.T.);
#177=ORIENTED_EDGE('',*,*,#289,.T.);
#178=ORIENTED_EDGE('',*,*,#290,.T.);
#179=ORIENTED_EDGE('',*,*,#291,.T.);
#180=ORIENTED_EDGE('',*,*,#284,.F.);
#181=ORIENTED_EDGE('',*,*,#292,.F.);
#182=ORIENTED_EDGE('',*,*,#287,.T.);
#183=ORIENTED_EDGE('',*,*,#293,.T.);
#184=ORIENTED_EDGE('',*,*,#290,.F.);
#185=ORIENTED_EDGE('',*,*,#294,.F.);
#186=ORIENTED_EDGE('',*,*,#294,.T.);
#187=ORIENTED_EDGE('',*,*,#292,.T.);
#188=ORIENTED_EDGE('',*,*,#283,.F.);
#189=ORIENTED_EDGE('',*,*,#277,.T.);
#190=ORIENTED_EDGE('',*,*,#295,.T.);
#191=ORIENTED_EDGE('',*,*,#288,.F.);
#192=ORIENTED_EDGE('',*,*,#276,.T.);
#193=ORIENTED_EDGE('',*,*,#296,.T.);
#194=ORIENTED_EDGE('',*,*,#281,.F.);
#195=ORIENTED_EDGE('',*,*,#297,.T.);
#196=ORIENTED_EDGE('',*,*,#289,.F.);
#197=ORIENTED_EDGE('',*,*,#295,.F.);
#198=ORIENTED_EDGE('',*,*,#291,.F.);
#199=ORIENTED_EDGE('',*,*,#293,.F.);
#200=ORIENTED_EDGE('',*,*,#286,.T.);
#201=ORIENTED_EDGE('',*,*,#297,.F.);
#202=ORIENTED_EDGE('',*,*,#280,.T.);
#203=ORIENTED_EDGE('',*,*,#285,.T.);
#204=ORIENTED_EDGE('',*,*,#282,.T.);
#205=ORIENTED_EDGE('',*,*,#278,.T.);
#206=ORIENTED_EDGE('',*,*,#296,.F.);
#207=ORIENTED_EDGE('',*,*,#275,.F.);
#208=EDGE_CURVE('',#298,#299,#357,.T.);
#209=EDGE_CURVE('',#300,#298,#358,.T.);
#210=EDGE_CURVE('',#301,#300,#359,.T.);
#211=EDGE_CURVE('',#302,#301,#360,.T.);
#212=EDGE_CURVE('',#302,#303,#361,.T.);
#213=EDGE_CURVE('',#303,#299,#362,.T.);
#214=EDGE_CURVE('',#304,#305,#363,.T.);
#215=EDGE_CURVE('',#306,#305,#364,.T.);
#216=EDGE_CURVE('',#301,#306,#365,.T.);
#217=EDGE_CURVE('',#300,#307,#366,.T.);
#218=EDGE_CURVE('',#307,#304,#367,.T.);
#219=EDGE_CURVE('',#305,#308,#368,.T.);
#220=EDGE_CURVE('',#309,#308,#369,.T.);
#221=EDGE_CURVE('',#306,#309,#370,.T.);
#222=EDGE_CURVE('',#308,#310,#371,.T.);
#223=EDGE_CURVE('',#311,#310,#372,.T.);
#224=EDGE_CURVE('',#309,#311,#373,.T.);
#225=EDGE_CURVE('',#310,#312,#374,.T.);
#226=EDGE_CURVE('',#313,#312,#375,.T.);
#227=EDGE_CURVE('',#311,#313,#376,.T.);
#228=EDGE_CURVE('',#312,#303,#377,.T.);
#229=EDGE_CURVE('',#313,#302,#378,.T.);
#230=EDGE_CURVE('',#304,#314,#379,.T.);
#231=EDGE_CURVE('',#299,#314,#380,.T.);
#232=EDGE_CURVE('',#315,#314,#381,.T.);
#233=EDGE_CURVE('',#298,#315,#382,.T.);
#234=EDGE_CURVE('',#307,#315,#383,.T.);
#235=EDGE_CURVE('',#316,#317,#384,.T.);
#236=EDGE_CURVE('',#316,#318,#385,.T.);
#237=EDGE_CURVE('',#318,#319,#386,.T.);
#238=EDGE_CURVE('',#319,#317,#387,.T.);
#239=EDGE_CURVE('',#320,#321,#388,.T.);
#240=EDGE_CURVE('',#322,#321,#389,.T.);
#241=EDGE_CURVE('',#323,#322,#390,.T.);
#242=EDGE_CURVE('',#323,#320,#391,.T.);
#243=EDGE_CURVE('',#324,#325,#392,.T.);
#244=EDGE_CURVE('',#326,#324,#393,.T.);
#245=EDGE_CURVE('',#326,#327,#394,.T.);
#246=EDGE_CURVE('',#327,#328,#395,.T.);
#247=EDGE_CURVE('',#328,#329,#396,.T.);
#248=EDGE_CURVE('',#329,#325,#397,.T.);
#249=EDGE_CURVE('',#325,#330,#398,.T.);
#250=EDGE_CURVE('',#329,#331,#399,.T.);
#251=EDGE_CURVE('',#331,#330,#400,.T.);
#252=EDGE_CURVE('',#332,#330,#401,.T.);
#253=EDGE_CURVE('',#333,#331,#402,.T.);
#254=EDGE_CURVE('',#333,#332,#403,.T.);
#255=EDGE_CURVE('',#324,#332,#404,.T.);
#256=EDGE_CURVE('',#334,#333,#405,.T.);
#257=EDGE_CURVE('',#335,#334,#406,.T.);
#258=EDGE_CURVE('',#336,#335,#407,.T.);
#259=EDGE_CURVE('',#337,#336,#408,.T.);
#260=EDGE_CURVE('',#326,#337,#409,.T.);
#261=EDGE_CURVE('',#317,#321,#410,.T.);
#262=EDGE_CURVE('',#319,#322,#411,.T.);
#263=EDGE_CURVE('',#328,#323,#412,.T.);
#264=EDGE_CURVE('',#323,#318,#413,.T.);
#265=EDGE_CURVE('',#334,#323,#414,.T.);
#266=EDGE_CURVE('',#320,#316,#415,.T.);
#267=EDGE_CURVE('',#338,#323,#416,.T.);
#268=EDGE_CURVE('',#338,#335,#417,.T.);
#269=EDGE_CURVE('',#327,#339,#418,.T.);
#270=EDGE_CURVE('',#339,#340,#419,.T.);
#271=EDGE_CURVE('',#340,#338,#420,.T.);
#272=EDGE_CURVE('',#337,#339,#421,.T.);
#273=EDGE_CURVE('',#340,#336,#422,.T.);
#274=EDGE_CURVE('',#341,#342,#423,.T.);
#275=EDGE_CURVE('',#342,#343,#424,.T.);
#276=EDGE_CURVE('',#344,#343,#425,.T.);
#277=EDGE_CURVE('',#341,#344,#426,.T.);
#278=EDGE_CURVE('',#345,#346,#427,.T.);
#279=EDGE_CURVE('',#347,#345,#428,.T.);
#280=EDGE_CURVE('',#348,#347,#429,.T.);
#281=EDGE_CURVE('',#348,#346,#430,.T.);
#282=EDGE_CURVE('',#342,#345,#431,.T.);
#283=EDGE_CURVE('',#341,#349,#432,.T.);
#284=EDGE_CURVE('',#349,#350,#433,.T.);
#285=EDGE_CURVE('',#347,#350,#434,.T.);
#286=EDGE_CURVE('',#351,#352,#435,.T.);
#287=EDGE_CURVE('',#353,#351,#436,.T.);
#288=EDGE_CURVE('',#353,#354,#437,.T.);
#289=EDGE_CURVE('',#354,#352,#438,.T.);
#290=EDGE_CURVE('',#355,#356,#439,.T.);
#291=EDGE_CURVE('',#356,#350,#440,.T.);
#292=EDGE_CURVE('',#355,#349,#441,.T.);
#293=EDGE_CURVE('',#351,#356,#442,.T.);
#294=EDGE_CURVE('',#353,#355,#443,.T.);
#295=EDGE_CURVE('',#344,#354,#444,.T.);
#296=EDGE_CURVE('',#343,#346,#445,.T.);
#297=EDGE_CURVE('',#348,#352,#446,.T.);
#298=VERTEX_POINT('',#934);
#299=VERTEX_POINT('',#935);
#300=VERTEX_POINT('',#937);
#301=VERTEX_POINT('',#939);
#302=VERTEX_POINT('',#941);
#303=VERTEX_POINT('',#943);
#304=VERTEX_POINT('',#947);
#305=VERTEX_POINT('',#948);
#306=VERTEX_POINT('',#950);
#307=VERTEX_POINT('',#953);
#308=VERTEX_POINT('',#957);
#309=VERTEX_POINT('',#959);
#310=VERTEX_POINT('',#963);
#311=VERTEX_POINT('',#965);
#312=VERTEX_POINT('',#969);
#313=VERTEX_POINT('',#971);
#314=VERTEX_POINT('',#979);
#315=VERTEX_POINT('',#983);
#316=VERTEX_POINT('',#991);
#317=VERTEX_POINT('',#992);
#318=VERTEX_POINT('',#994);
#319=VERTEX_POINT('',#996);
#320=VERTEX_POINT('',#1000);
#321=VERTEX_POINT('',#1001);
#322=VERTEX_POINT('',#1003);
#323=VERTEX_POINT('',#1005);
#324=VERTEX_POINT('',#1009);
#325=VERTEX_POINT('',#1010);
#326=VERTEX_POINT('',#1012);
#327=VERTEX_POINT('',#1014);
#328=VERTEX_POINT('',#1016);
#329=VERTEX_POINT('',#1018);
#330=VERTEX_POINT('',#1022);
#331=VERTEX_POINT('',#1024);
#332=VERTEX_POINT('',#1028);
#333=VERTEX_POINT('',#1030);
#334=VERTEX_POINT('',#1035);
#335=VERTEX_POINT('',#1037);
#336=VERTEX_POINT('',#1039);
#337=VERTEX_POINT('',#1041);
#338=VERTEX_POINT('',#1055);
#339=VERTEX_POINT('',#1059);
#340=VERTEX_POINT('',#1061);
#341=VERTEX_POINT('',#1071);
#342=VERTEX_POINT('',#1072);
#343=VERTEX_POINT('',#1074);
#344=VERTEX_POINT('',#1076);
#345=VERTEX_POINT('',#1080);
#346=VERTEX_POINT('',#1081);
#347=VERTEX_POINT('',#1083);
#348=VERTEX_POINT('',#1085);
#349=VERTEX_POINT('',#1090);
#350=VERTEX_POINT('',#1092);
#351=VERTEX_POINT('',#1096);
#352=VERTEX_POINT('',#1097);
#353=VERTEX_POINT('',#1099);
#354=VERTEX_POINT('',#1101);
#355=VERTEX_POINT('',#1105);
#356=VERTEX_POINT('',#1106);
#357=LINE('',#933,#447);
#358=LINE('',#936,#448);
#359=LINE('',#938,#449);
#360=LINE('',#940,#450);
#361=LINE('',#942,#451);
#362=LINE('',#944,#452);
#363=LINE('',#946,#453);
#364=LINE('',#949,#454);
#365=LINE('',#951,#455);
#366=LINE('',#952,#456);
#367=LINE('',#954,#457);
#368=LINE('',#956,#458);
#369=LINE('',#958,#459);
#370=LINE('',#960,#460);
#371=LINE('',#962,#461);
#372=LINE('',#964,#462);
#373=LINE('',#966,#463);
#374=LINE('',#968,#464);
#375=LINE('',#970,#465);
#376=LINE('',#972,#466);
#377=LINE('',#974,#467);
#378=LINE('',#975,#468);
#379=LINE('',#978,#469);
#380=LINE('',#980,#470);
#381=LINE('',#982,#471);
#382=LINE('',#984,#472);
#383=LINE('',#986,#473);
#384=LINE('',#990,#474);
#385=LINE('',#993,#475);
#386=LINE('',#995,#476);
#387=LINE('',#997,#477);
#388=LINE('',#999,#478);
#389=LINE('',#1002,#479);
#390=LINE('',#1004,#480);
#391=LINE('',#1006,#481);
#392=LINE('',#1008,#482);
#393=LINE('',#1011,#483);
#394=LINE('',#1013,#484);
#395=LINE('',#1015,#485);
#396=LINE('',#1017,#486);
#397=LINE('',#1019,#487);
#398=LINE('',#1021,#488);
#399=LINE('',#1023,#489);
#400=LINE('',#1025,#490);
#401=LINE('',#1027,#491);
#402=LINE('',#1029,#492);
#403=LINE('',#1031,#493);
#404=LINE('',#1033,#494);
#405=LINE('',#1034,#495);
#406=LINE('',#1036,#496);
#407=LINE('',#1038,#497);
#408=LINE('',#1040,#498);
#409=LINE('',#1042,#499);
#410=LINE('',#1044,#500);
#411=LINE('',#1045,#501);
#412=LINE('',#1047,#502);
#413=LINE('',#1048,#503);
#414=LINE('',#1049,#504);
#415=LINE('',#1051,#505);
#416=LINE('',#1054,#506);
#417=LINE('',#1056,#507);
#418=LINE('',#1058,#508);
#419=LINE('',#1060,#509);
#420=LINE('',#1062,#510);
#421=LINE('',#1064,#511);
#422=LINE('',#1066,#512);
#423=LINE('',#1070,#513);
#424=LINE('',#1073,#514);
#425=LINE('',#1075,#515);
#426=LINE('',#1077,#516);
#427=LINE('',#1079,#517);
#428=LINE('',#1082,#518);
#429=LINE('',#1084,#519);
#430=LINE('',#1086,#520);
#431=LINE('',#1088,#521);
#432=LINE('',#1089,#522);
#433=LINE('',#1091,#523);
#434=LINE('',#1093,#524);
#435=LINE('',#1095,#525);
#436=LINE('',#1098,#526);
#437=LINE('',#1100,#527);
#438=LINE('',#1102,#528);
#439=LINE('',#1104,#529);
#440=LINE('',#1107,#530);
#441=LINE('',#1108,#531);
#442=LINE('',#1110,#532);
#443=LINE('',#1111,#533);
#444=LINE('',#1113,#534);
#445=LINE('',#1115,#535);
#446=LINE('',#1116,#536);
#447=VECTOR('',#765,1.);
#448=VECTOR('',#766,1.);
#449=VECTOR('',#767,1.);
#450=VECTOR('',#768,1.);
#451=VECTOR('',#769,1.);
#452=VECTOR('',#770,1.);
#453=VECTOR('',#773,1.);
#454=VECTOR('',#774,1.);
#455=VECTOR('',#775,1.);
#456=VECTOR('',#776,1.);
#457=VECTOR('',#777,1.);
#458=VECTOR('',#780,1.);
#459=VECTOR('',#781,1.);
#460=VECTOR('',#782,1.);
#461=VECTOR('',#785,1.);
#462=VECTOR('',#786,1.);
#463=VECTOR('',#787,1.);
#464=VECTOR('',#790,1.);
#465=VECTOR('',#791,1.);
#466=VECTOR('',#792,1.);
#467=VECTOR('',#795,1.);
#468=VECTOR('',#796,1.);
#469=VECTOR('',#801,1.);
#470=VECTOR('',#802,1.);
#471=VECTOR('',#805,1.);
#472=VECTOR('',#806,1.);
#473=VECTOR('',#809,1.);
#474=VECTOR('',#816,1.);
#475=VECTOR('',#817,1.);
#476=VECTOR('',#818,1.);
#477=VECTOR('',#819,1.);
#478=VECTOR('',#822,1.);
#479=VECTOR('',#823,1.);
#480=VECTOR('',#824,1.);
#481=VECTOR('',#825,1.);
#482=VECTOR('',#828,1.);
#483=VECTOR('',#829,1.);
#484=VECTOR('',#830,1.);
#485=VECTOR('',#831,1.);
#486=VECTOR('',#832,1.);
#487=VECTOR('',#833,1.);
#488=VECTOR('',#836,1.);
#489=VECTOR('',#837,1.);
#490=VECTOR('',#838,1.);
#491=VECTOR('',#841,1.);
#492=VECTOR('',#842,1.);
#493=VECTOR('',#843,1.);
#494=VECTOR('',#846,1.);
#495=VECTOR('',#847,1.);
#496=VECTOR('',#848,1.);
#497=VECTOR('',#849,1.);
#498=VECTOR('',#850,1.);
#499=VECTOR('',#851,1.);
#500=VECTOR('',#854,1.);
#501=VECTOR('',#855,1.);
#502=VECTOR('',#858,1.);
#503=VECTOR('',#859,1.);
#504=VECTOR('',#860,1.);
#505=VECTOR('',#863,1.);
#506=VECTOR('',#868,1.);
#507=VECTOR('',#869,1.);
#508=VECTOR('',#872,1.);
#509=VECTOR('',#873,1.);
#510=VECTOR('',#874,1.);
#511=VECTOR('',#877,1.);
#512=VECTOR('',#880,1.);
#513=VECTOR('',#887,1.);
#514=VECTOR('',#888,1.);
#515=VECTOR('',#889,1.);
#516=VECTOR('',#890,1.);
#517=VECTOR('',#893,1.);
#518=VECTOR('',#894,1.);
#519=VECTOR('',#895,1.);
#520=VECTOR('',#896,1.);
#521=VECTOR('',#899,1.);
#522=VECTOR('',#900,1.);
#523=VECTOR('',#901,1.);
#524=VECTOR('',#902,1.);
#525=VECTOR('',#905,1.);
#526=VECTOR('',#906,1.);
#527=VECTOR('',#907,1.);
#528=VECTOR('',#908,1.);
#529=VECTOR('',#911,1.);
#530=VECTOR('',#912,1.);
#531=VECTOR('',#913,1.);
#532=VECTOR('',#916,1.);
#533=VECTOR('',#917,1.);
#534=VECTOR('',#920,1.);
#535=VECTOR('',#923,1.);
#536=VECTOR('',#924,1.);
#537=EDGE_LOOP('',(#28,#29,#30,#31,#32,#33));
#538=EDGE_LOOP('',(#34,#35,#36,#37,#38,#39));
#539=EDGE_LOOP('',(#40,#41,#42,#43));
#540=EDGE_LOOP('',(#44,#45,#46,#47));
#541=EDGE_LOOP('',(#48,#49,#50,#51));
#542=EDGE_LOOP('',(#52,#53,#54,#55));
#543=EDGE_LOOP('',(#56,#57,#58,#59,#60,#61));
#544=EDGE_LOOP('',(#62,#63,#64,#65,#66,#67,#68,#69));
#545=EDGE_LOOP('',(#70,#71,#72,#73));
#546=EDGE_LOOP('',(#74,#75,#76,#77));
#547=EDGE_LOOP('',(#78,#79,#80,#81));
#548=EDGE_LOOP('',(#82,#83,#84,#85));
#549=EDGE_LOOP('',(#86,#87,#88,#89));
#550=EDGE_LOOP('',(#90,#91,#92,#93,#94,#95));
#551=EDGE_LOOP('',(#96,#97,#98,#99));
#552=EDGE_LOOP('',(#100,#101,#102,#103));
#553=EDGE_LOOP('',(#104,#105,#106,#107,#108,#109,#110,#111));
#554=EDGE_LOOP('',(#112,#113,#114,#115));
#555=EDGE_LOOP('',(#116,#117,#118,#119,#120,#121,#122,#123,#124,#125));
#556=EDGE_LOOP('',(#126,#127,#128,#129));
#557=EDGE_LOOP('',(#130,#131,#132,#133));
#558=EDGE_LOOP('',(#134,#135,#136,#137));
#559=EDGE_LOOP('',(#138,#139,#140,#141));
#560=EDGE_LOOP('',(#142,#143,#144,#145,#146,#147));
#561=EDGE_LOOP('',(#148,#149,#150,#151));
#562=EDGE_LOOP('',(#152,#153,#154,#155));
#563=EDGE_LOOP('',(#156,#157,#158,#159));
#564=EDGE_LOOP('',(#160,#161,#162,#163));
#565=EDGE_LOOP('',(#164,#165,#166,#167));
#566=EDGE_LOOP('',(#168,#169,#170,#171,#172,#173));
#567=EDGE_LOOP('',(#174,#175,#176,#177));
#568=EDGE_LOOP('',(#178,#179,#180,#181));
#569=EDGE_LOOP('',(#182,#183,#184,#185));
#570=EDGE_LOOP('',(#186,#187,#188,#189,#190,#191));
#571=EDGE_LOOP('',(#192,#193,#194,#195,#196,#197));
#572=EDGE_LOOP('',(#198,#199,#200,#201,#202,#203));
#573=EDGE_LOOP('',(#204,#205,#206,#207));
#574=FACE_BOUND('',#537,.T.);
#575=FACE_BOUND('',#538,.T.);
#576=FACE_BOUND('',#539,.T.);
#577=FACE_BOUND('',#540,.T.);
#578=FACE_BOUND('',#541,.T.);
#579=FACE_BOUND('',#542,.T.);
#580=FACE_BOUND('',#543,.T.);
#581=FACE_BOUND('',#544,.T.);
#582=FACE_BOUND('',#545,.T.);
#583=FACE_BOUND('',#546,.T.);
#584=FACE_BOUND('',#547,.T.);
#585=FACE_BOUND('',#548,.T.);
#586=FACE_BOUND('',#549,.T.);
#587=FACE_BOUND('',#550,.T.);
#588=FACE_BOUND('',#551,.T.);
#589=FACE_BOUND('',#552,.T.);
#590=FACE_BOUND('',#553,.T.);
#591=FACE_BOUND('',#554,.T.);
#592=FACE_BOUND('',#555,.T.);
#593=FACE_BOUND('',#556,.T.);
#594=FACE_BOUND('',#557,.T.);
#595=FACE_BOUND('',#558,.T.);
#596=FACE_BOUND('',#559,.T.);
#597=FACE_BOUND('',#560,.T.);
#598=FACE_BOUND('',#561,.T.);
#599=FACE_BOUND('',#562,.T.);
#600=FACE_BOUND('',#563,.T.);
#601=FACE_BOUND('',#564,.T.);
#602=FACE_BOUND('',#565,.T.);
#603=FACE_BOUND('',#566,.T.);
#604=FACE_BOUND('',#567,.T.);
#605=FACE_BOUND('',#568,.T.);
#606=FACE_BOUND('',#569,.T.);
#607=FACE_BOUND('',#570,.T.);
#608=FACE_BOUND('',#571,.T.);
#609=FACE_BOUND('',#572,.T.);
#610=FACE_BOUND('',#573,.T.);
#611=PLANE('',#722);
#612=PLANE('',#723);
#613=PLANE('',#724);
#614=PLANE('',#725);
#615=PLANE('',#726);
#616=PLANE('',#727);
#617=PLANE('',#728);
#618=PLANE('',#729);
#619=PLANE('',#730);
#620=PLANE('',#731);
#621=PLANE('',#732);
#622=PLANE('',#734);
#623=PLANE('',#735);
#624=PLANE('',#736);
#625=PLANE('',#737);
#626=PLANE('',#738);
#627=PLANE('',#739);
#628=PLANE('',#740);
#629=PLANE('',#741);
#630=PLANE('',#742);
#631=PLANE('',#743);
#632=PLANE('',#744);
#633=PLANE('',#745);
#634=PLANE('',#746);
#635=PLANE('',#747);
#636=PLANE('',#748);
#637=PLANE('',#750);
#638=PLANE('',#751);
#639=PLANE('',#752);
#640=PLANE('',#753);
#641=PLANE('',#754);
#642=PLANE('',#755);
#643=PLANE('',#756);
#644=PLANE('',#757);
#645=PLANE('',#758);
#646=PLANE('',#759);
#647=ADVANCED_FACE('',(#574),#611,.F.);
#648=ADVANCED_FACE('',(#575),#612,.F.);
#649=ADVANCED_FACE('',(#576),#613,.F.);
#650=ADVANCED_FACE('',(#577),#614,.F.);
#651=ADVANCED_FACE('',(#578),#615,.F.);
#652=ADVANCED_FACE('',(#579),#616,.F.);
#653=ADVANCED_FACE('',(#580),#617,.T.);
#654=ADVANCED_FACE('',(#581),#618,.F.);
#655=ADVANCED_FACE('',(#582),#619,.F.);
#656=ADVANCED_FACE('',(#583),#620,.T.);
#657=ADVANCED_FACE('',(#584),#621,.T.);
#658=ADVANCED_FACE('',(#585),#622,.T.);
#659=ADVANCED_FACE('',(#586),#623,.F.);
#660=ADVANCED_FACE('',(#587),#624,.T.);
#661=ADVANCED_FACE('',(#588),#625,.T.);
#662=ADVANCED_FACE('',(#589),#626,.F.);
#663=ADVANCED_FACE('',(#590),#627,.F.);
#664=ADVANCED_FACE('',(#591),#628,.T.);
#665=ADVANCED_FACE('',(#592),#629,.F.);
#666=ADVANCED_FACE('',(#593,#594),#630,.T.);
#667=ADVANCED_FACE('',(#595),#631,.T.);
#668=ADVANCED_FACE('',(#596),#632,.F.);
#669=ADVANCED_FACE('',(#597),#633,.T.);
#670=ADVANCED_FACE('',(#598),#634,.T.);
#671=ADVANCED_FACE('',(#599),#635,.T.);
#672=ADVANCED_FACE('',(#600),#636,.T.);
#673=ADVANCED_FACE('',(#601),#637,.T.);
#674=ADVANCED_FACE('',(#602),#638,.F.);
#675=ADVANCED_FACE('',(#603),#639,.T.);
#676=ADVANCED_FACE('',(#604),#640,.F.);
#677=ADVANCED_FACE('',(#605),#641,.T.);
#678=ADVANCED_FACE('',(#606),#642,.F.);
#679=ADVANCED_FACE('',(#607),#643,.T.);
#680=ADVANCED_FACE('',(#608),#644,.F.);
#681=ADVANCED_FACE('',(#609),#645,.F.);
#682=ADVANCED_FACE('',(#610),#646,.T.);
#683=CLOSED_SHELL('',(#647,#648,#649,#650,#651,#652,#653,#654,#655,#656,
#657));
#684=CLOSED_SHELL('',(#658,#659,#660,#661,#662,#663,#664,#665,#666,#667,
#668,#669,#670,#671,#672));
#685=CLOSED_SHELL('',(#673,#674,#675,#676,#677,#678,#679,#680,#681,#682));
#686=STYLED_ITEM('',(#689),#710);
#687=STYLED_ITEM('',(#690),#711);
#688=STYLED_ITEM('',(#691),#712);
#689=PRESENTATION_STYLE_ASSIGNMENT((#692));
#690=PRESENTATION_STYLE_ASSIGNMENT((#693));
#691=PRESENTATION_STYLE_ASSIGNMENT((#694));
#692=SURFACE_STYLE_USAGE(.BOTH.,#695);
#693=SURFACE_STYLE_USAGE(.BOTH.,#696);
#694=SURFACE_STYLE_USAGE(.BOTH.,#697);
#695=SURFACE_SIDE_STYLE('',(#698));
#696=SURFACE_SIDE_STYLE('',(#699));
#697=SURFACE_SIDE_STYLE('',(#700));
#698=SURFACE_STYLE_FILL_AREA(#701);
#699=SURFACE_STYLE_FILL_AREA(#702);
#700=SURFACE_STYLE_FILL_AREA(#703);
#701=FILL_AREA_STYLE('',(#704));
#702=FILL_AREA_STYLE('',(#705));
#703=FILL_AREA_STYLE('',(#706));
#704=FILL_AREA_STYLE_COLOUR('',#707);
#705=FILL_AREA_STYLE_COLOUR('',#708);
#706=FILL_AREA_STYLE_COLOUR('',#709);
#707=COLOUR_RGB('',0.301960784313725,0.301960784313725,0.301960784313725);
#708=COLOUR_RGB('',0.615686274509804,0.811764705882353,0.929411764705882);
#709=COLOUR_RGB('',0.874509803921569,0.447058823529412,0.31764705882353);
#710=MANIFOLD_SOLID_BREP('Alexander''s Part',#683);
#711=MANIFOLD_SOLID_BREP('Sahil''s Part',#684);
#712=MANIFOLD_SOLID_BREP('Gabriel''s Part',#685);
#713=SHAPE_DEFINITION_REPRESENTATION(#1132,#717);
#714=SHAPE_DEFINITION_REPRESENTATION(#1133,#718);
#715=SHAPE_DEFINITION_REPRESENTATION(#1135,#719);
#716=SHAPE_DEFINITION_REPRESENTATION(#1137,#720);
#717=SHAPE_REPRESENTATION('Final Cube',(#721,#733,#749,#760),#1121);
#718=SHAPE_REPRESENTATION('Alexander''s Part',(#721),#1122);
#719=SHAPE_REPRESENTATION('Sahil''s Part',(#721),#1123);
#720=SHAPE_REPRESENTATION('Gabriel''s Part',(#721),#1124);
#721=AXIS2_PLACEMENT_3D('',#931,#761,#762);
#722=AXIS2_PLACEMENT_3D('',#932,#763,#764);
#723=AXIS2_PLACEMENT_3D('',#945,#771,#772);
#724=AXIS2_PLACEMENT_3D('',#955,#778,#779);
#725=AXIS2_PLACEMENT_3D('',#961,#783,#784);
#726=AXIS2_PLACEMENT_3D('',#967,#788,#789);
#727=AXIS2_PLACEMENT_3D('',#973,#793,#794);
#728=AXIS2_PLACEMENT_3D('',#976,#797,#798);
#729=AXIS2_PLACEMENT_3D('',#977,#799,#800);
#730=AXIS2_PLACEMENT_3D('',#981,#803,#804);
#731=AXIS2_PLACEMENT_3D('',#985,#807,#808);
#732=AXIS2_PLACEMENT_3D('',#987,#810,#811);
#733=AXIS2_PLACEMENT_3D('',#988,#812,#813);
#734=AXIS2_PLACEMENT_3D('',#989,#814,#815);
#735=AXIS2_PLACEMENT_3D('',#998,#820,#821);
#736=AXIS2_PLACEMENT_3D('',#1007,#826,#827);
#737=AXIS2_PLACEMENT_3D('',#1020,#834,#835);
#738=AXIS2_PLACEMENT_3D('',#1026,#839,#840);
#739=AXIS2_PLACEMENT_3D('',#1032,#844,#845);
#740=AXIS2_PLACEMENT_3D('',#1043,#852,#853);
#741=AXIS2_PLACEMENT_3D('',#1046,#856,#857);
#742=AXIS2_PLACEMENT_3D('',#1050,#861,#862);
#743=AXIS2_PLACEMENT_3D('',#1052,#864,#865);
#744=AXIS2_PLACEMENT_3D('',#1053,#866,#867);
#745=AXIS2_PLACEMENT_3D('',#1057,#870,#871);
#746=AXIS2_PLACEMENT_3D('',#1063,#875,#876);
#747=AXIS2_PLACEMENT_3D('',#1065,#878,#879);
#748=AXIS2_PLACEMENT_3D('',#1067,#881,#882);
#749=AXIS2_PLACEMENT_3D('',#1068,#883,#884);
#750=AXIS2_PLACEMENT_3D('',#1069,#885,#886);
#751=AXIS2_PLACEMENT_3D('',#1078,#891,#892);
#752=AXIS2_PLACEMENT_3D('',#1087,#897,#898);
#753=AXIS2_PLACEMENT_3D('',#1094,#903,#904);
#754=AXIS2_PLACEMENT_3D('',#1103,#909,#910);
#755=AXIS2_PLACEMENT_3D('',#1109,#914,#915);
#756=AXIS2_PLACEMENT_3D('',#1112,#918,#919);
#757=AXIS2_PLACEMENT_3D('',#1114,#921,#922);
#758=AXIS2_PLACEMENT_3D('',#1117,#925,#926);
#759=AXIS2_PLACEMENT_3D('',#1118,#927,#928);
#760=AXIS2_PLACEMENT_3D('',#1119,#929,#930);
#761=DIRECTION('',(0.,0.,1.));
#762=DIRECTION('',(1.,0.,0.));
#763=DIRECTION('',(6.12323399573677E-17,0.,-1.));
#764=DIRECTION('',(-6.12323399573677E-17,-1.,-1.23259516440783E-32));
#765=DIRECTION('',(-6.12323399573677E-17,-1.,-1.23259516440783E-32));
#766=DIRECTION('',(-1.,6.12323399573677E-17,-6.12323399573677E-17));
#767=DIRECTION('',(-6.12323399573677E-17,-1.,-1.23259516440783E-32));
#768=DIRECTION('',(1.,-6.12323399573677E-17,6.12323399573677E-17));
#769=DIRECTION('',(-6.12323399573677E-17,-1.,-1.23259516440783E-32));
#770=DIRECTION('',(1.,-6.12323399573677E-17,6.12323399573677E-17));
#771=DIRECTION('',(-1.,6.12323399573677E-17,2.55038338414727E-17));
#772=DIRECTION('',(2.55038338414727E-17,0.,1.));
#773=DIRECTION('',(-2.55038338414727E-17,0.,-1.));
#774=DIRECTION('',(-6.12323399573677E-17,-1.,-1.23259516440783E-32));
#775=DIRECTION('',(-2.55038338414727E-17,0.,-1.));
#776=DIRECTION('',(-6.12323399573677E-17,0.,1.));
#777=DIRECTION('',(-6.12323399573677E-17,-1.,-1.23259516440783E-32));
#778=DIRECTION('',(-6.12323399573677E-17,0.,1.));
#779=DIRECTION('',(6.12323399573677E-17,1.,1.23259516440783E-32));
#780=DIRECTION('',(-1.,6.12323399573677E-17,-6.12323399573677E-17));
#781=DIRECTION('',(-6.12323399573677E-17,-1.,-1.23259516440783E-32));
#782=DIRECTION('',(-1.,6.12323399573677E-17,-6.12323399573677E-17));
#783=DIRECTION('',(1.,-6.12323399573677E-17,6.12323399573677E-17));
#784=DIRECTION('',(-6.12323399573677E-17,-1.,-1.23259516440783E-32));
#785=DIRECTION('',(-6.12323399573677E-17,0.,1.));
#786=DIRECTION('',(-6.12323399573677E-17,-1.,-1.23259516440783E-32));
#787=DIRECTION('',(-6.12323399573677E-17,0.,1.));
#788=DIRECTION('',(6.12323399573677E-17,0.,-1.));
#789=DIRECTION('',(-6.12323399573677E-17,-1.,-1.23259516440783E-32));
#790=DIRECTION('',(1.,-6.12323399573677E-17,6.12323399573677E-17));
#791=DIRECTION('',(-6.12323399573677E-17,-1.,-1.23259516440783E-32));
#792=DIRECTION('',(1.,-6.12323399573677E-17,6.12323399573677E-17));
#793=DIRECTION('',(-1.,6.12323399573677E-17,-6.12323399573677E-17));
#794=DIRECTION('',(6.12323399573677E-17,1.,1.23259516440783E-32));
#795=DIRECTION('',(6.12323399573677E-17,0.,-1.));
#796=DIRECTION('',(6.12323399573677E-17,0.,-1.));
#797=DIRECTION('',(6.12323399573677E-17,1.,1.23259516440783E-32));
#798=DIRECTION('',(6.12323399573677E-17,0.,-1.));
#799=DIRECTION('',(6.12323399573677E-17,1.,1.23259516440783E-32));
#800=DIRECTION('',(6.12323399573677E-17,0.,-1.));
#801=DIRECTION('',(-1.,6.12323399573677E-17,-6.12323399573677E-17));
#802=DIRECTION('',(-6.12323399573677E-17,0.,1.));
#803=DIRECTION('',(1.,-6.12323399573677E-17,6.12323399573677E-17));
#804=DIRECTION('',(-6.12323399573677E-17,-1.,-1.23259516440783E-32));
#805=DIRECTION('',(-6.12323399573677E-17,-1.,-1.23259516440783E-32));
#806=DIRECTION('',(-6.12323399573677E-17,0.,1.));
#807=DIRECTION('',(-6.12323399573677E-17,0.,1.));
#808=DIRECTION('',(6.12323399573677E-17,1.,1.23259516440783E-32));
#809=DIRECTION('',(-1.,6.12323399573677E-17,-6.12323399573677E-17));
#810=DIRECTION('',(6.12323399573677E-17,1.,1.23259516440783E-32));
#811=DIRECTION('',(6.12323399573677E-17,0.,-1.));
#812=DIRECTION('',(0.,0.,1.));
#813=DIRECTION('',(1.,0.,0.));
#814=DIRECTION('',(0.,0.,1.));
#815=DIRECTION('',(1.,0.,0.));
#816=DIRECTION('',(-1.,0.,0.));
#817=DIRECTION('',(0.,1.,0.));
#818=DIRECTION('',(-1.,0.,0.));
#819=DIRECTION('',(0.,-1.,0.));
#820=DIRECTION('',(0.,0.,1.));
#821=DIRECTION('',(1.,0.,0.));
#822=DIRECTION('',(-1.,0.,0.));
#823=DIRECTION('',(0.,-1.,0.));
#824=DIRECTION('',(-1.,0.,0.));
#825=DIRECTION('',(0.,-1.,0.));
#826=DIRECTION('',(0.,0.,1.));
#827=DIRECTION('',(1.,0.,0.));
#828=DIRECTION('',(-1.,0.,0.));
#829=DIRECTION('',(0.,-1.,0.));
#830=DIRECTION('',(-1.,0.,0.));
#831=DIRECTION('',(0.,-1.,0.));
#832=DIRECTION('',(-1.,0.,0.));
#833=DIRECTION('',(0.,-1.,0.));
#834=DIRECTION('',(-1.,0.,6.12323399573677E-17));
#835=DIRECTION('',(6.12323399573677E-17,0.,1.));
#836=DIRECTION('',(-6.12323399573677E-17,0.,-1.));
#837=DIRECTION('',(-6.12323399573677E-17,0.,-1.));
#838=DIRECTION('',(0.,-1.,0.));
#839=DIRECTION('',(0.,0.,1.));
#840=DIRECTION('',(1.,0.,0.));
#841=DIRECTION('',(-1.,0.,0.));
#842=DIRECTION('',(-1.,0.,0.));
#843=DIRECTION('',(0.,-1.,0.));
#844=DIRECTION('',(-1.,0.,0.));
#845=DIRECTION('',(0.,0.,1.));
#846=DIRECTION('',(0.,0.,-1.));
#847=DIRECTION('',(0.,0.,-1.));
#848=DIRECTION('',(0.,-1.,0.));
#849=DIRECTION('',(0.,0.,1.));
#850=DIRECTION('',(0.,-1.,0.));
#851=DIRECTION('',(0.,0.,-1.));
#852=DIRECTION('',(1.,0.,1.7347234759768E-16));
#853=DIRECTION('',(1.7347234759768E-16,0.,-1.));
#854=DIRECTION('',(-1.7347234759768E-16,0.,1.));
#855=DIRECTION('',(-1.7347234759768E-16,0.,1.));
#856=DIRECTION('',(0.,-1.,0.));
#857=DIRECTION('',(1.,0.,0.));
#858=DIRECTION('',(0.,0.,-1.));
#859=DIRECTION('',(0.,0.,-1.));
#860=DIRECTION('',(-1.,0.,0.));
#861=DIRECTION('',(0.,-1.,0.));
#862=DIRECTION('',(1.,0.,0.));
#863=DIRECTION('',(0.,0.,-1.));
#864=DIRECTION('',(-1.,0.,0.));
#865=DIRECTION('',(0.,0.,1.));
#866=DIRECTION('',(0.,0.,1.));
#867=DIRECTION('',(1.,0.,0.));
#868=DIRECTION('',(0.,-1.,0.));
#869=DIRECTION('',(1.,0.,0.));
#870=DIRECTION('',(-1.,0.,0.));
#871=DIRECTION('',(0.,0.,1.));
#872=DIRECTION('',(0.,0.,-1.));
#873=DIRECTION('',(0.,-1.,0.));
#874=DIRECTION('',(0.,0.,1.));
#875=DIRECTION('',(0.,1.,0.));
#876=DIRECTION('',(-1.,0.,0.));
#877=DIRECTION('',(-1.,0.,0.));
#878=DIRECTION('',(0.,-1.,0.));
#879=DIRECTION('',(0.,0.,-1.));
#880=DIRECTION('',(1.,0.,0.));
#881=DIRECTION('',(0.,0.,-1.));
#882=DIRECTION('',(1.,0.,0.));
#883=DIRECTION('',(0.,0.,1.));
#884=DIRECTION('',(1.,0.,0.));
#885=DIRECTION('',(0.,0.,1.));
#886=DIRECTION('',(-1.,-1.22464679914735E-16,0.));
#887=DIRECTION('',(-1.,-1.22464679914735E-16,0.));
#888=DIRECTION('',(1.22464679914735E-16,-1.,0.));
#889=DIRECTION('',(-1.,-1.22464679914735E-16,0.));
#890=DIRECTION('',(1.22464679914735E-16,-1.,0.));
#891=DIRECTION('',(0.,0.,1.));
#892=DIRECTION('',(-1.,-1.22464679914735E-16,0.));
#893=DIRECTION('',(1.22464679914735E-16,-1.,0.));
#894=DIRECTION('',(-1.,-1.22464679914735E-16,0.));
#895=DIRECTION('',(-1.22464679914735E-16,1.,0.));
#896=DIRECTION('',(-1.,-1.22464679914735E-16,0.));
#897=DIRECTION('',(-1.22464679914735E-16,1.,0.));
#898=DIRECTION('',(-1.,-1.22464679914735E-16,0.));
#899=DIRECTION('',(0.,0.,-1.));
#900=DIRECTION('',(0.,0.,-1.));
#901=DIRECTION('',(-1.,-1.22464679914735E-16,0.));
#902=DIRECTION('',(0.,0.,-1.));
#903=DIRECTION('',(0.,0.,-1.));
#904=DIRECTION('',(1.,1.22464679914735E-16,0.));
#905=DIRECTION('',(-1.22464679914735E-16,1.,0.));
#906=DIRECTION('',(-1.,-1.22464679914735E-16,0.));
#907=DIRECTION('',(-1.22464679914735E-16,1.,0.));
#908=DIRECTION('',(-1.,-1.22464679914735E-16,0.));
#909=DIRECTION('',(0.,0.,-1.));
#910=DIRECTION('',(1.,1.22464679914735E-16,0.));
#911=DIRECTION('',(-1.,-1.22464679914735E-16,0.));
#912=DIRECTION('',(-1.22464679914735E-16,1.,0.));
#913=DIRECTION('',(-1.22464679914735E-16,1.,0.));
#914=DIRECTION('',(-1.22464679914735E-16,1.,0.));
#915=DIRECTION('',(-1.,-1.22464679914735E-16,0.));
#916=DIRECTION('',(0.,0.,-1.));
#917=DIRECTION('',(0.,0.,-1.));
#918=DIRECTION('',(1.,1.22464679914735E-16,0.));
#919=DIRECTION('',(0.,0.,1.));
#920=DIRECTION('',(0.,0.,-1.));
#921=DIRECTION('',(-1.22464679914735E-16,1.,0.));
#922=DIRECTION('',(-1.,-1.22464679914735E-16,0.));
#923=DIRECTION('',(0.,0.,-1.));
#924=DIRECTION('',(0.,0.,-1.));
#925=DIRECTION('',(1.,1.22464679914735E-16,0.));
#926=DIRECTION('',(0.,0.,1.));
#927=DIRECTION('',(-1.,-1.22464679914735E-16,0.));
#928=DIRECTION('',(0.,0.,-1.));
#929=DIRECTION('',(0.,0.,1.));
#930=DIRECTION('',(1.,0.,0.));
#931=CARTESIAN_POINT('',(0.,0.,0.));
#932=CARTESIAN_POINT('',(-0.005,0.02,0.01));
#933=CARTESIAN_POINT('',(-0.01,0.01,0.01));
#934=CARTESIAN_POINT('',(-0.01,0.01,0.01));
#935=CARTESIAN_POINT('',(-0.01,6.12323399573677E-19,0.01));
#936=CARTESIAN_POINT('',(-0.005,0.01,0.01));
#937=CARTESIAN_POINT('',(1.92592994438723E-34,0.01,0.01));
#938=CARTESIAN_POINT('',(6.12323399573677E-19,0.02,0.01));
#939=CARTESIAN_POINT('',(6.12323399573677E-19,0.02,0.01));
#940=CARTESIAN_POINT('',(-0.005,0.02,0.01));
#941=CARTESIAN_POINT('',(-0.02,0.02,0.01));
#942=CARTESIAN_POINT('',(-0.02,0.02,0.01));
#943=CARTESIAN_POINT('',(-0.02,1.22464679914735E-18,0.01));
#944=CARTESIAN_POINT('',(-0.005,3.06161699786838E-19,0.01));
#945=CARTESIAN_POINT('',(1.35216596835472E-18,0.02,0.005));
#946=CARTESIAN_POINT('',(1.27519169207363E-19,-4.81482486096809E-35,0.005));
#947=CARTESIAN_POINT('',(-3.5728506115895E-19,0.,0.02));
#948=CARTESIAN_POINT('',(0.,0.,0.));
#949=CARTESIAN_POINT('',(1.22464679914735E-18,0.02,1.92592994438723E-34));
#950=CARTESIAN_POINT('',(1.22464679914735E-18,0.02,1.92592994438723E-34));
#951=CARTESIAN_POINT('',(1.35216596835472E-18,0.02,0.005));
#952=CARTESIAN_POINT('',(-3.06161699786838E-19,0.01,0.015));
#953=CARTESIAN_POINT('',(2.55038338414727E-19,0.01,0.02));
#954=CARTESIAN_POINT('',(2.55038338414727E-19,0.01,0.02));
#955=CARTESIAN_POINT('',(-0.015,0.02,-9.18485099360515E-19));
#956=CARTESIAN_POINT('',(-0.015,9.18485099360515E-19,-9.18485099360515E-19));
#957=CARTESIAN_POINT('',(-0.03,1.83697019872103E-18,-1.83697019872103E-18));
#958=CARTESIAN_POINT('',(-0.03,0.02,-1.83697019872103E-18));
#959=CARTESIAN_POINT('',(-0.03,0.02,-1.83697019872103E-18));
#960=CARTESIAN_POINT('',(-0.015,0.02,-9.18485099360515E-19));
#961=CARTESIAN_POINT('',(-0.03,0.02,0.01));
#962=CARTESIAN_POINT('',(-0.03,1.83697019872103E-18,0.01));
#963=CARTESIAN_POINT('',(-0.03,1.83697019872103E-18,0.02));
#964=CARTESIAN_POINT('',(-0.03,0.02,0.02));
#965=CARTESIAN_POINT('',(-0.03,0.02,0.02));
#966=CARTESIAN_POINT('',(-0.03,0.02,0.01));
#967=CARTESIAN_POINT('',(-0.025,0.02,0.02));
#968=CARTESIAN_POINT('',(-0.025,1.53080849893419E-18,0.02));
#969=CARTESIAN_POINT('',(-0.02,1.22464679914735E-18,0.02));
#970=CARTESIAN_POINT('',(-0.02,0.02,0.02));
#971=CARTESIAN_POINT('',(-0.02,0.02,0.02));
#972=CARTESIAN_POINT('',(-0.025,0.02,0.02));
#973=CARTESIAN_POINT('',(-0.02,0.02,0.015));
#974=CARTESIAN_POINT('',(-0.02,1.22464679914735E-18,0.015));
#975=CARTESIAN_POINT('',(-0.02,0.02,0.015));
#976=CARTESIAN_POINT('',(-0.015,0.02,0.01));
#977=CARTESIAN_POINT('',(-0.015,9.18485099360515E-19,0.01));
#978=CARTESIAN_POINT('',(-0.005,3.06161699786838E-19,0.02));
#979=CARTESIAN_POINT('',(-0.01,6.12323399573677E-19,0.02));
#980=CARTESIAN_POINT('',(-0.01,6.12323399573677E-19,0.015));
#981=CARTESIAN_POINT('',(-0.01,0.01,0.015));
#982=CARTESIAN_POINT('',(-0.01,0.01,0.02));
#983=CARTESIAN_POINT('',(-0.01,0.01,0.02));
#984=CARTESIAN_POINT('',(-0.01,0.01,0.015));
#985=CARTESIAN_POINT('',(-0.005,0.01,0.02));
#986=CARTESIAN_POINT('',(-0.005,0.01,0.02));
#987=CARTESIAN_POINT('',(-0.005,0.01,0.015));
#988=CARTESIAN_POINT('',(0.015,-0.005,0.));
#989=CARTESIAN_POINT('',(0.01,-0.005,0.01));
#990=CARTESIAN_POINT('',(0.01,-0.015,0.01));
#991=CARTESIAN_POINT('',(0.005,-0.015,0.01));
#992=CARTESIAN_POINT('',(-0.005,-0.015,0.01));
#993=CARTESIAN_POINT('',(0.005,-0.01,0.01));
#994=CARTESIAN_POINT('',(0.005,-0.005,0.01));
#995=CARTESIAN_POINT('',(0.01,-0.005,0.01));
#996=CARTESIAN_POINT('',(-0.005,-0.005,0.01));
#997=CARTESIAN_POINT('',(-0.005,-0.005,0.01));
#998=CARTESIAN_POINT('',(0.,-0.005,0.02));
#999=CARTESIAN_POINT('',(0.,-0.015,0.02));
#1000=CARTESIAN_POINT('',(0.005,-0.015,0.02));
#1001=CARTESIAN_POINT('',(-0.005,-0.015,0.02));
#1002=CARTESIAN_POINT('',(-0.005,-0.005,0.02));
#1003=CARTESIAN_POINT('',(-0.005,-0.005,0.02));
#1004=CARTESIAN_POINT('',(0.,-0.005,0.02));
#1005=CARTESIAN_POINT('',(0.005,-0.005,0.02));
#1006=CARTESIAN_POINT('',(0.005,-0.005,0.02));
#1007=CARTESIAN_POINT('',(-0.005,-0.005,0.03));
#1008=CARTESIAN_POINT('',(-0.005,-0.015,0.03));
#1009=CARTESIAN_POINT('',(0.015,-0.015,0.03));
#1010=CARTESIAN_POINT('',(-0.015,-0.015,0.03));
#1011=CARTESIAN_POINT('',(0.015,-0.005,0.03));
#1012=CARTESIAN_POINT('',(0.015,0.015,0.03));
#1013=CARTESIAN_POINT('',(-0.005,0.015,0.03));
#1014=CARTESIAN_POINT('',(0.005,0.015,0.03));
#1015=CARTESIAN_POINT('',(0.005,0.015,0.03));
#1016=CARTESIAN_POINT('',(0.005,-0.005,0.03));
#1017=CARTESIAN_POINT('',(-0.005,-0.005,0.03));
#1018=CARTESIAN_POINT('',(-0.015,-0.005,0.03));
#1019=CARTESIAN_POINT('',(-0.015,-0.005,0.03));
#1020=CARTESIAN_POINT('',(-0.015,-0.005,0.015));
#1021=CARTESIAN_POINT('',(-0.015,-0.015,0.015));
#1022=CARTESIAN_POINT('',(-0.015,-0.015,0.));
#1023=CARTESIAN_POINT('',(-0.015,-0.005,0.015));
#1024=CARTESIAN_POINT('',(-0.015,-0.005,0.));
#1025=CARTESIAN_POINT('',(-0.015,-0.005,0.));
#1026=CARTESIAN_POINT('',(-0.005,-0.005,0.));
#1027=CARTESIAN_POINT('',(-0.005,-0.015,0.));
#1028=CARTESIAN_POINT('',(0.015,-0.015,0.));
#1029=CARTESIAN_POINT('',(-0.005,-0.005,0.));
#1030=CARTESIAN_POINT('',(0.015,-0.005,0.));
#1031=CARTESIAN_POINT('',(0.015,-0.005,0.));
#1032=CARTESIAN_POINT('',(0.015,-0.005,0.005));
#1033=CARTESIAN_POINT('',(0.015,-0.015,0.005));
#1034=CARTESIAN_POINT('',(0.015,-0.005,0.005));
#1035=CARTESIAN_POINT('',(0.015,-0.005,0.02));
#1036=CARTESIAN_POINT('',(0.015,0.015,0.02));
#1037=CARTESIAN_POINT('',(0.015,0.005,0.02));
#1038=CARTESIAN_POINT('',(0.015,0.005,0.01));
#1039=CARTESIAN_POINT('',(0.015,0.005,0.01));
#1040=CARTESIAN_POINT('',(0.015,0.015,0.01));
#1041=CARTESIAN_POINT('',(0.015,0.015,0.01));
#1042=CARTESIAN_POINT('',(0.015,0.015,0.005));
#1043=CARTESIAN_POINT('',(-0.005,-0.005,0.015));
#1044=CARTESIAN_POINT('',(-0.005,-0.015,0.015));
#1045=CARTESIAN_POINT('',(-0.005,-0.005,0.015));
#1046=CARTESIAN_POINT('',(3.46944695195361E-18,-0.005,0.015));
#1047=CARTESIAN_POINT('',(0.005,-0.005,0.025));
#1048=CARTESIAN_POINT('',(0.005,-0.005,0.03));
#1049=CARTESIAN_POINT('',(0.01,-0.005,0.02));
#1050=CARTESIAN_POINT('',(3.46944695195361E-18,-0.015,0.015));
#1051=CARTESIAN_POINT('',(0.005,-0.015,0.03));
#1052=CARTESIAN_POINT('',(0.005,-0.01,0.03));
#1053=CARTESIAN_POINT('',(0.01,0.015,0.02));
#1054=CARTESIAN_POINT('',(0.005,0.015,0.02));
#1055=CARTESIAN_POINT('',(0.005,0.005,0.02));
#1056=CARTESIAN_POINT('',(0.01,0.005,0.02));
#1057=CARTESIAN_POINT('',(0.005,0.015,0.025));
#1058=CARTESIAN_POINT('',(0.005,0.015,0.025));
#1059=CARTESIAN_POINT('',(0.005,0.015,0.01));
#1060=CARTESIAN_POINT('',(0.005,0.015,0.01));
#1061=CARTESIAN_POINT('',(0.005,0.005,0.01));
#1062=CARTESIAN_POINT('',(0.005,0.005,0.01));
#1063=CARTESIAN_POINT('',(3.46944695195361E-18,0.015,0.015));
#1064=CARTESIAN_POINT('',(0.01,0.015,0.01));
#1065=CARTESIAN_POINT('',(0.01,0.005,0.01));
#1066=CARTESIAN_POINT('',(0.01,0.005,0.01));
#1067=CARTESIAN_POINT('',(0.01,0.005,0.01));
#1068=CARTESIAN_POINT('',(0.,0.,0.));
#1069=CARTESIAN_POINT('',(-0.015,0.02,0.01));
#1070=CARTESIAN_POINT('',(-0.015,0.02,0.01));
#1071=CARTESIAN_POINT('',(-2.00000000000007E-5,0.02,0.01));
#1072=CARTESIAN_POINT('',(-0.01999,0.02,0.01));
#1073=CARTESIAN_POINT('',(-0.01999,0.02,0.01));
#1074=CARTESIAN_POINT('',(-0.01999,-2.44806895149556E-18,0.01));
#1075=CARTESIAN_POINT('',(-0.015,-1.83697019872103E-18,0.01));
#1076=CARTESIAN_POINT('',(-2.00000000000009E-5,-2.44929359829489E-21,0.01));
#1077=CARTESIAN_POINT('',(-2.00000000000007E-5,0.02,0.01));
#1078=CARTESIAN_POINT('',(-0.015,0.02,1.E-5));
#1079=CARTESIAN_POINT('',(-0.01999,0.02,1.E-5));
#1080=CARTESIAN_POINT('',(-0.01999,0.02,1.E-5));
#1081=CARTESIAN_POINT('',(-0.01999,-2.44806895149556E-18,9.99999999999959E-6));
#1082=CARTESIAN_POINT('',(-0.015,0.02,1.E-5));
#1083=CARTESIAN_POINT('',(-0.00999,0.02,1.E-5));
#1084=CARTESIAN_POINT('',(-0.00999,-0.01,1.E-5));
#1085=CARTESIAN_POINT('',(-0.00999,-1.2234221523482E-18,1.E-5));
#1086=CARTESIAN_POINT('',(-0.015,-1.83697019872103E-18,1.E-5));
#1087=CARTESIAN_POINT('',(-0.01,0.02,0.));
#1088=CARTESIAN_POINT('',(-0.01999,0.02,0.005));
#1089=CARTESIAN_POINT('',(-2.00000000000025E-5,0.02,-0.005));
#1090=CARTESIAN_POINT('',(-2.00000000000025E-5,0.02,-0.00999));
#1091=CARTESIAN_POINT('',(-0.005,0.02,-0.00999));
#1092=CARTESIAN_POINT('',(-0.00999,0.02,-0.00999));
#1093=CARTESIAN_POINT('',(-0.00999,0.02,-0.005));
#1094=CARTESIAN_POINT('',(-0.005,-0.01,0.));
#1095=CARTESIAN_POINT('',(-0.00999,-0.01,0.));
#1096=CARTESIAN_POINT('',(-0.00999,-0.01,0.));
#1097=CARTESIAN_POINT('',(-0.00999,-1.2234221523482E-18,0.));
#1098=CARTESIAN_POINT('',(-0.005,-0.01,0.));
#1099=CARTESIAN_POINT('',(-1.99999999999988E-5,-0.01,0.));
#1100=CARTESIAN_POINT('',(-1.99999999999988E-5,-0.01,0.));
#1101=CARTESIAN_POINT('',(-2.E-5,-2.4492935982947E-21,0.));
#1102=CARTESIAN_POINT('',(-0.005,-6.12323399573677E-19,0.));
#1103=CARTESIAN_POINT('',(-0.005,-0.01,-0.00999));
#1104=CARTESIAN_POINT('',(-0.005,-0.01,-0.00999));
#1105=CARTESIAN_POINT('',(-1.99999999999996E-5,-0.01,-0.00999));
#1106=CARTESIAN_POINT('',(-0.00999,-0.01,-0.00999));
#1107=CARTESIAN_POINT('',(-0.00999,-0.01,-0.00999));
#1108=CARTESIAN_POINT('',(-1.99999999999996E-5,-0.01,-0.00999));
#1109=CARTESIAN_POINT('',(-0.01,-0.01,0.));
#1110=CARTESIAN_POINT('',(-0.00999,-0.01,-0.005));
#1111=CARTESIAN_POINT('',(-1.99999999999988E-5,-0.01,-0.005));
#1112=CARTESIAN_POINT('',(-1.99999999999988E-5,-0.01,-0.005));
#1113=CARTESIAN_POINT('',(-2.E-5,-2.4492935982947E-21,-0.005));
#1114=CARTESIAN_POINT('',(-0.01,-1.22464679914735E-18,0.));
#1115=CARTESIAN_POINT('',(-0.01999,-2.44806895149556E-18,0.005));
#1116=CARTESIAN_POINT('',(-0.00999,-1.2234221523482E-18,1.E-5));
#1117=CARTESIAN_POINT('',(-0.00999,-0.01,-0.005));
#1118=CARTESIAN_POINT('',(-0.01999,0.02,0.005));
#1119=CARTESIAN_POINT('',(0.00502,-0.005,0.02));
#1120=MECHANICAL_DESIGN_GEOMETRIC_PRESENTATION_REPRESENTATION('',(#686,
#687,#688),#1121);
#1121=(
GEOMETRIC_REPRESENTATION_CONTEXT(3)
GLOBAL_UNCERTAINTY_ASSIGNED_CONTEXT((#1125))
GLOBAL_UNIT_ASSIGNED_CONTEXT((#1131,#1130,#1129))
REPRESENTATION_CONTEXT('Final Cube','TOP_LEVEL_ASSEMBLY_PART')
);
#1122=(
GEOMETRIC_REPRESENTATION_CONTEXT(3)
GLOBAL_UNCERTAINTY_ASSIGNED_CONTEXT((#1126))
GLOBAL_UNIT_ASSIGNED_CONTEXT((#1131,#1130,#1129))
REPRESENTATION_CONTEXT('Alexander''s Part','COMPONENT_PART')
);
#1123=(
GEOMETRIC_REPRESENTATION_CONTEXT(3)
GLOBAL_UNCERTAINTY_ASSIGNED_CONTEXT((#1127))
GLOBAL_UNIT_ASSIGNED_CONTEXT((#1131,#1130,#1129))
REPRESENTATION_CONTEXT('Sahil''s Part','COMPONENT_PART')
);
#1124=(
GEOMETRIC_REPRESENTATION_CONTEXT(3)
GLOBAL_UNCERTAINTY_ASSIGNED_CONTEXT((#1128))
GLOBAL_UNIT_ASSIGNED_CONTEXT((#1131,#1130,#1129))
REPRESENTATION_CONTEXT('Gabriel''s Part','COMPONENT_PART')
);
#1125=UNCERTAINTY_MEASURE_WITH_UNIT(LENGTH_MEASURE(1.E-8),#1131,
'DISTANCE_ACCURACY_VALUE','Maximum Tolerance applied to model');
#1126=UNCERTAINTY_MEASURE_WITH_UNIT(LENGTH_MEASURE(1.E-8),#1131,
'DISTANCE_ACCURACY_VALUE','Maximum Tolerance applied to model');
#1127=UNCERTAINTY_MEASURE_WITH_UNIT(LENGTH_MEASURE(1.E-8),#1131,
'DISTANCE_ACCURACY_VALUE','Maximum Tolerance applied to model');
#1128=UNCERTAINTY_MEASURE_WITH_UNIT(LENGTH_MEASURE(1.E-8),#1131,
'DISTANCE_ACCURACY_VALUE','Maximum Tolerance applied to model');
#1129=(
NAMED_UNIT(*)
SI_UNIT($,.STERADIAN.)
SOLID_ANGLE_UNIT()
);
#1130=(
NAMED_UNIT(*)
PLANE_ANGLE_UNIT()
SI_UNIT($,.RADIAN.)
);
#1131=(
LENGTH_UNIT()
NAMED_UNIT(*)
SI_UNIT($,.METRE.)
);
#1132=PRODUCT_DEFINITION_SHAPE('','',#1139);
#1133=PRODUCT_DEFINITION_SHAPE('','',#1140);
#1134=PRODUCT_DEFINITION_SHAPE(' ','NAUO PRDDFN',#13);
#1135=PRODUCT_DEFINITION_SHAPE('','',#1141);
#1136=PRODUCT_DEFINITION_SHAPE(' ','NAUO PRDDFN',#14);
#1137=PRODUCT_DEFINITION_SHAPE('','',#1142);
#1138=PRODUCT_DEFINITION_SHAPE(' ','NAUO PRDDFN',#15);
#1139=PRODUCT_DEFINITION('','',#1147,#1143);
#1140=PRODUCT_DEFINITION('','',#1148,#1144);
#1141=PRODUCT_DEFINITION('','',#1149,#1145);
#1142=PRODUCT_DEFINITION('','',#1150,#1146);
#1143=PRODUCT_DEFINITION_CONTEXT('',#1168,'design');
#1144=PRODUCT_DEFINITION_CONTEXT('',#1168,'design');
#1145=PRODUCT_DEFINITION_CONTEXT('',#1168,'design');
#1146=PRODUCT_DEFINITION_CONTEXT('',#1168,'design');
#1147=PRODUCT_DEFINITION_FORMATION_WITH_SPECIFIED_SOURCE('','',#1155,
 .NOT_KNOWN.);
#1148=PRODUCT_DEFINITION_FORMATION_WITH_SPECIFIED_SOURCE('','',#1156,
 .NOT_KNOWN.);
#1149=PRODUCT_DEFINITION_FORMATION_WITH_SPECIFIED_SOURCE('','',#1157,
 .NOT_KNOWN.);
#1150=PRODUCT_DEFINITION_FORMATION_WITH_SPECIFIED_SOURCE('','',#1158,
 .NOT_KNOWN.);
#1151=PRODUCT_RELATED_PRODUCT_CATEGORY('','',(#1155));
#1152=PRODUCT_RELATED_PRODUCT_CATEGORY('','',(#1156));
#1153=PRODUCT_RELATED_PRODUCT_CATEGORY('','',(#1157));
#1154=PRODUCT_RELATED_PRODUCT_CATEGORY('','',(#1158));
#1155=PRODUCT('Final Cube','Final Cube','Final Cube',(#1163));
#1156=PRODUCT('Alexander''s Part','Alexander''s Part',
'Alexander''s Part',(#1164));
#1157=PRODUCT('Sahil''s Part','Sahil''s Part','Sahil''s Part',(#1165));
#1158=PRODUCT('Gabriel''s Part','Gabriel''s Part','Gabriel''s Part',(#1166));
#1159=PRODUCT_CATEGORY('','');
#1160=PRODUCT_CATEGORY('','');
#1161=PRODUCT_CATEGORY('','');
#1162=PRODUCT_CATEGORY('','');
#1163=PRODUCT_CONTEXT('',#1168,'mechanical');
#1164=PRODUCT_CONTEXT('',#1168,'mechanical');
#1165=PRODUCT_CONTEXT('',#1168,'mechanical');
#1166=PRODUCT_CONTEXT('',#1168,'mechanical');
#1167=APPLICATION_PROTOCOL_DEFINITION('international standard',
'ap242_managed_model_based_3d_engineering',2020,#1168);
#1168=APPLICATION_CONTEXT('managed model based 3d engineering');
ENDSEC;
END-ISO-10303-21;
