ISO-10303-21;
HEADER;
/* Generated by software containing ST-Developer
 * from STEP Tools, Inc. (www.steptools.com) 
 */
/* OPTION: using custom renumber hook */

FILE_DESCRIPTION(
/* description */ ('STEP AP242 Edition 2',
'CAx-IF Rec.Pracs.---Representation and Presentation of Product Manufa
cturing Information (PMI)---4.0---2014-10-13',
'CAx-IF Rec.Pracs.---3D Tessellated Geometry---0.4---2014-09-14','2;1',
'CAx-IF Rec.Pracs.---User Defined Attributes---1.5---2016-08-15'),
/* implementation_level */ '2;1');

FILE_NAME(
/* name */ 'shopvac suction cup - Part 1',
/* time_stamp */ '2026-09-01T23:36:08Z',
/* author */ (''),
/* organization */ (''),
/* preprocessor_version */ 'ST-DEVELOPER v20',
/* originating_system */ 'ONSHAPE BY PTC INC, 1.220',
/* authorisation */ '  ');

FILE_SCHEMA (('AP242_MANAGED_MODEL_BASED_3D_ENGINEERING_MIM_LF { 1 0 10303 442 3 1 4 }'));
ENDSEC;

DATA;
#10=SHAPE_REPRESENTATION_RELATIONSHIP('','',#943,#11);
#11=ADVANCED_BREP_SHAPE_REPRESENTATION('',(#941),#1806);
#12=CYLINDRICAL_SURFACE('',#963,0.017145);
#13=CYLINDRICAL_SURFACE('',#973,0.019685);
#14=CYLINDRICAL_SURFACE('',#982,0.019685);
#15=CYLINDRICAL_SURFACE('',#1025,0.05334);
#16=CYLINDRICAL_SURFACE('',#1026,0.05334);
#17=CYLINDRICAL_SURFACE('',#1027,0.05334);
#18=CYLINDRICAL_SURFACE('',#1028,0.01905);
#19=CYLINDRICAL_SURFACE('',#1029,0.01905);
#20=CYLINDRICAL_SURFACE('',#1030,0.01905);
#21=CYLINDRICAL_SURFACE('',#1031,0.01905);
#22=LINE('',#1469,#86);
#23=LINE('',#1473,#87);
#24=LINE('',#1475,#88);
#25=LINE('',#1479,#89);
#26=LINE('',#1568,#90);
#27=LINE('',#1573,#91);
#28=LINE('',#1576,#92);
#29=LINE('',#1581,#93);
#30=LINE('',#1584,#94);
#31=LINE('',#1589,#95);
#32=LINE('',#1592,#96);
#33=LINE('',#1597,#97);
#34=LINE('',#1634,#98);
#35=LINE('',#1638,#99);
#36=LINE('',#1642,#100);
#37=LINE('',#1646,#101);
#38=LINE('',#1650,#102);
#39=LINE('',#1654,#103);
#40=LINE('',#1658,#104);
#41=LINE('',#1662,#105);
#42=LINE('',#1707,#106);
#43=LINE('',#1708,#107);
#44=LINE('',#1710,#108);
#45=LINE('',#1712,#109);
#46=LINE('',#1715,#110);
#47=LINE('',#1716,#111);
#48=LINE('',#1718,#112);
#49=LINE('',#1720,#113);
#50=LINE('',#1723,#114);
#51=LINE('',#1725,#115);
#52=LINE('',#1727,#116);
#53=LINE('',#1730,#117);
#54=LINE('',#1732,#118);
#55=LINE('',#1734,#119);
#56=LINE('',#1737,#120);
#57=LINE('',#1739,#121);
#58=LINE('',#1741,#122);
#59=LINE('',#1744,#123);
#60=LINE('',#1746,#124);
#61=LINE('',#1748,#125);
#62=LINE('',#1751,#126);
#63=LINE('',#1752,#127);
#64=LINE('',#1754,#128);
#65=LINE('',#1756,#129);
#66=LINE('',#1759,#130);
#67=LINE('',#1760,#131);
#68=LINE('',#1762,#132);
#69=LINE('',#1764,#133);
#70=LINE('',#1767,#134);
#71=LINE('',#1769,#135);
#72=LINE('',#1771,#136);
#73=LINE('',#1774,#137);
#74=LINE('',#1776,#138);
#75=LINE('',#1778,#139);
#76=LINE('',#1781,#140);
#77=LINE('',#1783,#141);
#78=LINE('',#1785,#142);
#79=LINE('',#1788,#143);
#80=LINE('',#1790,#144);
#81=LINE('',#1792,#145);
#82=LINE('',#1796,#146);
#83=LINE('',#1797,#147);
#84=LINE('',#1799,#148);
#85=LINE('',#1800,#149);
#86=VECTOR('',#1060,1.);
#87=VECTOR('',#1063,1.);
#88=VECTOR('',#1066,1.);
#89=VECTOR('',#1069,1.);
#90=VECTOR('',#1078,1.);
#91=VECTOR('',#1081,1.);
#92=VECTOR('',#1084,1.);
#93=VECTOR('',#1087,1.);
#94=VECTOR('',#1090,1.);
#95=VECTOR('',#1093,1.);
#96=VECTOR('',#1096,1.);
#97=VECTOR('',#1099,1.);
#98=VECTOR('',#1106,1.);
#99=VECTOR('',#1109,1.);
#100=VECTOR('',#1112,1.);
#101=VECTOR('',#1115,1.);
#102=VECTOR('',#1118,1.);
#103=VECTOR('',#1121,1.);
#104=VECTOR('',#1124,1.);
#105=VECTOR('',#1127,1.);
#106=VECTOR('',#1136,1.);
#107=VECTOR('',#1137,1.);
#108=VECTOR('',#1140,1.);
#109=VECTOR('',#1143,1.);
#110=VECTOR('',#1148,1.);
#111=VECTOR('',#1149,1.);
#112=VECTOR('',#1152,1.);
#113=VECTOR('',#1155,1.);
#114=VECTOR('',#1160,1.);
#115=VECTOR('',#1161,1.);
#116=VECTOR('',#1164,1.);
#117=VECTOR('',#1169,1.);
#118=VECTOR('',#1170,1.);
#119=VECTOR('',#1173,1.);
#120=VECTOR('',#1178,1.);
#121=VECTOR('',#1179,1.);
#122=VECTOR('',#1182,1.);
#123=VECTOR('',#1187,1.);
#124=VECTOR('',#1188,1.);
#125=VECTOR('',#1191,1.);
#126=VECTOR('',#1196,1.);
#127=VECTOR('',#1197,1.);
#128=VECTOR('',#1200,1.);
#129=VECTOR('',#1203,1.);
#130=VECTOR('',#1208,1.);
#131=VECTOR('',#1209,1.);
#132=VECTOR('',#1212,1.);
#133=VECTOR('',#1215,1.);
#134=VECTOR('',#1220,1.);
#135=VECTOR('',#1221,1.);
#136=VECTOR('',#1224,1.);
#137=VECTOR('',#1229,1.);
#138=VECTOR('',#1230,1.);
#139=VECTOR('',#1233,1.);
#140=VECTOR('',#1238,1.);
#141=VECTOR('',#1239,1.);
#142=VECTOR('',#1242,1.);
#143=VECTOR('',#1247,1.);
#144=VECTOR('',#1248,1.);
#145=VECTOR('',#1251,1.);
#146=VECTOR('',#1258,1.);
#147=VECTOR('',#1259,1.);
#148=VECTOR('',#1262,1.);
#149=VECTOR('',#1263,1.);
#150=PLANE('',#957);
#151=PLANE('',#959);
#152=PLANE('',#984);
#153=PLANE('',#985);
#154=PLANE('',#986);
#155=PLANE('',#987);
#156=PLANE('',#988);
#157=PLANE('',#989);
#158=PLANE('',#990);
#159=PLANE('',#991);
#160=PLANE('',#992);
#161=PLANE('',#993);
#162=PLANE('',#994);
#163=PLANE('',#995);
#164=PLANE('',#996);
#165=PLANE('',#997);
#166=PLANE('',#998);
#167=PLANE('',#999);
#168=PLANE('',#1000);
#169=PLANE('',#1001);
#170=PLANE('',#1002);
#171=PLANE('',#1003);
#172=PLANE('',#1004);
#173=PLANE('',#1005);
#174=PLANE('',#1006);
#175=PLANE('',#1007);
#176=PLANE('',#1008);
#177=PLANE('',#1009);
#178=PLANE('',#1010);
#179=PLANE('',#1011);
#180=PLANE('',#1012);
#181=PLANE('',#1013);
#182=PLANE('',#1014);
#183=PLANE('',#1015);
#184=PLANE('',#1016);
#185=PLANE('',#1017);
#186=PLANE('',#1018);
#187=PLANE('',#1019);
#188=PLANE('',#1020);
#189=PLANE('',#1021);
#190=PLANE('',#1022);
#191=PLANE('',#1023);
#192=PLANE('',#1024);
#193=B_SPLINE_CURVE_WITH_KNOTS('',3,(#1277,#1278,#1279,#1280),
 .UNSPECIFIED.,.F.,.F.,(4,4),(1.0391681257685E-6,0.00125043367955093),
 .UNSPECIFIED.);
#194=B_SPLINE_CURVE_WITH_KNOTS('',3,(#1282,#1283,#1284,#1285),
 .UNSPECIFIED.,.F.,.F.,(4,4),(8.18374648409955E-7,0.00177527298753878),
 .UNSPECIFIED.);
#195=B_SPLINE_CURVE_WITH_KNOTS('',3,(#1286,#1287,#1288,#1289),
 .UNSPECIFIED.,.F.,.F.,(4,4),(0.0224342093335314,0.024192221606352),
 .UNSPECIFIED.);
#196=B_SPLINE_CURVE_WITH_KNOTS('',3,(#1292,#1293,#1294,#1295),
 .UNSPECIFIED.,.F.,.F.,(4,4),(1.0391681257685E-6,0.00125043367955093),
 .UNSPECIFIED.);
#197=B_SPLINE_CURVE_WITH_KNOTS('',3,(#1301,#1302,#1303,#1304),
 .UNSPECIFIED.,.F.,.F.,(4,4),(1.0391681257685E-6,0.00125043367955093),
 .UNSPECIFIED.);
#198=B_SPLINE_CURVE_WITH_KNOTS('',3,(#1306,#1307,#1308,#1309),
 .UNSPECIFIED.,.F.,.F.,(4,4),(8.18374648409955E-7,0.00177527298753878),
 .UNSPECIFIED.);
#199=B_SPLINE_CURVE_WITH_KNOTS('',3,(#1310,#1311,#1312,#1313),
 .UNSPECIFIED.,.F.,.F.,(4,4),(0.0224342093335314,0.024192221606352),
 .UNSPECIFIED.);
#200=B_SPLINE_CURVE_WITH_KNOTS('',3,(#1316,#1317,#1318,#1319),
 .UNSPECIFIED.,.F.,.F.,(4,4),(1.0391681257685E-6,0.00125043367955093),
 .UNSPECIFIED.);
#201=B_SPLINE_CURVE_WITH_KNOTS('',3,(#1327,#1328,#1329,#1330),
 .UNSPECIFIED.,.F.,.F.,(4,4),(0.0490798816343383,0.0503339402308618),
 .UNSPECIFIED.);
#202=B_SPLINE_CURVE_WITH_KNOTS('',3,(#1332,#1333,#1334,#1335),
 .UNSPECIFIED.,.F.,.F.,(4,4),(0.0224342093335314,0.024192221606352),
 .UNSPECIFIED.);
#203=B_SPLINE_CURVE_WITH_KNOTS('',3,(#1339,#1340,#1341,#1342),
 .UNSPECIFIED.,.F.,.F.,(4,4),(8.18374648409955E-7,0.00177527298753878),
 .UNSPECIFIED.);
#204=B_SPLINE_CURVE_WITH_KNOTS('',3,(#1344,#1345,#1346,#1347),
 .UNSPECIFIED.,.F.,.F.,(4,4),(0.0490798816343383,0.0503339402308618),
 .UNSPECIFIED.);
#205=B_SPLINE_CURVE_WITH_KNOTS('',3,(#1351,#1352,#1353,#1354),
 .UNSPECIFIED.,.F.,.F.,(4,4),(0.0490798816343383,0.0503339402308618),
 .UNSPECIFIED.);
#206=B_SPLINE_CURVE_WITH_KNOTS('',3,(#1356,#1357,#1358,#1359),
 .UNSPECIFIED.,.F.,.F.,(4,4),(0.0224342093335314,0.024192221606352),
 .UNSPECIFIED.);
#207=B_SPLINE_CURVE_WITH_KNOTS('',3,(#1363,#1364,#1365,#1366),
 .UNSPECIFIED.,.F.,.F.,(4,4),(8.18374648409955E-7,0.00177527298753878),
 .UNSPECIFIED.);
#208=B_SPLINE_CURVE_WITH_KNOTS('',3,(#1368,#1369,#1370,#1371),
 .UNSPECIFIED.,.F.,.F.,(4,4),(0.0490798816343383,0.0503339402308618),
 .UNSPECIFIED.);
#209=B_SPLINE_CURVE_WITH_KNOTS('',3,(#1372,#1373,#1374,#1375,#1376,#1377,
#1378,#1379,#1380,#1381,#1382,#1383,#1384,#1385,#1386,#1387,#1388,#1389,
#1390,#1391),.UNSPECIFIED.,.F.,.F.,(4,1,1,1,1,1,1,1,1,1,1,1,1,1,1,1,1,4),
(0.01296862047179,0.0191065958092561,0.0221755834779891,0.0252445711467222,
0.0313825464841883,0.0375205218216545,0.0436584971591206,0.0497964724965867,
0.0559344478340528,0.0620724231715189,0.0682103985089851,0.0743483738464512,
0.0804863491839173,0.0866243245213834,0.0927622998588496,0.0989002751963157,
0.105038250533782,0.111176225871248),.UNSPECIFIED.);
#210=B_SPLINE_CURVE_WITH_KNOTS('',3,(#1394,#1395,#1396,#1397,#1398,#1399,
#1400,#1401,#1402,#1403,#1404,#1405),.UNSPECIFIED.,.F.,.F.,(4,1,1,1,1,1,
1,1,1,4),(0.,0.00231680238294604,0.00463360476589209,0.00695040714883813,
0.00926720953178417,0.0139008142976763,0.0185344190635683,0.0231680238294604,
0.0278016285953525,0.0370688381271367),.UNSPECIFIED.);
#211=B_SPLINE_CURVE_WITH_KNOTS('',3,(#1409,#1410,#1411,#1412,#1413,#1414,
#1415,#1416,#1417,#1418,#1419),.UNSPECIFIED.,.F.,.F.,(4,1,1,1,1,1,1,1,4),
(0.,0.00912658160492701,0.0136898724073905,0.018253163209854,0.0228164540123175,
0.027379744814781,0.0296613902160128,0.0319430356172445,0.036506326419708),
 .UNSPECIFIED.);
#212=B_SPLINE_CURVE_WITH_KNOTS('',3,(#1421,#1422,#1423,#1424,#1425,#1426,
#1427,#1428,#1429,#1430,#1431,#1432,#1433,#1434,#1435,#1436,#1437,#1438,
#1439,#1440),.UNSPECIFIED.,.F.,.F.,(4,1,1,1,1,1,1,1,1,1,1,1,1,1,1,1,1,4),
(0.01296862047179,0.0191065958092561,0.0221755834779891,0.0252445711467222,
0.0313825464841883,0.0375205218216545,0.0436584971591206,0.0497964724965867,
0.0559344478340528,0.062072423171519,0.0682103985089851,0.0743483738464512,
0.0804863491839173,0.0866243245213835,0.0927622998588496,0.0989002751963157,
0.105038250533782,0.111176225871248),.UNSPECIFIED.);
#213=B_SPLINE_CURVE_WITH_KNOTS('',3,(#1442,#1443,#1444,#1445,#1446,#1447,
#1448,#1449,#1450,#1451,#1452,#1453),.UNSPECIFIED.,.F.,.F.,(4,1,1,1,1,1,
1,1,1,4),(0.,0.00231680238294604,0.00463360476589209,0.00695040714883813,
0.00926720953178417,0.0139008142976763,0.0185344190635683,0.0231680238294604,
0.0278016285953525,0.0370688381271367),.UNSPECIFIED.);
#214=B_SPLINE_CURVE_WITH_KNOTS('',3,(#1457,#1458,#1459,#1460,#1461,#1462,
#1463,#1464,#1465,#1466,#1467),.UNSPECIFIED.,.F.,.F.,(4,1,1,1,1,1,1,1,4),
(0.,0.00912658160492701,0.0136898724073905,0.018253163209854,0.0228164540123175,
0.027379744814781,0.0296613902160128,0.0319430356172445,0.036506326419708),
 .UNSPECIFIED.);
#215=B_SPLINE_CURVE_WITH_KNOTS('',3,(#1483,#1484,#1485,#1486,#1487,#1488,
#1489,#1490,#1491,#1492),.UNSPECIFIED.,.F.,.F.,(4,1,1,1,1,1,1,4),(0.,0.0064853814697643,
0.00972807220464646,0.0129707629395286,0.0162134536744108,0.0194561444092929,
0.0226988351441751,0.0259415258790572),.UNSPECIFIED.);
#216=B_SPLINE_CURVE_WITH_KNOTS('',3,(#1494,#1495,#1496,#1497,#1498,#1499,
#1500,#1501,#1502,#1503,#1504,#1505,#1506,#1507,#1508,#1509,#1510,#1511,
#1512),.UNSPECIFIED.,.F.,.F.,(4,1,1,1,1,1,1,1,1,1,1,1,1,1,1,1,4),(0.0129348945084714,
0.0190500434180479,0.0251651923276243,0.0312803412372008,0.0373954901467772,
0.0435106390563537,0.0496257879659302,0.0557409368755066,0.0618560857850831,
0.0679712346946595,0.074086383604236,0.0802015325138124,0.0863166814233889,
0.0924318303329653,0.0985469792425418,0.104662128152118,0.110777277061695),
 .UNSPECIFIED.);
#217=B_SPLINE_CURVE_WITH_KNOTS('',3,(#1514,#1515,#1516,#1517,#1518,#1519,
#1520,#1521,#1522,#1523),.UNSPECIFIED.,.F.,.F.,(4,1,1,1,1,1,1,4),(0.,0.00327283977261817,
0.00654567954523634,0.00981851931785451,0.0130913590904727,0.0163641988630909,
0.019637038635709,0.0261827181809454),.UNSPECIFIED.);
#218=B_SPLINE_CURVE_WITH_KNOTS('',3,(#1524,#1525,#1526,#1527,#1528,#1529,
#1530,#1531,#1532,#1533),.UNSPECIFIED.,.F.,.F.,(4,1,1,1,1,1,1,4),(0.,0.00648538146976431,
0.00972807220464647,0.0129707629395286,0.0162134536744108,0.0194561444092929,
0.0226988351441751,0.0259415258790573),.UNSPECIFIED.);
#219=B_SPLINE_CURVE_WITH_KNOTS('',3,(#1535,#1536,#1537,#1538,#1539,#1540,
#1541,#1542,#1543,#1544,#1545,#1546,#1547,#1548,#1549,#1550,#1551,#1552,
#1553),.UNSPECIFIED.,.F.,.F.,(4,1,1,1,1,1,1,1,1,1,1,1,1,1,1,1,4),(0.0129348945084715,
0.019050043418048,0.0251651923276244,0.0312803412372009,0.0373954901467773,
0.0435106390563538,0.0496257879659302,0.0557409368755067,0.0618560857850831,
0.0679712346946596,0.074086383604236,0.0802015325138125,0.0863166814233889,
0.0924318303329654,0.0985469792425418,0.104662128152118,0.110777277061695),
 .UNSPECIFIED.);
#220=B_SPLINE_CURVE_WITH_KNOTS('',3,(#1555,#1556,#1557,#1558,#1559,#1560,
#1561,#1562,#1563,#1564),.UNSPECIFIED.,.F.,.F.,(4,1,1,1,1,1,1,4),(8.67361737988404E-18,
0.00327283977261818,0.00654567954523635,0.00981851931785452,0.0130913590904727,
0.0163641988630909,0.019637038635709,0.0261827181809454),.UNSPECIFIED.);
#221=B_SPLINE_CURVE_WITH_KNOTS('',3,(#1600,#1601,#1602,#1603,#1604,#1605,
#1606,#1607,#1608,#1609,#1610,#1611,#1612,#1613,#1614,#1615,#1616,#1617,
#1618,#1619,#1620,#1621,#1622,#1623,#1624,#1625,#1626,#1627,#1628),
 .UNSPECIFIED.,.T.,.F.,(1,1,1,1,1,1,1,1,1,1,1,1,1,1,1,1,1,1,1,1,1,1,1,1,
1,1,1,1,1,1,1,1,1),(-0.0101166150985963,-0.00674441006573084,-0.00337220503286542,
1.81721003033648E-19,0.00674441006573085,0.0134888201314617,0.0202332301971926,
0.023605435230058,0.0269776402629234,0.0303498452957888,0.0337220503286543,
0.0404664603943851,0.0438386654272505,0.047210870460116,0.0505830754929814,
0.0539552805258468,0.0606996905915777,0.0640718956244431,0.0674441006573085,
0.0741885107230394,0.0775607157559048,0.0809329207887702,0.0843051258216357,
0.0876773308545011,0.0910495358873665,0.0944217409202319,0.0977939459530974,
0.101166150985963,0.104538356018828,0.107910561051694,0.114654971117424,
0.121399381183155,0.128143791248886),.UNSPECIFIED.);
#222=B_SPLINE_CURVE_WITH_KNOTS('',3,(#1663,#1664,#1665,#1666,#1667,#1668,
#1669,#1670,#1671,#1672,#1673,#1674,#1675,#1676,#1677,#1678,#1679,#1680,
#1681,#1682,#1683,#1684,#1685,#1686,#1687,#1688,#1689,#1690,#1691,#1692,
#1693,#1694,#1695,#1696,#1697,#1698,#1699,#1700),.UNSPECIFIED.,.T.,.F.,
(1,1,1,1,1,1,1,1,1,1,1,1,1,1,1,1,1,1,1,1,1,1,1,1,1,1,1,1,1,1,1,1,1,1,1,
1,1,1,1,1,1,1),(-0.00776111657727641,-0.0058208374329573,-0.0038805582886382,
1.65791933906572E-19,0.0038805582886382,0.00776111657727641,0.0155222331545528,
0.019402791443191,0.0232833497318292,0.0271639080204674,0.0310444663091056,
0.0349250245977438,0.038805582886382,0.0426861411750202,0.0465666994636584,
0.0504472577522967,0.0543278160409349,0.0582083743295731,0.0601486534738922,
0.0620889326182113,0.0640292117625304,0.0659694909068495,0.0698500491954877,
0.0737306074841259,0.0776111657727641,0.0814917240614023,0.0853722823500405,
0.0892528406386787,0.0931333989273169,0.0970139572159551,0.0989542363602742,
0.100894515504593,0.104775073793232,0.10865563208187,0.112536190370508,
0.116416748659146,0.118357027803465,0.120297306947784,0.124177865236423,
0.128058423525061,0.131938981813699,0.139700098390975),.UNSPECIFIED.);
#223=ORIENTED_EDGE('',*,*,#475,.F.);
#224=ORIENTED_EDGE('',*,*,#476,.F.);
#225=ORIENTED_EDGE('',*,*,#477,.T.);
#226=ORIENTED_EDGE('',*,*,#478,.T.);
#227=ORIENTED_EDGE('',*,*,#479,.T.);
#228=ORIENTED_EDGE('',*,*,#480,.F.);
#229=ORIENTED_EDGE('',*,*,#481,.F.);
#230=ORIENTED_EDGE('',*,*,#482,.F.);
#231=ORIENTED_EDGE('',*,*,#483,.T.);
#232=ORIENTED_EDGE('',*,*,#484,.T.);
#233=ORIENTED_EDGE('',*,*,#485,.T.);
#234=ORIENTED_EDGE('',*,*,#486,.F.);
#235=ORIENTED_EDGE('',*,*,#487,.T.);
#236=ORIENTED_EDGE('',*,*,#488,.F.);
#237=ORIENTED_EDGE('',*,*,#489,.T.);
#238=ORIENTED_EDGE('',*,*,#490,.F.);
#239=ORIENTED_EDGE('',*,*,#491,.F.);
#240=ORIENTED_EDGE('',*,*,#492,.F.);
#241=ORIENTED_EDGE('',*,*,#493,.F.);
#242=ORIENTED_EDGE('',*,*,#494,.F.);
#243=ORIENTED_EDGE('',*,*,#495,.T.);
#244=ORIENTED_EDGE('',*,*,#496,.F.);
#245=ORIENTED_EDGE('',*,*,#497,.F.);
#246=ORIENTED_EDGE('',*,*,#498,.F.);
#247=ORIENTED_EDGE('',*,*,#499,.F.);
#248=ORIENTED_EDGE('',*,*,#500,.F.);
#249=ORIENTED_EDGE('',*,*,#501,.T.);
#250=ORIENTED_EDGE('',*,*,#502,.T.);
#251=ORIENTED_EDGE('',*,*,#503,.T.);
#252=ORIENTED_EDGE('',*,*,#504,.F.);
#253=ORIENTED_EDGE('',*,*,#505,.T.);
#254=ORIENTED_EDGE('',*,*,#506,.T.);
#255=ORIENTED_EDGE('',*,*,#507,.T.);
#256=ORIENTED_EDGE('',*,*,#502,.F.);
#257=ORIENTED_EDGE('',*,*,#508,.T.);
#258=ORIENTED_EDGE('',*,*,#509,.T.);
#259=ORIENTED_EDGE('',*,*,#510,.T.);
#260=ORIENTED_EDGE('',*,*,#506,.F.);
#261=ORIENTED_EDGE('',*,*,#511,.T.);
#262=ORIENTED_EDGE('',*,*,#512,.T.);
#263=ORIENTED_EDGE('',*,*,#513,.T.);
#264=ORIENTED_EDGE('',*,*,#514,.T.);
#265=ORIENTED_EDGE('',*,*,#509,.F.);
#266=ORIENTED_EDGE('',*,*,#515,.T.);
#267=ORIENTED_EDGE('',*,*,#516,.F.);
#268=ORIENTED_EDGE('',*,*,#517,.T.);
#269=ORIENTED_EDGE('',*,*,#512,.F.);
#270=ORIENTED_EDGE('',*,*,#518,.T.);
#271=ORIENTED_EDGE('',*,*,#519,.F.);
#272=ORIENTED_EDGE('',*,*,#520,.T.);
#273=ORIENTED_EDGE('',*,*,#521,.F.);
#274=ORIENTED_EDGE('',*,*,#522,.T.);
#275=ORIENTED_EDGE('',*,*,#523,.T.);
#276=ORIENTED_EDGE('',*,*,#524,.F.);
#277=ORIENTED_EDGE('',*,*,#525,.F.);
#278=ORIENTED_EDGE('',*,*,#526,.F.);
#279=ORIENTED_EDGE('',*,*,#527,.T.);
#280=ORIENTED_EDGE('',*,*,#528,.T.);
#281=ORIENTED_EDGE('',*,*,#529,.F.);
#282=ORIENTED_EDGE('',*,*,#530,.T.);
#283=ORIENTED_EDGE('',*,*,#531,.T.);
#284=ORIENTED_EDGE('',*,*,#532,.F.);
#285=ORIENTED_EDGE('',*,*,#533,.F.);
#286=ORIENTED_EDGE('',*,*,#534,.F.);
#287=ORIENTED_EDGE('',*,*,#535,.T.);
#288=ORIENTED_EDGE('',*,*,#536,.T.);
#289=ORIENTED_EDGE('',*,*,#537,.F.);
#290=ORIENTED_EDGE('',*,*,#538,.F.);
#291=ORIENTED_EDGE('',*,*,#487,.F.);
#292=ORIENTED_EDGE('',*,*,#539,.F.);
#293=ORIENTED_EDGE('',*,*,#540,.F.);
#294=ORIENTED_EDGE('',*,*,#541,.T.);
#295=ORIENTED_EDGE('',*,*,#542,.T.);
#296=ORIENTED_EDGE('',*,*,#543,.F.);
#297=ORIENTED_EDGE('',*,*,#544,.T.);
#298=ORIENTED_EDGE('',*,*,#545,.T.);
#299=ORIENTED_EDGE('',*,*,#546,.F.);
#300=ORIENTED_EDGE('',*,*,#547,.F.);
#301=ORIENTED_EDGE('',*,*,#548,.F.);
#302=ORIENTED_EDGE('',*,*,#549,.T.);
#303=ORIENTED_EDGE('',*,*,#550,.T.);
#304=ORIENTED_EDGE('',*,*,#551,.F.);
#305=ORIENTED_EDGE('',*,*,#552,.T.);
#306=ORIENTED_EDGE('',*,*,#553,.T.);
#307=ORIENTED_EDGE('',*,*,#554,.F.);
#308=ORIENTED_EDGE('',*,*,#555,.T.);
#309=ORIENTED_EDGE('',*,*,#556,.T.);
#310=ORIENTED_EDGE('',*,*,#514,.F.);
#311=ORIENTED_EDGE('',*,*,#521,.T.);
#312=ORIENTED_EDGE('',*,*,#556,.F.);
#313=ORIENTED_EDGE('',*,*,#524,.T.);
#314=ORIENTED_EDGE('',*,*,#557,.F.);
#315=ORIENTED_EDGE('',*,*,#542,.F.);
#316=ORIENTED_EDGE('',*,*,#558,.T.);
#317=ORIENTED_EDGE('',*,*,#525,.T.);
#318=ORIENTED_EDGE('',*,*,#558,.F.);
#319=ORIENTED_EDGE('',*,*,#541,.F.);
#320=ORIENTED_EDGE('',*,*,#559,.T.);
#321=ORIENTED_EDGE('',*,*,#559,.F.);
#322=ORIENTED_EDGE('',*,*,#540,.T.);
#323=ORIENTED_EDGE('',*,*,#560,.T.);
#324=ORIENTED_EDGE('',*,*,#522,.F.);
#325=ORIENTED_EDGE('',*,*,#560,.F.);
#326=ORIENTED_EDGE('',*,*,#539,.T.);
#327=ORIENTED_EDGE('',*,*,#557,.T.);
#328=ORIENTED_EDGE('',*,*,#523,.F.);
#329=ORIENTED_EDGE('',*,*,#526,.T.);
#330=ORIENTED_EDGE('',*,*,#561,.T.);
#331=ORIENTED_EDGE('',*,*,#544,.F.);
#332=ORIENTED_EDGE('',*,*,#562,.F.);
#333=ORIENTED_EDGE('',*,*,#529,.T.);
#334=ORIENTED_EDGE('',*,*,#563,.T.);
#335=ORIENTED_EDGE('',*,*,#545,.F.);
#336=ORIENTED_EDGE('',*,*,#561,.F.);
#337=ORIENTED_EDGE('',*,*,#564,.T.);
#338=ORIENTED_EDGE('',*,*,#546,.T.);
#339=ORIENTED_EDGE('',*,*,#563,.F.);
#340=ORIENTED_EDGE('',*,*,#528,.F.);
#341=ORIENTED_EDGE('',*,*,#562,.T.);
#342=ORIENTED_EDGE('',*,*,#543,.T.);
#343=ORIENTED_EDGE('',*,*,#564,.F.);
#344=ORIENTED_EDGE('',*,*,#527,.F.);
#345=ORIENTED_EDGE('',*,*,#486,.T.);
#346=ORIENTED_EDGE('',*,*,#565,.T.);
#347=ORIENTED_EDGE('',*,*,#566,.F.);
#348=ORIENTED_EDGE('',*,*,#567,.T.);
#349=ORIENTED_EDGE('',*,*,#565,.F.);
#350=ORIENTED_EDGE('',*,*,#485,.F.);
#351=ORIENTED_EDGE('',*,*,#566,.T.);
#352=ORIENTED_EDGE('',*,*,#567,.F.);
#353=ORIENTED_EDGE('',*,*,#484,.F.);
#354=ORIENTED_EDGE('',*,*,#568,.T.);
#355=ORIENTED_EDGE('',*,*,#569,.T.);
#356=ORIENTED_EDGE('',*,*,#483,.F.);
#357=ORIENTED_EDGE('',*,*,#482,.T.);
#358=ORIENTED_EDGE('',*,*,#570,.T.);
#359=ORIENTED_EDGE('',*,*,#568,.F.);
#360=ORIENTED_EDGE('',*,*,#481,.T.);
#361=ORIENTED_EDGE('',*,*,#569,.F.);
#362=ORIENTED_EDGE('',*,*,#570,.F.);
#363=ORIENTED_EDGE('',*,*,#490,.T.);
#364=ORIENTED_EDGE('',*,*,#571,.T.);
#365=ORIENTED_EDGE('',*,*,#572,.F.);
#366=ORIENTED_EDGE('',*,*,#488,.T.);
#367=ORIENTED_EDGE('',*,*,#572,.T.);
#368=ORIENTED_EDGE('',*,*,#573,.T.);
#369=ORIENTED_EDGE('',*,*,#573,.F.);
#370=ORIENTED_EDGE('',*,*,#571,.F.);
#371=ORIENTED_EDGE('',*,*,#489,.F.);
#372=ORIENTED_EDGE('',*,*,#492,.T.);
#373=ORIENTED_EDGE('',*,*,#574,.F.);
#374=ORIENTED_EDGE('',*,*,#575,.F.);
#375=ORIENTED_EDGE('',*,*,#491,.T.);
#376=ORIENTED_EDGE('',*,*,#576,.F.);
#377=ORIENTED_EDGE('',*,*,#574,.T.);
#378=ORIENTED_EDGE('',*,*,#493,.T.);
#379=ORIENTED_EDGE('',*,*,#575,.T.);
#380=ORIENTED_EDGE('',*,*,#576,.T.);
#381=ORIENTED_EDGE('',*,*,#532,.T.);
#382=ORIENTED_EDGE('',*,*,#577,.F.);
#383=ORIENTED_EDGE('',*,*,#550,.F.);
#384=ORIENTED_EDGE('',*,*,#578,.T.);
#385=ORIENTED_EDGE('',*,*,#533,.T.);
#386=ORIENTED_EDGE('',*,*,#578,.F.);
#387=ORIENTED_EDGE('',*,*,#549,.F.);
#388=ORIENTED_EDGE('',*,*,#579,.T.);
#389=ORIENTED_EDGE('',*,*,#579,.F.);
#390=ORIENTED_EDGE('',*,*,#548,.T.);
#391=ORIENTED_EDGE('',*,*,#580,.T.);
#392=ORIENTED_EDGE('',*,*,#530,.F.);
#393=ORIENTED_EDGE('',*,*,#580,.F.);
#394=ORIENTED_EDGE('',*,*,#547,.T.);
#395=ORIENTED_EDGE('',*,*,#577,.T.);
#396=ORIENTED_EDGE('',*,*,#531,.F.);
#397=ORIENTED_EDGE('',*,*,#534,.T.);
#398=ORIENTED_EDGE('',*,*,#581,.T.);
#399=ORIENTED_EDGE('',*,*,#552,.F.);
#400=ORIENTED_EDGE('',*,*,#582,.F.);
#401=ORIENTED_EDGE('',*,*,#537,.T.);
#402=ORIENTED_EDGE('',*,*,#583,.T.);
#403=ORIENTED_EDGE('',*,*,#553,.F.);
#404=ORIENTED_EDGE('',*,*,#581,.F.);
#405=ORIENTED_EDGE('',*,*,#584,.T.);
#406=ORIENTED_EDGE('',*,*,#554,.T.);
#407=ORIENTED_EDGE('',*,*,#583,.F.);
#408=ORIENTED_EDGE('',*,*,#536,.F.);
#409=ORIENTED_EDGE('',*,*,#582,.T.);
#410=ORIENTED_EDGE('',*,*,#551,.T.);
#411=ORIENTED_EDGE('',*,*,#584,.F.);
#412=ORIENTED_EDGE('',*,*,#535,.F.);
#413=ORIENTED_EDGE('',*,*,#480,.T.);
#414=ORIENTED_EDGE('',*,*,#585,.T.);
#415=ORIENTED_EDGE('',*,*,#586,.F.);
#416=ORIENTED_EDGE('',*,*,#587,.T.);
#417=ORIENTED_EDGE('',*,*,#585,.F.);
#418=ORIENTED_EDGE('',*,*,#479,.F.);
#419=ORIENTED_EDGE('',*,*,#586,.T.);
#420=ORIENTED_EDGE('',*,*,#587,.F.);
#421=ORIENTED_EDGE('',*,*,#478,.F.);
#422=ORIENTED_EDGE('',*,*,#588,.T.);
#423=ORIENTED_EDGE('',*,*,#589,.T.);
#424=ORIENTED_EDGE('',*,*,#477,.F.);
#425=ORIENTED_EDGE('',*,*,#476,.T.);
#426=ORIENTED_EDGE('',*,*,#590,.T.);
#427=ORIENTED_EDGE('',*,*,#588,.F.);
#428=ORIENTED_EDGE('',*,*,#475,.T.);
#429=ORIENTED_EDGE('',*,*,#589,.F.);
#430=ORIENTED_EDGE('',*,*,#590,.F.);
#431=ORIENTED_EDGE('',*,*,#496,.T.);
#432=ORIENTED_EDGE('',*,*,#591,.T.);
#433=ORIENTED_EDGE('',*,*,#592,.F.);
#434=ORIENTED_EDGE('',*,*,#494,.T.);
#435=ORIENTED_EDGE('',*,*,#592,.T.);
#436=ORIENTED_EDGE('',*,*,#593,.T.);
#437=ORIENTED_EDGE('',*,*,#593,.F.);
#438=ORIENTED_EDGE('',*,*,#591,.F.);
#439=ORIENTED_EDGE('',*,*,#495,.F.);
#440=ORIENTED_EDGE('',*,*,#498,.T.);
#441=ORIENTED_EDGE('',*,*,#594,.F.);
#442=ORIENTED_EDGE('',*,*,#595,.F.);
#443=ORIENTED_EDGE('',*,*,#497,.T.);
#444=ORIENTED_EDGE('',*,*,#596,.F.);
#445=ORIENTED_EDGE('',*,*,#594,.T.);
#446=ORIENTED_EDGE('',*,*,#499,.T.);
#447=ORIENTED_EDGE('',*,*,#595,.T.);
#448=ORIENTED_EDGE('',*,*,#596,.T.);
#449=ORIENTED_EDGE('',*,*,#555,.F.);
#450=ORIENTED_EDGE('',*,*,#538,.T.);
#451=ORIENTED_EDGE('',*,*,#516,.T.);
#452=ORIENTED_EDGE('',*,*,#597,.T.);
#453=ORIENTED_EDGE('',*,*,#500,.T.);
#454=ORIENTED_EDGE('',*,*,#598,.T.);
#455=ORIENTED_EDGE('',*,*,#519,.T.);
#456=ORIENTED_EDGE('',*,*,#599,.T.);
#457=ORIENTED_EDGE('',*,*,#504,.T.);
#458=ORIENTED_EDGE('',*,*,#600,.T.);
#459=ORIENTED_EDGE('',*,*,#501,.F.);
#460=ORIENTED_EDGE('',*,*,#597,.F.);
#461=ORIENTED_EDGE('',*,*,#515,.F.);
#462=ORIENTED_EDGE('',*,*,#508,.F.);
#463=ORIENTED_EDGE('',*,*,#505,.F.);
#464=ORIENTED_EDGE('',*,*,#599,.F.);
#465=ORIENTED_EDGE('',*,*,#518,.F.);
#466=ORIENTED_EDGE('',*,*,#511,.F.);
#467=ORIENTED_EDGE('',*,*,#517,.F.);
#468=ORIENTED_EDGE('',*,*,#598,.F.);
#469=ORIENTED_EDGE('',*,*,#507,.F.);
#470=ORIENTED_EDGE('',*,*,#513,.F.);
#471=ORIENTED_EDGE('',*,*,#520,.F.);
#472=ORIENTED_EDGE('',*,*,#600,.F.);
#473=ORIENTED_EDGE('',*,*,#503,.F.);
#474=ORIENTED_EDGE('',*,*,#510,.F.);
#475=EDGE_CURVE('',#601,#602,#687,.F.);
#476=EDGE_CURVE('',#603,#601,#193,.T.);
#477=EDGE_CURVE('',#603,#602,#194,.T.);
#478=EDGE_CURVE('',#604,#605,#195,.T.);
#479=EDGE_CURVE('',#605,#606,#196,.T.);
#480=EDGE_CURVE('',#604,#606,#688,.F.);
#481=EDGE_CURVE('',#607,#608,#689,.F.);
#482=EDGE_CURVE('',#609,#607,#197,.T.);
#483=EDGE_CURVE('',#609,#608,#198,.T.);
#484=EDGE_CURVE('',#610,#611,#199,.T.);
#485=EDGE_CURVE('',#611,#612,#200,.T.);
#486=EDGE_CURVE('',#610,#612,#690,.F.);
#487=EDGE_CURVE('',#613,#613,#691,.F.);
#488=EDGE_CURVE('',#614,#615,#692,.F.);
#489=EDGE_CURVE('',#614,#616,#201,.T.);
#490=EDGE_CURVE('',#615,#616,#202,.T.);
#491=EDGE_CURVE('',#617,#618,#693,.F.);
#492=EDGE_CURVE('',#619,#617,#203,.T.);
#493=EDGE_CURVE('',#618,#619,#204,.T.);
#494=EDGE_CURVE('',#620,#621,#694,.F.);
#495=EDGE_CURVE('',#620,#622,#205,.T.);
#496=EDGE_CURVE('',#621,#622,#206,.T.);
#497=EDGE_CURVE('',#623,#624,#695,.F.);
#498=EDGE_CURVE('',#625,#623,#207,.T.);
#499=EDGE_CURVE('',#624,#625,#208,.T.);
#500=EDGE_CURVE('',#626,#627,#209,.T.);
#501=EDGE_CURVE('',#626,#628,#210,.T.);
#502=EDGE_CURVE('',#628,#629,#696,.T.);
#503=EDGE_CURVE('',#629,#630,#211,.T.);
#504=EDGE_CURVE('',#631,#630,#212,.T.);
#505=EDGE_CURVE('',#631,#632,#213,.T.);
#506=EDGE_CURVE('',#632,#633,#697,.T.);
#507=EDGE_CURVE('',#633,#627,#214,.T.);
#508=EDGE_CURVE('',#628,#634,#22,.F.);
#509=EDGE_CURVE('',#634,#635,#698,.T.);
#510=EDGE_CURVE('',#635,#629,#23,.F.);
#511=EDGE_CURVE('',#632,#636,#24,.T.);
#512=EDGE_CURVE('',#636,#637,#699,.T.);
#513=EDGE_CURVE('',#637,#633,#25,.T.);
#514=EDGE_CURVE('',#638,#638,#700,.T.);
#515=EDGE_CURVE('',#634,#639,#215,.T.);
#516=EDGE_CURVE('',#640,#639,#216,.T.);
#517=EDGE_CURVE('',#640,#637,#217,.T.);
#518=EDGE_CURVE('',#636,#641,#218,.T.);
#519=EDGE_CURVE('',#642,#641,#219,.T.);
#520=EDGE_CURVE('',#642,#635,#220,.T.);
#521=EDGE_CURVE('',#643,#643,#701,.T.);
#522=EDGE_CURVE('',#644,#645,#26,.T.);
#523=EDGE_CURVE('',#645,#646,#702,.F.);
#524=EDGE_CURVE('',#647,#646,#27,.T.);
#525=EDGE_CURVE('',#644,#647,#703,.F.);
#526=EDGE_CURVE('',#648,#649,#28,.F.);
#527=EDGE_CURVE('',#648,#650,#704,.F.);
#528=EDGE_CURVE('',#650,#651,#29,.F.);
#529=EDGE_CURVE('',#649,#651,#705,.F.);
#530=EDGE_CURVE('',#652,#653,#30,.T.);
#531=EDGE_CURVE('',#653,#654,#706,.F.);
#532=EDGE_CURVE('',#655,#654,#31,.T.);
#533=EDGE_CURVE('',#652,#655,#707,.F.);
#534=EDGE_CURVE('',#656,#657,#32,.F.);
#535=EDGE_CURVE('',#656,#658,#708,.F.);
#536=EDGE_CURVE('',#658,#659,#33,.F.);
#537=EDGE_CURVE('',#657,#659,#709,.F.);
#538=EDGE_CURVE('',#660,#660,#221,.T.);
#539=EDGE_CURVE('',#661,#662,#710,.F.);
#540=EDGE_CURVE('',#663,#661,#34,.T.);
#541=EDGE_CURVE('',#663,#664,#711,.F.);
#542=EDGE_CURVE('',#664,#662,#35,.T.);
#543=EDGE_CURVE('',#665,#666,#712,.F.);
#544=EDGE_CURVE('',#665,#667,#36,.F.);
#545=EDGE_CURVE('',#667,#668,#713,.F.);
#546=EDGE_CURVE('',#666,#668,#37,.F.);
#547=EDGE_CURVE('',#669,#670,#714,.F.);
#548=EDGE_CURVE('',#671,#669,#38,.T.);
#549=EDGE_CURVE('',#671,#672,#715,.F.);
#550=EDGE_CURVE('',#672,#670,#39,.T.);
#551=EDGE_CURVE('',#673,#674,#716,.F.);
#552=EDGE_CURVE('',#673,#675,#40,.F.);
#553=EDGE_CURVE('',#675,#676,#717,.F.);
#554=EDGE_CURVE('',#674,#676,#41,.F.);
#555=EDGE_CURVE('',#677,#677,#222,.T.);
#556=EDGE_CURVE('',#678,#678,#718,.T.);
#557=EDGE_CURVE('',#662,#646,#42,.T.);
#558=EDGE_CURVE('',#664,#647,#43,.T.);
#559=EDGE_CURVE('',#663,#644,#44,.T.);
#560=EDGE_CURVE('',#661,#645,#45,.T.);
#561=EDGE_CURVE('',#649,#667,#46,.T.);
#562=EDGE_CURVE('',#648,#665,#47,.T.);
#563=EDGE_CURVE('',#651,#668,#48,.T.);
#564=EDGE_CURVE('',#650,#666,#49,.T.);
#565=EDGE_CURVE('',#612,#679,#50,.T.);
#566=EDGE_CURVE('',#610,#679,#51,.T.);
#567=EDGE_CURVE('',#611,#679,#52,.T.);
#568=EDGE_CURVE('',#609,#680,#53,.T.);
#569=EDGE_CURVE('',#680,#608,#54,.T.);
#570=EDGE_CURVE('',#607,#680,#55,.T.);
#571=EDGE_CURVE('',#616,#681,#56,.T.);
#572=EDGE_CURVE('',#615,#681,#57,.T.);
#573=EDGE_CURVE('',#681,#614,#58,.T.);
#574=EDGE_CURVE('',#682,#617,#59,.T.);
#575=EDGE_CURVE('',#619,#682,#60,.T.);
#576=EDGE_CURVE('',#682,#618,#61,.T.);
#577=EDGE_CURVE('',#670,#654,#62,.T.);
#578=EDGE_CURVE('',#672,#655,#63,.T.);
#579=EDGE_CURVE('',#671,#652,#64,.T.);
#580=EDGE_CURVE('',#669,#653,#65,.T.);
#581=EDGE_CURVE('',#657,#675,#66,.T.);
#582=EDGE_CURVE('',#656,#673,#67,.T.);
#583=EDGE_CURVE('',#659,#676,#68,.T.);
#584=EDGE_CURVE('',#658,#674,#69,.T.);
#585=EDGE_CURVE('',#606,#683,#70,.T.);
#586=EDGE_CURVE('',#604,#683,#71,.T.);
#587=EDGE_CURVE('',#605,#683,#72,.T.);
#588=EDGE_CURVE('',#603,#684,#73,.T.);
#589=EDGE_CURVE('',#684,#602,#74,.T.);
#590=EDGE_CURVE('',#601,#684,#75,.T.);
#591=EDGE_CURVE('',#622,#685,#76,.T.);
#592=EDGE_CURVE('',#621,#685,#77,.T.);
#593=EDGE_CURVE('',#685,#620,#78,.T.);
#594=EDGE_CURVE('',#686,#623,#79,.T.);
#595=EDGE_CURVE('',#625,#686,#80,.T.);
#596=EDGE_CURVE('',#686,#624,#81,.T.);
#597=EDGE_CURVE('',#639,#626,#82,.T.);
#598=EDGE_CURVE('',#627,#640,#83,.F.);
#599=EDGE_CURVE('',#641,#631,#84,.F.);
#600=EDGE_CURVE('',#630,#642,#85,.T.);
#601=VERTEX_POINT('',#1275);
#602=VERTEX_POINT('',#1276);
#603=VERTEX_POINT('',#1281);
#604=VERTEX_POINT('',#1290);
#605=VERTEX_POINT('',#1291);
#606=VERTEX_POINT('',#1296);
#607=VERTEX_POINT('',#1299);
#608=VERTEX_POINT('',#1300);
#609=VERTEX_POINT('',#1305);
#610=VERTEX_POINT('',#1314);
#611=VERTEX_POINT('',#1315);
#612=VERTEX_POINT('',#1320);
#613=VERTEX_POINT('',#1323);
#614=VERTEX_POINT('',#1325);
#615=VERTEX_POINT('',#1326);
#616=VERTEX_POINT('',#1331);
#617=VERTEX_POINT('',#1337);
#618=VERTEX_POINT('',#1338);
#619=VERTEX_POINT('',#1343);
#620=VERTEX_POINT('',#1349);
#621=VERTEX_POINT('',#1350);
#622=VERTEX_POINT('',#1355);
#623=VERTEX_POINT('',#1361);
#624=VERTEX_POINT('',#1362);
#625=VERTEX_POINT('',#1367);
#626=VERTEX_POINT('',#1392);
#627=VERTEX_POINT('',#1393);
#628=VERTEX_POINT('',#1406);
#629=VERTEX_POINT('',#1408);
#630=VERTEX_POINT('',#1420);
#631=VERTEX_POINT('',#1441);
#632=VERTEX_POINT('',#1454);
#633=VERTEX_POINT('',#1456);
#634=VERTEX_POINT('',#1470);
#635=VERTEX_POINT('',#1472);
#636=VERTEX_POINT('',#1476);
#637=VERTEX_POINT('',#1478);
#638=VERTEX_POINT('',#1482);
#639=VERTEX_POINT('',#1493);
#640=VERTEX_POINT('',#1513);
#641=VERTEX_POINT('',#1534);
#642=VERTEX_POINT('',#1554);
#643=VERTEX_POINT('',#1567);
#644=VERTEX_POINT('',#1569);
#645=VERTEX_POINT('',#1570);
#646=VERTEX_POINT('',#1572);
#647=VERTEX_POINT('',#1574);
#648=VERTEX_POINT('',#1577);
#649=VERTEX_POINT('',#1578);
#650=VERTEX_POINT('',#1580);
#651=VERTEX_POINT('',#1582);
#652=VERTEX_POINT('',#1585);
#653=VERTEX_POINT('',#1586);
#654=VERTEX_POINT('',#1588);
#655=VERTEX_POINT('',#1590);
#656=VERTEX_POINT('',#1593);
#657=VERTEX_POINT('',#1594);
#658=VERTEX_POINT('',#1596);
#659=VERTEX_POINT('',#1598);
#660=VERTEX_POINT('',#1629);
#661=VERTEX_POINT('',#1632);
#662=VERTEX_POINT('',#1633);
#663=VERTEX_POINT('',#1635);
#664=VERTEX_POINT('',#1637);
#665=VERTEX_POINT('',#1640);
#666=VERTEX_POINT('',#1641);
#667=VERTEX_POINT('',#1643);
#668=VERTEX_POINT('',#1645);
#669=VERTEX_POINT('',#1648);
#670=VERTEX_POINT('',#1649);
#671=VERTEX_POINT('',#1651);
#672=VERTEX_POINT('',#1653);
#673=VERTEX_POINT('',#1656);
#674=VERTEX_POINT('',#1657);
#675=VERTEX_POINT('',#1659);
#676=VERTEX_POINT('',#1661);
#677=VERTEX_POINT('',#1701);
#678=VERTEX_POINT('',#1704);
#679=VERTEX_POINT('',#1724);
#680=VERTEX_POINT('',#1731);
#681=VERTEX_POINT('',#1738);
#682=VERTEX_POINT('',#1745);
#683=VERTEX_POINT('',#1768);
#684=VERTEX_POINT('',#1775);
#685=VERTEX_POINT('',#1782);
#686=VERTEX_POINT('',#1789);
#687=CIRCLE('',#946,0.022145625);
#688=CIRCLE('',#947,0.022145625);
#689=CIRCLE('',#948,0.022145625);
#690=CIRCLE('',#949,0.022145625);
#691=CIRCLE('',#950,0.019685);
#692=CIRCLE('',#951,0.022145625);
#693=CIRCLE('',#952,0.022145625);
#694=CIRCLE('',#953,0.022145625);
#695=CIRCLE('',#954,0.022145625);
#696=CIRCLE('',#955,0.05715);
#697=CIRCLE('',#956,0.05715);
#698=CIRCLE('',#958,0.05969);
#699=CIRCLE('',#960,0.05969);
#700=CIRCLE('',#962,0.019685);
#701=CIRCLE('',#964,0.017145);
#702=CIRCLE('',#965,0.017145);
#703=CIRCLE('',#966,0.017145);
#704=CIRCLE('',#967,0.017145);
#705=CIRCLE('',#968,0.017145);
#706=CIRCLE('',#969,0.017145);
#707=CIRCLE('',#970,0.017145);
#708=CIRCLE('',#971,0.017145);
#709=CIRCLE('',#972,0.017145);
#710=CIRCLE('',#974,0.019685);
#711=CIRCLE('',#975,0.019685);
#712=CIRCLE('',#976,0.019685);
#713=CIRCLE('',#977,0.019685);
#714=CIRCLE('',#978,0.019685);
#715=CIRCLE('',#979,0.019685);
#716=CIRCLE('',#980,0.019685);
#717=CIRCLE('',#981,0.019685);
#718=CIRCLE('',#983,0.019685);
#719=EDGE_LOOP('',(#223,#224,#225));
#720=EDGE_LOOP('',(#226,#227,#228));
#721=EDGE_LOOP('',(#229,#230,#231));
#722=EDGE_LOOP('',(#232,#233,#234));
#723=EDGE_LOOP('',(#235));
#724=EDGE_LOOP('',(#236,#237,#238));
#725=EDGE_LOOP('',(#239,#240,#241));
#726=EDGE_LOOP('',(#242,#243,#244));
#727=EDGE_LOOP('',(#245,#246,#247));
#728=EDGE_LOOP('',(#248,#249,#250,#251,#252,#253,#254,#255));
#729=EDGE_LOOP('',(#256,#257,#258,#259));
#730=EDGE_LOOP('',(#260,#261,#262,#263));
#731=EDGE_LOOP('',(#264));
#732=EDGE_LOOP('',(#265,#266,#267,#268,#269,#270,#271,#272));
#733=EDGE_LOOP('',(#273));
#734=EDGE_LOOP('',(#274,#275,#276,#277));
#735=EDGE_LOOP('',(#278,#279,#280,#281));
#736=EDGE_LOOP('',(#282,#283,#284,#285));
#737=EDGE_LOOP('',(#286,#287,#288,#289));
#738=EDGE_LOOP('',(#290));
#739=EDGE_LOOP('',(#291));
#740=EDGE_LOOP('',(#292,#293,#294,#295));
#741=EDGE_LOOP('',(#296,#297,#298,#299));
#742=EDGE_LOOP('',(#300,#301,#302,#303));
#743=EDGE_LOOP('',(#304,#305,#306,#307));
#744=EDGE_LOOP('',(#308));
#745=EDGE_LOOP('',(#309));
#746=EDGE_LOOP('',(#310));
#747=EDGE_LOOP('',(#311));
#748=EDGE_LOOP('',(#312));
#749=EDGE_LOOP('',(#313,#314,#315,#316));
#750=EDGE_LOOP('',(#317,#318,#319,#320));
#751=EDGE_LOOP('',(#321,#322,#323,#324));
#752=EDGE_LOOP('',(#325,#326,#327,#328));
#753=EDGE_LOOP('',(#329,#330,#331,#332));
#754=EDGE_LOOP('',(#333,#334,#335,#336));
#755=EDGE_LOOP('',(#337,#338,#339,#340));
#756=EDGE_LOOP('',(#341,#342,#343,#344));
#757=EDGE_LOOP('',(#345,#346,#347));
#758=EDGE_LOOP('',(#348,#349,#350));
#759=EDGE_LOOP('',(#351,#352,#353));
#760=EDGE_LOOP('',(#354,#355,#356));
#761=EDGE_LOOP('',(#357,#358,#359));
#762=EDGE_LOOP('',(#360,#361,#362));
#763=EDGE_LOOP('',(#363,#364,#365));
#764=EDGE_LOOP('',(#366,#367,#368));
#765=EDGE_LOOP('',(#369,#370,#371));
#766=EDGE_LOOP('',(#372,#373,#374));
#767=EDGE_LOOP('',(#375,#376,#377));
#768=EDGE_LOOP('',(#378,#379,#380));
#769=EDGE_LOOP('',(#381,#382,#383,#384));
#770=EDGE_LOOP('',(#385,#386,#387,#388));
#771=EDGE_LOOP('',(#389,#390,#391,#392));
#772=EDGE_LOOP('',(#393,#394,#395,#396));
#773=EDGE_LOOP('',(#397,#398,#399,#400));
#774=EDGE_LOOP('',(#401,#402,#403,#404));
#775=EDGE_LOOP('',(#405,#406,#407,#408));
#776=EDGE_LOOP('',(#409,#410,#411,#412));
#777=EDGE_LOOP('',(#413,#414,#415));
#778=EDGE_LOOP('',(#416,#417,#418));
#779=EDGE_LOOP('',(#419,#420,#421));
#780=EDGE_LOOP('',(#422,#423,#424));
#781=EDGE_LOOP('',(#425,#426,#427));
#782=EDGE_LOOP('',(#428,#429,#430));
#783=EDGE_LOOP('',(#431,#432,#433));
#784=EDGE_LOOP('',(#434,#435,#436));
#785=EDGE_LOOP('',(#437,#438,#439));
#786=EDGE_LOOP('',(#440,#441,#442));
#787=EDGE_LOOP('',(#443,#444,#445));
#788=EDGE_LOOP('',(#446,#447,#448));
#789=EDGE_LOOP('',(#449));
#790=EDGE_LOOP('',(#450));
#791=EDGE_LOOP('',(#451,#452,#453,#454));
#792=EDGE_LOOP('',(#455,#456,#457,#458));
#793=EDGE_LOOP('',(#459,#460,#461,#462));
#794=EDGE_LOOP('',(#463,#464,#465,#466));
#795=EDGE_LOOP('',(#467,#468,#469,#470));
#796=EDGE_LOOP('',(#471,#472,#473,#474));
#797=FACE_BOUND('',#719,.T.);
#798=FACE_BOUND('',#720,.T.);
#799=FACE_BOUND('',#721,.T.);
#800=FACE_BOUND('',#722,.T.);
#801=FACE_BOUND('',#723,.T.);
#802=FACE_BOUND('',#724,.T.);
#803=FACE_BOUND('',#725,.T.);
#804=FACE_BOUND('',#726,.T.);
#805=FACE_BOUND('',#727,.T.);
#806=FACE_BOUND('',#728,.T.);
#807=FACE_BOUND('',#729,.T.);
#808=FACE_BOUND('',#730,.T.);
#809=FACE_BOUND('',#731,.T.);
#810=FACE_BOUND('',#732,.T.);
#811=FACE_BOUND('',#733,.T.);
#812=FACE_BOUND('',#734,.T.);
#813=FACE_BOUND('',#735,.T.);
#814=FACE_BOUND('',#736,.T.);
#815=FACE_BOUND('',#737,.T.);
#816=FACE_BOUND('',#738,.T.);
#817=FACE_BOUND('',#739,.T.);
#818=FACE_BOUND('',#740,.T.);
#819=FACE_BOUND('',#741,.T.);
#820=FACE_BOUND('',#742,.T.);
#821=FACE_BOUND('',#743,.T.);
#822=FACE_BOUND('',#744,.T.);
#823=FACE_BOUND('',#745,.T.);
#824=FACE_BOUND('',#746,.T.);
#825=FACE_BOUND('',#747,.T.);
#826=FACE_BOUND('',#748,.T.);
#827=FACE_BOUND('',#749,.T.);
#828=FACE_BOUND('',#750,.T.);
#829=FACE_BOUND('',#751,.T.);
#830=FACE_BOUND('',#752,.T.);
#831=FACE_BOUND('',#753,.T.);
#832=FACE_BOUND('',#754,.T.);
#833=FACE_BOUND('',#755,.T.);
#834=FACE_BOUND('',#756,.T.);
#835=FACE_BOUND('',#757,.T.);
#836=FACE_BOUND('',#758,.T.);
#837=FACE_BOUND('',#759,.T.);
#838=FACE_BOUND('',#760,.T.);
#839=FACE_BOUND('',#761,.T.);
#840=FACE_BOUND('',#762,.T.);
#841=FACE_BOUND('',#763,.T.);
#842=FACE_BOUND('',#764,.T.);
#843=FACE_BOUND('',#765,.T.);
#844=FACE_BOUND('',#766,.T.);
#845=FACE_BOUND('',#767,.T.);
#846=FACE_BOUND('',#768,.T.);
#847=FACE_BOUND('',#769,.T.);
#848=FACE_BOUND('',#770,.T.);
#849=FACE_BOUND('',#771,.T.);
#850=FACE_BOUND('',#772,.T.);
#851=FACE_BOUND('',#773,.T.);
#852=FACE_BOUND('',#774,.T.);
#853=FACE_BOUND('',#775,.T.);
#854=FACE_BOUND('',#776,.T.);
#855=FACE_BOUND('',#777,.T.);
#856=FACE_BOUND('',#778,.T.);
#857=FACE_BOUND('',#779,.T.);
#858=FACE_BOUND('',#780,.T.);
#859=FACE_BOUND('',#781,.T.);
#860=FACE_BOUND('',#782,.T.);
#861=FACE_BOUND('',#783,.T.);
#862=FACE_BOUND('',#784,.T.);
#863=FACE_BOUND('',#785,.T.);
#864=FACE_BOUND('',#786,.T.);
#865=FACE_BOUND('',#787,.T.);
#866=FACE_BOUND('',#788,.T.);
#867=FACE_BOUND('',#789,.T.);
#868=FACE_BOUND('',#790,.T.);
#869=FACE_BOUND('',#791,.T.);
#870=FACE_BOUND('',#792,.T.);
#871=FACE_BOUND('',#793,.T.);
#872=FACE_BOUND('',#794,.T.);
#873=FACE_BOUND('',#795,.T.);
#874=FACE_BOUND('',#796,.T.);
#875=CONICAL_SURFACE('',#945,0.05715,0.667072380891915);
#876=CONICAL_SURFACE('',#961,0.019685,0.667072380891915);
#877=ADVANCED_FACE('',(#797,#798,#799,#800,#801,#802,#803,#804,#805,#806),
#875,.F.);
#878=ADVANCED_FACE('',(#807),#150,.T.);
#879=ADVANCED_FACE('',(#808),#151,.T.);
#880=ADVANCED_FACE('',(#809,#810),#876,.T.);
#881=ADVANCED_FACE('',(#811,#812,#813,#814,#815,#816),#12,.F.);
#882=ADVANCED_FACE('',(#817,#818,#819,#820,#821,#822),#13,.T.);
#883=ADVANCED_FACE('',(#823,#824),#14,.T.);
#884=ADVANCED_FACE('',(#825,#826),#152,.T.);
#885=ADVANCED_FACE('',(#827),#153,.T.);
#886=ADVANCED_FACE('',(#828),#154,.T.);
#887=ADVANCED_FACE('',(#829),#155,.F.);
#888=ADVANCED_FACE('',(#830),#156,.F.);
#889=ADVANCED_FACE('',(#831),#157,.T.);
#890=ADVANCED_FACE('',(#832),#158,.T.);
#891=ADVANCED_FACE('',(#833),#159,.F.);
#892=ADVANCED_FACE('',(#834),#160,.F.);
#893=ADVANCED_FACE('',(#835),#161,.T.);
#894=ADVANCED_FACE('',(#836),#162,.F.);
#895=ADVANCED_FACE('',(#837),#163,.F.);
#896=ADVANCED_FACE('',(#838),#164,.F.);
#897=ADVANCED_FACE('',(#839),#165,.T.);
#898=ADVANCED_FACE('',(#840),#166,.T.);
#899=ADVANCED_FACE('',(#841),#167,.T.);
#900=ADVANCED_FACE('',(#842),#168,.T.);
#901=ADVANCED_FACE('',(#843),#169,.F.);
#902=ADVANCED_FACE('',(#844),#170,.T.);
#903=ADVANCED_FACE('',(#845),#171,.T.);
#904=ADVANCED_FACE('',(#846),#172,.T.);
#905=ADVANCED_FACE('',(#847),#173,.T.);
#906=ADVANCED_FACE('',(#848),#174,.T.);
#907=ADVANCED_FACE('',(#849),#175,.F.);
#908=ADVANCED_FACE('',(#850),#176,.F.);
#909=ADVANCED_FACE('',(#851),#177,.T.);
#910=ADVANCED_FACE('',(#852),#178,.T.);
#911=ADVANCED_FACE('',(#853),#179,.F.);
#912=ADVANCED_FACE('',(#854),#180,.F.);
#913=ADVANCED_FACE('',(#855),#181,.T.);
#914=ADVANCED_FACE('',(#856),#182,.F.);
#915=ADVANCED_FACE('',(#857),#183,.F.);
#916=ADVANCED_FACE('',(#858),#184,.F.);
#917=ADVANCED_FACE('',(#859),#185,.T.);
#918=ADVANCED_FACE('',(#860),#186,.T.);
#919=ADVANCED_FACE('',(#861),#187,.T.);
#920=ADVANCED_FACE('',(#862),#188,.T.);
#921=ADVANCED_FACE('',(#863),#189,.F.);
#922=ADVANCED_FACE('',(#864),#190,.T.);
#923=ADVANCED_FACE('',(#865),#191,.T.);
#924=ADVANCED_FACE('',(#866),#192,.T.);
#925=ADVANCED_FACE('',(#867,#868),#15,.F.);
#926=ADVANCED_FACE('',(#869),#16,.F.);
#927=ADVANCED_FACE('',(#870),#17,.F.);
#928=ADVANCED_FACE('',(#871),#18,.T.);
#929=ADVANCED_FACE('',(#872),#19,.T.);
#930=ADVANCED_FACE('',(#873),#20,.T.);
#931=ADVANCED_FACE('',(#874),#21,.T.);
#932=CLOSED_SHELL('',(#877,#878,#879,#880,#881,#882,#883,#884,#885,#886,
#887,#888,#889,#890,#891,#892,#893,#894,#895,#896,#897,#898,#899,#900,#901,
#902,#903,#904,#905,#906,#907,#908,#909,#910,#911,#912,#913,#914,#915,#916,
#917,#918,#919,#920,#921,#922,#923,#924,#925,#926,#927,#928,#929,#930,#931));
#933=STYLED_ITEM('',(#934),#941);
#934=PRESENTATION_STYLE_ASSIGNMENT((#935));
#935=SURFACE_STYLE_USAGE(.BOTH.,#936);
#936=SURFACE_SIDE_STYLE('',(#937));
#937=SURFACE_STYLE_FILL_AREA(#938);
#938=FILL_AREA_STYLE('',(#939));
#939=FILL_AREA_STYLE_COLOUR('',#940);
#940=COLOUR_RGB('',0.917647058823529,0.917647058823529,0.917647058823529);
#941=MANIFOLD_SOLID_BREP('Part 1',#932);
#942=SHAPE_DEFINITION_REPRESENTATION(#1811,#943);
#943=SHAPE_REPRESENTATION('Part 1',(#944),#1806);
#944=AXIS2_PLACEMENT_3D('',#1272,#1032,#1033);
#945=AXIS2_PLACEMENT_3D('',#1273,#1034,#1035);
#946=AXIS2_PLACEMENT_3D('',#1274,#1036,#1037);
#947=AXIS2_PLACEMENT_3D('',#1297,#1038,#1039);
#948=AXIS2_PLACEMENT_3D('',#1298,#1040,#1041);
#949=AXIS2_PLACEMENT_3D('',#1321,#1042,#1043);
#950=AXIS2_PLACEMENT_3D('',#1322,#1044,#1045);
#951=AXIS2_PLACEMENT_3D('',#1324,#1046,#1047);
#952=AXIS2_PLACEMENT_3D('',#1336,#1048,#1049);
#953=AXIS2_PLACEMENT_3D('',#1348,#1050,#1051);
#954=AXIS2_PLACEMENT_3D('',#1360,#1052,#1053);
#955=AXIS2_PLACEMENT_3D('',#1407,#1054,#1055);
#956=AXIS2_PLACEMENT_3D('',#1455,#1056,#1057);
#957=AXIS2_PLACEMENT_3D('',#1468,#1058,#1059);
#958=AXIS2_PLACEMENT_3D('',#1471,#1061,#1062);
#959=AXIS2_PLACEMENT_3D('',#1474,#1064,#1065);
#960=AXIS2_PLACEMENT_3D('',#1477,#1067,#1068);
#961=AXIS2_PLACEMENT_3D('',#1480,#1070,#1071);
#962=AXIS2_PLACEMENT_3D('',#1481,#1072,#1073);
#963=AXIS2_PLACEMENT_3D('',#1565,#1074,#1075);
#964=AXIS2_PLACEMENT_3D('',#1566,#1076,#1077);
#965=AXIS2_PLACEMENT_3D('',#1571,#1079,#1080);
#966=AXIS2_PLACEMENT_3D('',#1575,#1082,#1083);
#967=AXIS2_PLACEMENT_3D('',#1579,#1085,#1086);
#968=AXIS2_PLACEMENT_3D('',#1583,#1088,#1089);
#969=AXIS2_PLACEMENT_3D('',#1587,#1091,#1092);
#970=AXIS2_PLACEMENT_3D('',#1591,#1094,#1095);
#971=AXIS2_PLACEMENT_3D('',#1595,#1097,#1098);
#972=AXIS2_PLACEMENT_3D('',#1599,#1100,#1101);
#973=AXIS2_PLACEMENT_3D('',#1630,#1102,#1103);
#974=AXIS2_PLACEMENT_3D('',#1631,#1104,#1105);
#975=AXIS2_PLACEMENT_3D('',#1636,#1107,#1108);
#976=AXIS2_PLACEMENT_3D('',#1639,#1110,#1111);
#977=AXIS2_PLACEMENT_3D('',#1644,#1113,#1114);
#978=AXIS2_PLACEMENT_3D('',#1647,#1116,#1117);
#979=AXIS2_PLACEMENT_3D('',#1652,#1119,#1120);
#980=AXIS2_PLACEMENT_3D('',#1655,#1122,#1123);
#981=AXIS2_PLACEMENT_3D('',#1660,#1125,#1126);
#982=AXIS2_PLACEMENT_3D('',#1702,#1128,#1129);
#983=AXIS2_PLACEMENT_3D('',#1703,#1130,#1131);
#984=AXIS2_PLACEMENT_3D('',#1705,#1132,#1133);
#985=AXIS2_PLACEMENT_3D('',#1706,#1134,#1135);
#986=AXIS2_PLACEMENT_3D('',#1709,#1138,#1139);
#987=AXIS2_PLACEMENT_3D('',#1711,#1141,#1142);
#988=AXIS2_PLACEMENT_3D('',#1713,#1144,#1145);
#989=AXIS2_PLACEMENT_3D('',#1714,#1146,#1147);
#990=AXIS2_PLACEMENT_3D('',#1717,#1150,#1151);
#991=AXIS2_PLACEMENT_3D('',#1719,#1153,#1154);
#992=AXIS2_PLACEMENT_3D('',#1721,#1156,#1157);
#993=AXIS2_PLACEMENT_3D('',#1722,#1158,#1159);
#994=AXIS2_PLACEMENT_3D('',#1726,#1162,#1163);
#995=AXIS2_PLACEMENT_3D('',#1728,#1165,#1166);
#996=AXIS2_PLACEMENT_3D('',#1729,#1167,#1168);
#997=AXIS2_PLACEMENT_3D('',#1733,#1171,#1172);
#998=AXIS2_PLACEMENT_3D('',#1735,#1174,#1175);
#999=AXIS2_PLACEMENT_3D('',#1736,#1176,#1177);
#1000=AXIS2_PLACEMENT_3D('',#1740,#1180,#1181);
#1001=AXIS2_PLACEMENT_3D('',#1742,#1183,#1184);
#1002=AXIS2_PLACEMENT_3D('',#1743,#1185,#1186);
#1003=AXIS2_PLACEMENT_3D('',#1747,#1189,#1190);
#1004=AXIS2_PLACEMENT_3D('',#1749,#1192,#1193);
#1005=AXIS2_PLACEMENT_3D('',#1750,#1194,#1195);
#1006=AXIS2_PLACEMENT_3D('',#1753,#1198,#1199);
#1007=AXIS2_PLACEMENT_3D('',#1755,#1201,#1202);
#1008=AXIS2_PLACEMENT_3D('',#1757,#1204,#1205);
#1009=AXIS2_PLACEMENT_3D('',#1758,#1206,#1207);
#1010=AXIS2_PLACEMENT_3D('',#1761,#1210,#1211);
#1011=AXIS2_PLACEMENT_3D('',#1763,#1213,#1214);
#1012=AXIS2_PLACEMENT_3D('',#1765,#1216,#1217);
#1013=AXIS2_PLACEMENT_3D('',#1766,#1218,#1219);
#1014=AXIS2_PLACEMENT_3D('',#1770,#1222,#1223);
#1015=AXIS2_PLACEMENT_3D('',#1772,#1225,#1226);
#1016=AXIS2_PLACEMENT_3D('',#1773,#1227,#1228);
#1017=AXIS2_PLACEMENT_3D('',#1777,#1231,#1232);
#1018=AXIS2_PLACEMENT_3D('',#1779,#1234,#1235);
#1019=AXIS2_PLACEMENT_3D('',#1780,#1236,#1237);
#1020=AXIS2_PLACEMENT_3D('',#1784,#1240,#1241);
#1021=AXIS2_PLACEMENT_3D('',#1786,#1243,#1244);
#1022=AXIS2_PLACEMENT_3D('',#1787,#1245,#1246);
#1023=AXIS2_PLACEMENT_3D('',#1791,#1249,#1250);
#1024=AXIS2_PLACEMENT_3D('',#1793,#1252,#1253);
#1025=AXIS2_PLACEMENT_3D('',#1794,#1254,#1255);
#1026=AXIS2_PLACEMENT_3D('',#1795,#1256,#1257);
#1027=AXIS2_PLACEMENT_3D('',#1798,#1260,#1261);
#1028=AXIS2_PLACEMENT_3D('',#1801,#1264,#1265);
#1029=AXIS2_PLACEMENT_3D('',#1802,#1266,#1267);
#1030=AXIS2_PLACEMENT_3D('',#1803,#1268,#1269);
#1031=AXIS2_PLACEMENT_3D('',#1804,#1270,#1271);
#1032=DIRECTION('',(0.,0.,1.));
#1033=DIRECTION('',(1.,0.,0.));
#1034=DIRECTION('',(0.,0.,-1.));
#1035=DIRECTION('',(-1.,0.,0.));
#1036=DIRECTION('',(0.,0.,-1.));
#1037=DIRECTION('',(-1.,0.,0.));
#1038=DIRECTION('',(0.,0.,-1.));
#1039=DIRECTION('',(-1.,0.,0.));
#1040=DIRECTION('',(0.,0.,-1.));
#1041=DIRECTION('',(-1.,0.,0.));
#1042=DIRECTION('',(0.,0.,-1.));
#1043=DIRECTION('',(-1.,0.,0.));
#1044=DIRECTION('',(0.,0.,-1.));
#1045=DIRECTION('',(-1.,0.,0.));
#1046=DIRECTION('',(0.,0.,-1.));
#1047=DIRECTION('',(-1.,0.,0.));
#1048=DIRECTION('',(0.,0.,-1.));
#1049=DIRECTION('',(-1.,0.,0.));
#1050=DIRECTION('',(0.,0.,-1.));
#1051=DIRECTION('',(-1.,0.,0.));
#1052=DIRECTION('',(0.,0.,-1.));
#1053=DIRECTION('',(-1.,0.,0.));
#1054=DIRECTION('',(0.,0.,-1.));
#1055=DIRECTION('',(-1.,0.,0.));
#1056=DIRECTION('',(0.,0.,-1.));
#1057=DIRECTION('',(-1.,0.,0.));
#1058=DIRECTION('',(0.,0.,-1.));
#1059=DIRECTION('',(-1.,0.,0.));
#1060=DIRECTION('',(0.,1.,0.));
#1061=DIRECTION('',(0.,0.,-1.));
#1062=DIRECTION('',(-1.,0.,0.));
#1063=DIRECTION('',(0.,1.,0.));
#1064=DIRECTION('',(0.,0.,-1.));
#1065=DIRECTION('',(-1.,0.,0.));
#1066=DIRECTION('',(0.,1.,0.));
#1067=DIRECTION('',(0.,0.,-1.));
#1068=DIRECTION('',(-1.,0.,0.));
#1069=DIRECTION('',(0.,1.,0.));
#1070=DIRECTION('',(0.,0.,-1.));
#1071=DIRECTION('',(-1.,0.,0.));
#1072=DIRECTION('',(0.,0.,-1.));
#1073=DIRECTION('',(-1.,0.,0.));
#1074=DIRECTION('',(0.,0.,-1.));
#1075=DIRECTION('',(-1.,0.,0.));
#1076=DIRECTION('',(0.,0.,-1.));
#1077=DIRECTION('',(-1.,0.,0.));
#1078=DIRECTION('',(0.,0.,-1.));
#1079=DIRECTION('',(0.,0.,-1.));
#1080=DIRECTION('',(-1.,0.,0.));
#1081=DIRECTION('',(0.,0.,-1.));
#1082=DIRECTION('',(0.,0.,-1.));
#1083=DIRECTION('',(-1.,0.,0.));
#1084=DIRECTION('',(0.,0.,-1.));
#1085=DIRECTION('',(0.,0.,-1.));
#1086=DIRECTION('',(-1.,0.,0.));
#1087=DIRECTION('',(0.,0.,-1.));
#1088=DIRECTION('',(0.,0.,-1.));
#1089=DIRECTION('',(-1.,0.,0.));
#1090=DIRECTION('',(0.,0.,-1.));
#1091=DIRECTION('',(0.,0.,-1.));
#1092=DIRECTION('',(-1.,0.,0.));
#1093=DIRECTION('',(0.,0.,-1.));
#1094=DIRECTION('',(0.,0.,-1.));
#1095=DIRECTION('',(-1.,0.,0.));
#1096=DIRECTION('',(0.,0.,-1.));
#1097=DIRECTION('',(0.,0.,-1.));
#1098=DIRECTION('',(-1.,0.,0.));
#1099=DIRECTION('',(0.,0.,-1.));
#1100=DIRECTION('',(0.,0.,-1.));
#1101=DIRECTION('',(-1.,0.,0.));
#1102=DIRECTION('',(0.,0.,-1.));
#1103=DIRECTION('',(-1.,0.,0.));
#1104=DIRECTION('',(0.,0.,-1.));
#1105=DIRECTION('',(-1.,0.,0.));
#1106=DIRECTION('',(0.,0.,-1.));
#1107=DIRECTION('',(0.,0.,-1.));
#1108=DIRECTION('',(-1.,0.,0.));
#1109=DIRECTION('',(0.,0.,-1.));
#1110=DIRECTION('',(0.,0.,-1.));
#1111=DIRECTION('',(-1.,0.,0.));
#1112=DIRECTION('',(0.,0.,-1.));
#1113=DIRECTION('',(0.,0.,-1.));
#1114=DIRECTION('',(-1.,0.,0.));
#1115=DIRECTION('',(0.,0.,-1.));
#1116=DIRECTION('',(0.,0.,-1.));
#1117=DIRECTION('',(-1.,0.,0.));
#1118=DIRECTION('',(0.,0.,-1.));
#1119=DIRECTION('',(0.,0.,-1.));
#1120=DIRECTION('',(-1.,0.,0.));
#1121=DIRECTION('',(0.,0.,-1.));
#1122=DIRECTION('',(0.,0.,-1.));
#1123=DIRECTION('',(-1.,0.,0.));
#1124=DIRECTION('',(0.,0.,-1.));
#1125=DIRECTION('',(0.,0.,-1.));
#1126=DIRECTION('',(-1.,0.,0.));
#1127=DIRECTION('',(0.,0.,-1.));
#1128=DIRECTION('',(0.,0.,-1.));
#1129=DIRECTION('',(-1.,0.,0.));
#1130=DIRECTION('',(0.,0.,-1.));
#1131=DIRECTION('',(-1.,0.,0.));
#1132=DIRECTION('',(0.,0.,1.));
#1133=DIRECTION('',(1.,0.,0.));
#1134=DIRECTION('',(0.,1.,0.));
#1135=DIRECTION('',(0.,0.,1.));
#1136=DIRECTION('',(1.,0.,0.));
#1137=DIRECTION('',(1.,0.,0.));
#1138=DIRECTION('',(0.,0.,-1.));
#1139=DIRECTION('',(-1.,0.,0.));
#1140=DIRECTION('',(1.,0.,0.));
#1141=DIRECTION('',(0.,1.,0.));
#1142=DIRECTION('',(0.,0.,1.));
#1143=DIRECTION('',(1.,0.,0.));
#1144=DIRECTION('',(0.,0.,-1.));
#1145=DIRECTION('',(-1.,0.,0.));
#1146=DIRECTION('',(0.,1.,0.));
#1147=DIRECTION('',(0.,0.,1.));
#1148=DIRECTION('',(1.,0.,0.));
#1149=DIRECTION('',(1.,0.,0.));
#1150=DIRECTION('',(0.,0.,-1.));
#1151=DIRECTION('',(-1.,0.,0.));
#1152=DIRECTION('',(1.,0.,0.));
#1153=DIRECTION('',(0.,1.,0.));
#1154=DIRECTION('',(0.,0.,1.));
#1155=DIRECTION('',(1.,0.,0.));
#1156=DIRECTION('',(0.,0.,-1.));
#1157=DIRECTION('',(-1.,0.,0.));
#1158=DIRECTION('',(0.,0.,-1.));
#1159=DIRECTION('',(-1.,0.,0.));
#1160=DIRECTION('',(1.,0.,0.));
#1161=DIRECTION('',(0.,1.,0.));
#1162=DIRECTION('',(0.,1.,0.));
#1163=DIRECTION('',(0.,0.,1.));
#1164=DIRECTION('',(0.,0.,1.));
#1165=DIRECTION('',(1.,0.,0.));
#1166=DIRECTION('',(0.,1.,0.));
#1167=DIRECTION('',(1.,0.,0.));
#1168=DIRECTION('',(0.,1.,0.));
#1169=DIRECTION('',(0.,0.,1.));
#1170=DIRECTION('',(0.,1.,0.));
#1171=DIRECTION('',(0.,1.,0.));
#1172=DIRECTION('',(0.,0.,1.));
#1173=DIRECTION('',(1.,0.,0.));
#1174=DIRECTION('',(0.,0.,-1.));
#1175=DIRECTION('',(-1.,0.,0.));
#1176=DIRECTION('',(1.,0.,0.));
#1177=DIRECTION('',(0.,1.,0.));
#1178=DIRECTION('',(0.,0.,1.));
#1179=DIRECTION('',(0.,1.,0.));
#1180=DIRECTION('',(0.,0.,-1.));
#1181=DIRECTION('',(-1.,0.,0.));
#1182=DIRECTION('',(1.,0.,0.));
#1183=DIRECTION('',(0.,1.,0.));
#1184=DIRECTION('',(0.,0.,1.));
#1185=DIRECTION('',(1.,0.,0.));
#1186=DIRECTION('',(0.,1.,0.));
#1187=DIRECTION('',(0.,1.,0.));
#1188=DIRECTION('',(0.,0.,1.));
#1189=DIRECTION('',(0.,0.,-1.));
#1190=DIRECTION('',(-1.,0.,0.));
#1191=DIRECTION('',(1.,0.,0.));
#1192=DIRECTION('',(0.,1.,0.));
#1193=DIRECTION('',(0.,0.,1.));
#1194=DIRECTION('',(1.,0.,0.));
#1195=DIRECTION('',(0.,0.,-1.));
#1196=DIRECTION('',(0.,-1.,0.));
#1197=DIRECTION('',(0.,-1.,0.));
#1198=DIRECTION('',(0.,0.,-1.));
#1199=DIRECTION('',(-1.,0.,0.));
#1200=DIRECTION('',(0.,-1.,0.));
#1201=DIRECTION('',(1.,0.,0.));
#1202=DIRECTION('',(0.,0.,-1.));
#1203=DIRECTION('',(0.,-1.,0.));
#1204=DIRECTION('',(0.,0.,-1.));
#1205=DIRECTION('',(-1.,0.,0.));
#1206=DIRECTION('',(1.,0.,0.));
#1207=DIRECTION('',(0.,0.,-1.));
#1208=DIRECTION('',(0.,-1.,0.));
#1209=DIRECTION('',(0.,-1.,0.));
#1210=DIRECTION('',(0.,0.,-1.));
#1211=DIRECTION('',(-1.,0.,0.));
#1212=DIRECTION('',(0.,-1.,0.));
#1213=DIRECTION('',(1.,0.,0.));
#1214=DIRECTION('',(0.,0.,-1.));
#1215=DIRECTION('',(0.,-1.,0.));
#1216=DIRECTION('',(0.,0.,-1.));
#1217=DIRECTION('',(-1.,0.,0.));
#1218=DIRECTION('',(0.,0.,-1.));
#1219=DIRECTION('',(-1.,0.,0.));
#1220=DIRECTION('',(0.,-1.,0.));
#1221=DIRECTION('',(1.,0.,0.));
#1222=DIRECTION('',(1.,0.,0.));
#1223=DIRECTION('',(0.,0.,-1.));
#1224=DIRECTION('',(0.,0.,1.));
#1225=DIRECTION('',(0.,-1.,0.));
#1226=DIRECTION('',(1.,0.,0.));
#1227=DIRECTION('',(0.,-1.,0.));
#1228=DIRECTION('',(1.,0.,0.));
#1229=DIRECTION('',(0.,0.,1.));
#1230=DIRECTION('',(1.,0.,0.));
#1231=DIRECTION('',(1.,0.,0.));
#1232=DIRECTION('',(0.,0.,-1.));
#1233=DIRECTION('',(0.,-1.,0.));
#1234=DIRECTION('',(0.,0.,-1.));
#1235=DIRECTION('',(-1.,0.,0.));
#1236=DIRECTION('',(0.,-1.,0.));
#1237=DIRECTION('',(1.,0.,0.));
#1238=DIRECTION('',(0.,0.,1.));
#1239=DIRECTION('',(1.,0.,0.));
#1240=DIRECTION('',(0.,0.,-1.));
#1241=DIRECTION('',(-1.,0.,0.));
#1242=DIRECTION('',(0.,-1.,0.));
#1243=DIRECTION('',(1.,0.,0.));
#1244=DIRECTION('',(0.,0.,-1.));
#1245=DIRECTION('',(0.,-1.,0.));
#1246=DIRECTION('',(1.,0.,0.));
#1247=DIRECTION('',(1.,0.,0.));
#1248=DIRECTION('',(0.,0.,1.));
#1249=DIRECTION('',(0.,0.,-1.));
#1250=DIRECTION('',(-1.,0.,0.));
#1251=DIRECTION('',(0.,-1.,0.));
#1252=DIRECTION('',(1.,0.,0.));
#1253=DIRECTION('',(0.,0.,-1.));
#1254=DIRECTION('',(0.,1.,0.));
#1255=DIRECTION('',(0.,0.,1.));
#1256=DIRECTION('',(0.,1.,0.));
#1257=DIRECTION('',(0.,0.,1.));
#1258=DIRECTION('',(0.,1.,0.));
#1259=DIRECTION('',(0.,1.,0.));
#1260=DIRECTION('',(0.,1.,0.));
#1261=DIRECTION('',(0.,0.,1.));
#1262=DIRECTION('',(0.,1.,0.));
#1263=DIRECTION('',(0.,1.,0.));
#1264=DIRECTION('',(0.,1.,0.));
#1265=DIRECTION('',(0.,0.,1.));
#1266=DIRECTION('',(0.,1.,0.));
#1267=DIRECTION('',(0.,0.,1.));
#1268=DIRECTION('',(0.,1.,0.));
#1269=DIRECTION('',(0.,0.,1.));
#1270=DIRECTION('',(0.,1.,0.));
#1271=DIRECTION('',(0.,0.,1.));
#1272=CARTESIAN_POINT('',(0.,0.,0.));
#1273=CARTESIAN_POINT('',(0.,0.,0.));
#1274=CARTESIAN_POINT('',(0.,0.,0.04445));
#1275=CARTESIAN_POINT('',(-0.01143,-0.0189679679101538,0.04445));
#1276=CARTESIAN_POINT('',(-0.00989511812161054,-0.019812,0.04445));
#1277=CARTESIAN_POINT('',(-0.01143,-0.019812,0.043526734635961));
#1278=CARTESIAN_POINT('',(-0.01143,-0.0195314620875885,0.0438353033928766));
#1279=CARTESIAN_POINT('',(-0.01143,-0.0192501494014239,0.0441430901503262));
#1280=CARTESIAN_POINT('',(-0.01143,-0.0189679679101538,0.04445));
#1281=CARTESIAN_POINT('',(-0.01143,-0.019812,0.0435267346359609));
#1282=CARTESIAN_POINT('',(-0.01143,-0.019812,0.0435267346359609));
#1283=CARTESIAN_POINT('',(-0.0109240685858638,-0.019812,0.0438477826201763));
#1284=CARTESIAN_POINT('',(-0.0104127645163867,-0.019812,0.0441562920699623));
#1285=CARTESIAN_POINT('',(-0.00989511812161054,-0.019812,0.04445));
#1286=CARTESIAN_POINT('',(0.00989511812161054,-0.019812,0.04445));
#1287=CARTESIAN_POINT('',(0.0104141072177108,-0.019812,0.0441555302332519));
#1288=CARTESIAN_POINT('',(0.0109253041915806,-0.019812,0.0438469985440871));
#1289=CARTESIAN_POINT('',(0.01143,-0.019812,0.0435267346359611));
#1290=CARTESIAN_POINT('',(0.00989511812161055,-0.019812,0.04445));
#1291=CARTESIAN_POINT('',(0.01143,-0.019812,0.0435267346359609));
#1292=CARTESIAN_POINT('',(0.01143,-0.019812,0.043526734635961));
#1293=CARTESIAN_POINT('',(0.01143,-0.0195314620875885,0.0438353033928766));
#1294=CARTESIAN_POINT('',(0.01143,-0.0192501494014239,0.0441430901503262));
#1295=CARTESIAN_POINT('',(0.01143,-0.0189679679101538,0.04445));
#1296=CARTESIAN_POINT('',(0.01143,-0.0189679679101538,0.04445));
#1297=CARTESIAN_POINT('',(0.,0.,0.04445));
#1298=CARTESIAN_POINT('',(0.,0.,0.04445));
#1299=CARTESIAN_POINT('',(0.0189679679101538,-0.01143,0.04445));
#1300=CARTESIAN_POINT('',(0.019812,-0.00989511812161054,0.04445));
#1301=CARTESIAN_POINT('',(0.019812,-0.01143,0.043526734635961));
#1302=CARTESIAN_POINT('',(0.0195314620875885,-0.01143,0.0438353033928766));
#1303=CARTESIAN_POINT('',(0.0192501494014239,-0.01143,0.0441430901503262));
#1304=CARTESIAN_POINT('',(0.0189679679101538,-0.01143,0.04445));
#1305=CARTESIAN_POINT('',(0.019812,-0.01143,0.0435267346359609));
#1306=CARTESIAN_POINT('',(0.019812,-0.01143,0.0435267346359609));
#1307=CARTESIAN_POINT('',(0.019812,-0.0109240685858638,0.0438477826201763));
#1308=CARTESIAN_POINT('',(0.019812,-0.0104127645163867,0.0441562920699623));
#1309=CARTESIAN_POINT('',(0.019812,-0.00989511812161054,0.04445));
#1310=CARTESIAN_POINT('',(0.019812,0.00989511812161054,0.04445));
#1311=CARTESIAN_POINT('',(0.019812,0.0104141072177108,0.0441555302332519));
#1312=CARTESIAN_POINT('',(0.019812,0.0109253041915806,0.0438469985440871));
#1313=CARTESIAN_POINT('',(0.019812,0.01143,0.0435267346359611));
#1314=CARTESIAN_POINT('',(0.019812,0.00989511812161055,0.04445));
#1315=CARTESIAN_POINT('',(0.019812,0.01143,0.0435267346359609));
#1316=CARTESIAN_POINT('',(0.019812,0.01143,0.043526734635961));
#1317=CARTESIAN_POINT('',(0.0195314620875885,0.01143,0.0438353033928766));
#1318=CARTESIAN_POINT('',(0.0192501494014239,0.01143,0.0441430901503262));
#1319=CARTESIAN_POINT('',(0.0189679679101538,0.01143,0.04445));
#1320=CARTESIAN_POINT('',(0.0189679679101538,0.01143,0.04445));
#1321=CARTESIAN_POINT('',(0.,0.,0.04445));
#1322=CARTESIAN_POINT('',(0.,0.,0.0475746031746032));
#1323=CARTESIAN_POINT('',(-0.019685,0.,0.0475746031746032));
#1324=CARTESIAN_POINT('',(0.,0.,0.04445));
#1325=CARTESIAN_POINT('',(-0.0189679679101538,0.01143,0.04445));
#1326=CARTESIAN_POINT('',(-0.019812,0.00989511812161054,0.04445));
#1327=CARTESIAN_POINT('',(-0.0189679679101538,0.01143,0.04445));
#1328=CARTESIAN_POINT('',(-0.0192501578588171,0.01143,0.0441430809517878));
#1329=CARTESIAN_POINT('',(-0.0195314701805528,0.01143,0.0438352944912778));
#1330=CARTESIAN_POINT('',(-0.019812,0.01143,0.043526734635961));
#1331=CARTESIAN_POINT('',(-0.019812,0.01143,0.0435267346359609));
#1332=CARTESIAN_POINT('',(-0.019812,0.00989511812161053,0.04445));
#1333=CARTESIAN_POINT('',(-0.019812,0.0104141072177108,0.0441555302332519));
#1334=CARTESIAN_POINT('',(-0.019812,0.0109253041915806,0.0438469985440871));
#1335=CARTESIAN_POINT('',(-0.019812,0.0114300000000001,0.043526734635961));
#1336=CARTESIAN_POINT('',(0.,0.,0.04445));
#1337=CARTESIAN_POINT('',(-0.019812,-0.00989511812161054,0.04445));
#1338=CARTESIAN_POINT('',(-0.0189679679101538,-0.01143,0.04445));
#1339=CARTESIAN_POINT('',(-0.019812,-0.01143,0.0435267346359609));
#1340=CARTESIAN_POINT('',(-0.019812,-0.0109240685858638,0.0438477826201763));
#1341=CARTESIAN_POINT('',(-0.019812,-0.0104127645163867,0.0441562920699623));
#1342=CARTESIAN_POINT('',(-0.019812,-0.00989511812161054,0.04445));
#1343=CARTESIAN_POINT('',(-0.019812,-0.01143,0.0435267346359609));
#1344=CARTESIAN_POINT('',(-0.0189679679101538,-0.01143,0.04445));
#1345=CARTESIAN_POINT('',(-0.0192501578588171,-0.01143,0.0441430809517878));
#1346=CARTESIAN_POINT('',(-0.0195314701805528,-0.01143,0.0438352944912778));
#1347=CARTESIAN_POINT('',(-0.019812,-0.01143,0.043526734635961));
#1348=CARTESIAN_POINT('',(0.,0.,0.04445));
#1349=CARTESIAN_POINT('',(0.01143,0.0189679679101538,0.04445));
#1350=CARTESIAN_POINT('',(0.00989511812161054,0.019812,0.04445));
#1351=CARTESIAN_POINT('',(0.01143,0.0189679679101538,0.04445));
#1352=CARTESIAN_POINT('',(0.01143,0.0192501578588171,0.0441430809517878));
#1353=CARTESIAN_POINT('',(0.01143,0.0195314701805528,0.0438352944912778));
#1354=CARTESIAN_POINT('',(0.01143,0.019812,0.043526734635961));
#1355=CARTESIAN_POINT('',(0.01143,0.019812,0.0435267346359609));
#1356=CARTESIAN_POINT('',(0.00989511812161053,0.019812,0.04445));
#1357=CARTESIAN_POINT('',(0.0104141072177108,0.019812,0.0441555302332519));
#1358=CARTESIAN_POINT('',(0.0109253041915806,0.019812,0.0438469985440871));
#1359=CARTESIAN_POINT('',(0.0114300000000001,0.019812,0.043526734635961));
#1360=CARTESIAN_POINT('',(0.,0.,0.04445));
#1361=CARTESIAN_POINT('',(-0.00989511812161054,0.019812,0.04445));
#1362=CARTESIAN_POINT('',(-0.01143,0.0189679679101538,0.04445));
#1363=CARTESIAN_POINT('',(-0.01143,0.019812,0.0435267346359609));
#1364=CARTESIAN_POINT('',(-0.0109240685858638,0.019812,0.0438477826201763));
#1365=CARTESIAN_POINT('',(-0.0104127645163867,0.019812,0.0441562920699623));
#1366=CARTESIAN_POINT('',(-0.00989511812161054,0.019812,0.04445));
#1367=CARTESIAN_POINT('',(-0.01143,0.019812,0.0435267346359609));
#1368=CARTESIAN_POINT('',(-0.01143,0.0189679679101538,0.04445));
#1369=CARTESIAN_POINT('',(-0.01143,0.0192501578588171,0.0441430809517878));
#1370=CARTESIAN_POINT('',(-0.01143,0.0195314701805528,0.0438352944912778));
#1371=CARTESIAN_POINT('',(-0.01143,0.019812,0.043526734635961));
#1372=CARTESIAN_POINT('',(-0.0421001273709919,-0.029417827956887,0.00735263157894736));
#1373=CARTESIAN_POINT('',(-0.0408718218427891,-0.0290049318682108,0.00893149155736414));
#1374=CARTESIAN_POINT('',(-0.0388729649980282,-0.0287050889987858,0.0112271587766752));
#1375=CARTESIAN_POINT('',(-0.035885029371789,-0.0288630276259331,0.014104387651639));
#1376=CARTESIAN_POINT('',(-0.0328026761754358,-0.0293139684747962,0.0167456587715508));
#1377=CARTESIAN_POINT('',(-0.0287229906923914,-0.0302807697670436,0.0196806436503626));
#1378=CARTESIAN_POINT('',(-0.0234707525805384,-0.0317053775606602,0.0226224949688922));
#1379=CARTESIAN_POINT('',(-0.0180013297022362,-0.03307306134565,0.0249275158570945));
#1380=CARTESIAN_POINT('',(-0.0122327614258655,-0.0342133593667816,0.0266383242930708));
#1381=CARTESIAN_POINT('',(-0.00616177688840653,-0.0349710019393221,0.0277003906726528));
#1382=CARTESIAN_POINT('',(-8.8421682699276E-5,-0.0352339236591155,0.02805781210443));
#1383=CARTESIAN_POINT('',(0.00611297278519222,-0.0349766186382894,0.0277081078179269));
#1384=CARTESIAN_POINT('',(0.0121037108320241,-0.0342325097024248,0.0266653295608527));
#1385=CARTESIAN_POINT('',(0.0179073305431065,-0.0330962375277359,0.0249656395454472));
#1386=CARTESIAN_POINT('',(0.0234639453796983,-0.0317075070499598,0.0226254399214855));
#1387=CARTESIAN_POINT('',(0.0286548589749126,-0.0302983689739587,0.0197232734440385));
#1388=CARTESIAN_POINT('',(0.0336111261654768,-0.0291211952377728,0.0161677445789119));
#1389=CARTESIAN_POINT('',(0.0381448006384287,-0.0286041294485373,0.012055879735471));
#1390=CARTESIAN_POINT('',(0.0408753849602785,-0.0290061296135934,0.00892691153759451));
#1391=CARTESIAN_POINT('',(0.0421001273709919,-0.029417827956887,0.00735263157894736));
#1392=CARTESIAN_POINT('',(-0.0421001273709919,-0.029417827956887,0.00735263157894737));
#1393=CARTESIAN_POINT('',(0.0421001273709919,-0.029417827956887,0.00735263157894735));
#1394=CARTESIAN_POINT('',(-0.0421001273709919,-0.029417827956887,0.00735263157894737));
#1395=CARTESIAN_POINT('',(-0.0425708499145366,-0.0295760617941683,0.00674756633428575));
#1396=CARTESIAN_POINT('',(-0.043592377712427,-0.0297116245460569,0.00558505554076637));
#1397=CARTESIAN_POINT('',(-0.0453288084721609,-0.0292979870277363,0.00404394649010986));
#1398=CARTESIAN_POINT('',(-0.0470781462015997,-0.0283056099288029,0.00283039242084182));
#1399=CARTESIAN_POINT('',(-0.0492528748835315,-0.0264172683273375,0.00163924565759046));
#1400=CARTESIAN_POINT('',(-0.0515372323589962,-0.0233806912824866,0.000786084203149177));
#1401=CARTESIAN_POINT('',(-0.0536189001268242,-0.0192707399092605,0.000298431131672968));
#1402=CARTESIAN_POINT('',(-0.0551596389269694,-0.0149251616427489,8.79454719011347E-5));
#1403=CARTESIAN_POINT('',(-0.0566024129197514,-0.00892388642571238,-8.94963266117256E-6));
#1404=CARTESIAN_POINT('',(-0.0570672835487578,-0.00435639953515064,2.28181339267399E-18));
#1405=CARTESIAN_POINT('',(-0.0571358871463461,-0.00126999999999986,2.28181339267399E-18));
#1406=CARTESIAN_POINT('',(-0.0571358871463461,-0.00126999999999987,0.));
#1407=CARTESIAN_POINT('',(0.,0.,0.));
#1408=CARTESIAN_POINT('',(-0.0571358871463461,0.00126999999999987,0.));
#1409=CARTESIAN_POINT('',(-0.0571358871463461,0.00126999999999987,0.));
#1410=CARTESIAN_POINT('',(-0.0570672198099841,0.00435926707166886,0.));
#1411=CARTESIAN_POINT('',(-0.0565983815137352,0.00892223237210755,-8.31216732952144E-6));
#1412=CARTESIAN_POINT('',(-0.0551835739802499,0.0148378538316051,8.6015525859025E-5));
#1413=CARTESIAN_POINT('',(-0.0536516154185557,0.0191987159472196,0.000291988833150132));
#1414=CARTESIAN_POINT('',(-0.0515511983862142,0.0233610582269302,0.000781370817542945));
#1415=CARTESIAN_POINT('',(-0.0492661573495773,0.0264029909898295,0.00163295704994287));
#1416=CARTESIAN_POINT('',(-0.0470859409537569,0.0283005076679695,0.00282558183564045));
#1417=CARTESIAN_POINT('',(-0.0447442768621425,0.0296318552011206,0.00444708602708061));
#1418=CARTESIAN_POINT('',(-0.043043766575158,0.0297350331860223,0.00613968077858518));
#1419=CARTESIAN_POINT('',(-0.0421001273709919,0.029417827956887,0.00735263157894737));
#1420=CARTESIAN_POINT('',(-0.0421001273709919,0.029417827956887,0.00735263157894734));
#1421=CARTESIAN_POINT('',(0.0421001273709919,0.029417827956887,0.00735263157894736));
#1422=CARTESIAN_POINT('',(0.0408718218427891,0.0290049318682108,0.00893149155736414));
#1423=CARTESIAN_POINT('',(0.0388729649980282,0.0287050889987858,0.0112271587766752));
#1424=CARTESIAN_POINT('',(0.035885029371789,0.0288630276259331,0.014104387651639));
#1425=CARTESIAN_POINT('',(0.0328026761754358,0.0293139684747962,0.0167456587715508));
#1426=CARTESIAN_POINT('',(0.0287229906923914,0.0302807697670436,0.0196806436503626));
#1427=CARTESIAN_POINT('',(0.0234707525805384,0.0317053775606602,0.0226224949688922));
#1428=CARTESIAN_POINT('',(0.0180013297022362,0.03307306134565,0.0249275158570945));
#1429=CARTESIAN_POINT('',(0.0122327614258655,0.0342133593667816,0.0266383242930708));
#1430=CARTESIAN_POINT('',(0.00616177688840654,0.0349710019393221,0.0277003906726528));
#1431=CARTESIAN_POINT('',(8.842168269923E-5,0.0352339236591156,0.02805781210443));
#1432=CARTESIAN_POINT('',(-0.0061129727851922,0.0349766186382894,0.0277081078179269));
#1433=CARTESIAN_POINT('',(-0.0121037108320241,0.0342325097024248,0.0266653295608527));
#1434=CARTESIAN_POINT('',(-0.0179073305431067,0.0330962375277359,0.0249656395454472));
#1435=CARTESIAN_POINT('',(-0.0234639453796983,0.0317075070499598,0.0226254399214855));
#1436=CARTESIAN_POINT('',(-0.0286548589749125,0.0302983689739587,0.0197232734440386));
#1437=CARTESIAN_POINT('',(-0.0336111261654767,0.0291211952377728,0.0161677445789119));
#1438=CARTESIAN_POINT('',(-0.0381448006384288,0.0286041294485373,0.0120558797354708));
#1439=CARTESIAN_POINT('',(-0.0408753849602785,0.0290061296135934,0.0089269115375945));
#1440=CARTESIAN_POINT('',(-0.0421001273709919,0.029417827956887,0.00735263157894734));
#1441=CARTESIAN_POINT('',(0.0421001273709919,0.029417827956887,0.00735263157894737));
#1442=CARTESIAN_POINT('',(0.0421001273709919,0.029417827956887,0.00735263157894737));
#1443=CARTESIAN_POINT('',(0.0425708499145366,0.0295760617941683,0.00674756633428575));
#1444=CARTESIAN_POINT('',(0.043592377712427,0.0297116245460569,0.00558505554076637));
#1445=CARTESIAN_POINT('',(0.0453288084721609,0.0292979870277363,0.00404394649010986));
#1446=CARTESIAN_POINT('',(0.0470781462015997,0.0283056099288029,0.00283039242084183));
#1447=CARTESIAN_POINT('',(0.0492528748835315,0.0264172683273375,0.00163924565759045));
#1448=CARTESIAN_POINT('',(0.0515372323589962,0.0233806912824866,0.00078608420314918));
#1449=CARTESIAN_POINT('',(0.0536189001268242,0.0192707399092605,0.000298431131672972));
#1450=CARTESIAN_POINT('',(0.0551596389269694,0.0149251616427489,8.79454719011324E-5));
#1451=CARTESIAN_POINT('',(0.0566024129197513,0.00892388642571239,-8.94963266117075E-6));
#1452=CARTESIAN_POINT('',(0.0570672835487578,0.00435639953515065,2.18695893744607E-18));
#1453=CARTESIAN_POINT('',(0.0571358871463461,0.00126999999999987,2.18695893744607E-18));
#1454=CARTESIAN_POINT('',(0.0571358871463461,0.00126999999999987,0.));
#1455=CARTESIAN_POINT('',(0.,0.,0.));
#1456=CARTESIAN_POINT('',(0.0571358871463461,-0.00126999999999987,0.));
#1457=CARTESIAN_POINT('',(0.0571358871463461,-0.00126999999999987,0.));
#1458=CARTESIAN_POINT('',(0.0570672198099841,-0.00435926707166886,0.));
#1459=CARTESIAN_POINT('',(0.0565983815137352,-0.00892223237210755,-8.31216732952156E-6));
#1460=CARTESIAN_POINT('',(0.0551835739802499,-0.0148378538316051,8.60155258590253E-5));
#1461=CARTESIAN_POINT('',(0.0536516154185557,-0.0191987159472196,0.000291988833150131));
#1462=CARTESIAN_POINT('',(0.0515511983862143,-0.0233610582269302,0.000781370817542948));
#1463=CARTESIAN_POINT('',(0.0492661573495773,-0.0264029909898295,0.00163295704994286));
#1464=CARTESIAN_POINT('',(0.0470859409537569,-0.0283005076679696,0.00282558183564046));
#1465=CARTESIAN_POINT('',(0.0447442768621425,-0.0296318552011206,0.0044470860270806));
#1466=CARTESIAN_POINT('',(0.043043766575158,-0.0297350331860223,0.00613968077858517));
#1467=CARTESIAN_POINT('',(0.0421001273709919,-0.029417827956887,0.00735263157894737));
#1468=CARTESIAN_POINT('',(0.05842,0.,0.));
#1469=CARTESIAN_POINT('',(-0.0571358871463461,0.,0.));
#1470=CARTESIAN_POINT('',(-0.0571358871463461,-0.017273867546094,0.));
#1471=CARTESIAN_POINT('',(0.,0.,0.));
#1472=CARTESIAN_POINT('',(-0.0571358871463461,0.017273867546094,0.));
#1473=CARTESIAN_POINT('',(-0.0571358871463461,0.,0.));
#1474=CARTESIAN_POINT('',(0.05842,0.,0.));
#1475=CARTESIAN_POINT('',(0.0571358871463461,0.,0.));
#1476=CARTESIAN_POINT('',(0.0571358871463461,0.017273867546094,0.));
#1477=CARTESIAN_POINT('',(0.,0.,0.));
#1478=CARTESIAN_POINT('',(0.0571358871463461,-0.017273867546094,0.));
#1479=CARTESIAN_POINT('',(0.0571358871463461,0.,0.));
#1480=CARTESIAN_POINT('',(0.,0.,0.0508));
#1481=CARTESIAN_POINT('',(0.,0.,0.0508));
#1482=CARTESIAN_POINT('',(-0.019685,0.,0.0508));
#1483=CARTESIAN_POINT('',(-0.0571358871463461,-0.017273867546094,0.));
#1484=CARTESIAN_POINT('',(-0.056501970977064,-0.0193706395985426,0.));
#1485=CARTESIAN_POINT('',(-0.0553555111319554,-0.0224227064703313,4.22629717940242E-5));
#1486=CARTESIAN_POINT('',(-0.0533372909044076,-0.0262306894228389,0.000357068379151553));
#1487=CARTESIAN_POINT('',(-0.0515027697419212,-0.028947325747301,0.000811915371338395));
#1488=CARTESIAN_POINT('',(-0.0493309235620543,-0.0313460501154993,0.00161171732480229));
#1489=CARTESIAN_POINT('',(-0.0468773638881199,-0.0331683085507303,0.00290189980029172));
#1490=CARTESIAN_POINT('',(-0.0442736058623208,-0.0340744074935199,0.0048651187186377));
#1491=CARTESIAN_POINT('',(-0.0427662853789772,-0.0339032359052168,0.0064963542163853));
#1492=CARTESIAN_POINT('',(-0.0421001273709919,-0.0336566189488699,0.00735263157894737));
#1493=CARTESIAN_POINT('',(-0.0421001273709919,-0.0336566189488699,0.00735263157894738));
#1494=CARTESIAN_POINT('',(0.0421001273709919,-0.0336566189488699,0.00735263157894736));
#1495=CARTESIAN_POINT('',(0.0408757799951083,-0.0332033558795495,0.00892640376109384));
#1496=CARTESIAN_POINT('',(0.0382337108911828,-0.0326698583882087,0.0119632822792235));
#1497=CARTESIAN_POINT('',(0.0336366235014425,-0.0328573960099881,0.0161483675924457));
#1498=CARTESIAN_POINT('',(0.0287425563578849,-0.0336820644883533,0.0196678203445447));
#1499=CARTESIAN_POINT('',(0.0234493293799878,-0.0348077201373329,0.0226363739459217));
#1500=CARTESIAN_POINT('',(0.0179050817801163,-0.0359456767770074,0.0249641795668174));
#1501=CARTESIAN_POINT('',(0.0121066151591792,-0.0369047322022481,0.0266675955316485));
#1502=CARTESIAN_POINT('',(0.00605370730317445,-0.0375428254980868,0.0277120938186762));
#1503=CARTESIAN_POINT('',(2.25002280137165E-5,-0.0377593391621173,0.0280537121681718));
#1504=CARTESIAN_POINT('',(-0.00606487649458552,-0.0375433117579106,0.0277130477997872));
#1505=CARTESIAN_POINT('',(-0.0121247144369776,-0.0369015342674443,0.0266617473536608));
#1506=CARTESIAN_POINT('',(-0.0178877724875001,-0.0359490355842027,0.0249712264928747));
#1507=CARTESIAN_POINT('',(-0.0234820776322999,-0.0348008803693508,0.0226205695641036));
#1508=CARTESIAN_POINT('',(-0.0287210904112221,-0.0336867921209441,0.0196789360028636));
#1509=CARTESIAN_POINT('',(-0.0336088589399847,-0.0328607862610099,0.0161712602402105));
#1510=CARTESIAN_POINT('',(-0.0382158215230311,-0.0326678094606614,0.0119824384559533));
#1511=CARTESIAN_POINT('',(-0.0408697137029292,-0.0332011100902689,0.00893420135356494));
#1512=CARTESIAN_POINT('',(-0.0421001273709919,-0.0336566189488699,0.00735263157894735));
#1513=CARTESIAN_POINT('',(0.0421001273709919,-0.0336566189488699,0.00735263157894737));
#1514=CARTESIAN_POINT('',(0.0421001273709919,-0.0336566189488699,0.00735263157894737));
#1515=CARTESIAN_POINT('',(0.0427645377627886,-0.0339025889238999,0.00649860059661761));
#1516=CARTESIAN_POINT('',(0.0442630049548623,-0.0340723166327625,0.00487704250651737));
#1517=CARTESIAN_POINT('',(0.0468438326211695,-0.0331861134555743,0.00292336323804451));
#1518=CARTESIAN_POINT('',(0.0493086622276123,-0.0313671389759557,0.00162123051874533));
#1519=CARTESIAN_POINT('',(0.0514699068851807,-0.0289865818892669,0.000822858122518207));
#1520=CARTESIAN_POINT('',(0.0532965670866316,-0.0263003359679916,0.000364820497403832));
#1521=CARTESIAN_POINT('',(0.0553561426262619,-0.0224306287661058,4.05705073320272E-5));
#1522=CARTESIAN_POINT('',(0.056501062692209,-0.0193736438858473,3.0221473813287E-18));
#1523=CARTESIAN_POINT('',(0.0571358871463461,-0.017273867546094,3.0221473813287E-18));
#1524=CARTESIAN_POINT('',(0.0571358871463461,0.017273867546094,0.));
#1525=CARTESIAN_POINT('',(0.056501970977064,0.0193706395985426,0.));
#1526=CARTESIAN_POINT('',(0.0553555111319554,0.0224227064703313,4.22629717940212E-5));
#1527=CARTESIAN_POINT('',(0.0533372909044076,0.026230689422839,0.000357068379151557));
#1528=CARTESIAN_POINT('',(0.0515027697419212,0.028947325747301,0.000811915371338388));
#1529=CARTESIAN_POINT('',(0.0493309235620543,0.0313460501154994,0.0016117173248023));
#1530=CARTESIAN_POINT('',(0.0468773638881199,0.0331683085507303,0.00290189980029172));
#1531=CARTESIAN_POINT('',(0.0442736058623208,0.0340744074935199,0.00486511871863773));
#1532=CARTESIAN_POINT('',(0.0427662853789772,0.0339032359052168,0.0064963542163853));
#1533=CARTESIAN_POINT('',(0.0421001273709919,0.0336566189488699,0.00735263157894737));
#1534=CARTESIAN_POINT('',(0.0421001273709918,0.0336566189488699,0.00735263157894739));
#1535=CARTESIAN_POINT('',(-0.0421001273709919,0.0336566189488699,0.00735263157894735));
#1536=CARTESIAN_POINT('',(-0.0408757799951083,0.0332033558795495,0.00892640376109383));
#1537=CARTESIAN_POINT('',(-0.0382337108911828,0.0326698583882087,0.0119632822792235));
#1538=CARTESIAN_POINT('',(-0.0336366235014426,0.0328573960099881,0.0161483675924457));
#1539=CARTESIAN_POINT('',(-0.0287425563578849,0.0336820644883533,0.0196678203445447));
#1540=CARTESIAN_POINT('',(-0.0234493293799878,0.0348077201373329,0.0226363739459217));
#1541=CARTESIAN_POINT('',(-0.0179050817801163,0.0359456767770074,0.0249641795668174));
#1542=CARTESIAN_POINT('',(-0.0121066151591792,0.0369047322022481,0.0266675955316485));
#1543=CARTESIAN_POINT('',(-0.00605370730317447,0.0375428254980868,0.0277120938186762));
#1544=CARTESIAN_POINT('',(-2.2500228013721E-5,0.0377593391621173,0.0280537121681718));
#1545=CARTESIAN_POINT('',(0.00606487649458551,0.0375433117579107,0.0277130477997872));
#1546=CARTESIAN_POINT('',(0.0121247144369776,0.0369015342674443,0.0266617473536608));
#1547=CARTESIAN_POINT('',(0.0178877724875001,0.0359490355842027,0.0249712264928747));
#1548=CARTESIAN_POINT('',(0.0234820776322999,0.0348008803693509,0.0226205695641036));
#1549=CARTESIAN_POINT('',(0.028721090411222,0.0336867921209441,0.0196789360028636));
#1550=CARTESIAN_POINT('',(0.0336088589399847,0.0328607862610099,0.0161712602402105));
#1551=CARTESIAN_POINT('',(0.038215821523031,0.0326678094606614,0.0119824384559533));
#1552=CARTESIAN_POINT('',(0.0408697137029292,0.0332011100902689,0.008934201353565));
#1553=CARTESIAN_POINT('',(0.0421001273709918,0.0336566189488699,0.0073526315789474));
#1554=CARTESIAN_POINT('',(-0.0421001273709919,0.0336566189488699,0.00735263157894736));
#1555=CARTESIAN_POINT('',(-0.0421001273709919,0.0336566189488699,0.00735263157894737));
#1556=CARTESIAN_POINT('',(-0.0427645377627886,0.0339025889238999,0.00649860059661761));
#1557=CARTESIAN_POINT('',(-0.0442630049548623,0.0340723166327625,0.00487704250651737));
#1558=CARTESIAN_POINT('',(-0.0468438326211695,0.0331861134555744,0.0029233632380445));
#1559=CARTESIAN_POINT('',(-0.0493086622276123,0.0313671389759557,0.00162123051874533));
#1560=CARTESIAN_POINT('',(-0.0514699068851807,0.0289865818892669,0.000822858122518212));
#1561=CARTESIAN_POINT('',(-0.0532965670866317,0.0263003359679917,0.000364820497403825));
#1562=CARTESIAN_POINT('',(-0.0553561426262619,0.0224306287661058,4.05705073320345E-5));
#1563=CARTESIAN_POINT('',(-0.056501062692209,0.0193736438858473,3.0221473813287E-18));
#1564=CARTESIAN_POINT('',(-0.0571358871463461,0.017273867546094,3.0221473813287E-18));
#1565=CARTESIAN_POINT('',(0.,0.,0.0762));
#1566=CARTESIAN_POINT('',(0.,0.,0.0762));
#1567=CARTESIAN_POINT('',(-0.017145,0.,0.0762));
#1568=CARTESIAN_POINT('',(-0.0127791284914113,0.01143,0.0762));
#1569=CARTESIAN_POINT('',(-0.0127791284914113,0.01143,0.04445));
#1570=CARTESIAN_POINT('',(-0.0127791284914113,0.01143,0.0381));
#1571=CARTESIAN_POINT('',(0.,0.,0.0381));
#1572=CARTESIAN_POINT('',(-0.0127791284914113,-0.01143,0.0381));
#1573=CARTESIAN_POINT('',(-0.0127791284914113,-0.01143,0.0762));
#1574=CARTESIAN_POINT('',(-0.0127791284914113,-0.01143,0.04445));
#1575=CARTESIAN_POINT('',(0.,0.,0.04445));
#1576=CARTESIAN_POINT('',(0.0127791284914113,-0.01143,0.0762));
#1577=CARTESIAN_POINT('',(0.0127791284914113,-0.01143,0.0381));
#1578=CARTESIAN_POINT('',(0.0127791284914113,-0.01143,0.04445));
#1579=CARTESIAN_POINT('',(0.,0.,0.0381));
#1580=CARTESIAN_POINT('',(0.0127791284914113,0.01143,0.0381));
#1581=CARTESIAN_POINT('',(0.0127791284914113,0.01143,0.0762));
#1582=CARTESIAN_POINT('',(0.0127791284914113,0.01143,0.04445));
#1583=CARTESIAN_POINT('',(0.,0.,0.04445));
#1584=CARTESIAN_POINT('',(0.01143,0.0127791284914113,0.0762));
#1585=CARTESIAN_POINT('',(0.01143,0.0127791284914113,0.04445));
#1586=CARTESIAN_POINT('',(0.01143,0.0127791284914113,0.0381));
#1587=CARTESIAN_POINT('',(0.,0.,0.0381));
#1588=CARTESIAN_POINT('',(-0.01143,0.0127791284914113,0.0381));
#1589=CARTESIAN_POINT('',(-0.01143,0.0127791284914113,0.0762));
#1590=CARTESIAN_POINT('',(-0.01143,0.0127791284914113,0.04445));
#1591=CARTESIAN_POINT('',(0.,0.,0.04445));
#1592=CARTESIAN_POINT('',(-0.01143,-0.0127791284914113,0.0762));
#1593=CARTESIAN_POINT('',(-0.01143,-0.0127791284914113,0.0381));
#1594=CARTESIAN_POINT('',(-0.01143,-0.0127791284914113,0.04445));
#1595=CARTESIAN_POINT('',(0.,0.,0.0381));
#1596=CARTESIAN_POINT('',(0.01143,-0.0127791284914113,0.0381));
#1597=CARTESIAN_POINT('',(0.01143,-0.0127791284914113,0.0762));
#1598=CARTESIAN_POINT('',(0.01143,-0.0127791284914113,0.04445));
#1599=CARTESIAN_POINT('',(0.,0.,0.04445));
#1600=CARTESIAN_POINT('',(-0.0169224442213818,0.00338340988713111,0.0251861224552311));
#1601=CARTESIAN_POINT('',(-0.0173697575601658,-0.00112644732705301,0.0250311006914629));
#1602=CARTESIAN_POINT('',(-0.0162349608515988,-0.00677902349217846,0.0254312368012954));
#1603=CARTESIAN_POINT('',(-0.0124281584963274,-0.0124346436119968,0.0265500642434175));
#1604=CARTESIAN_POINT('',(-0.00772652503301912,-0.0155964051865915,0.0274533666610465));
#1605=CARTESIAN_POINT('',(-0.00338133394013291,-0.0169213283632415,0.0278673817393136));
#1606=CARTESIAN_POINT('',(-1.99860032196244E-5,-0.0172571676010982,0.027976397231431));
#1607=CARTESIAN_POINT('',(0.0033932945008135,-0.0169199787683321,0.0278670221143807));
#1608=CARTESIAN_POINT('',(0.00770041419798021,-0.0156063797636073,0.0274561393875092));
#1609=CARTESIAN_POINT('',(0.0115022774499042,-0.0130527069781085,0.0267277470246014));
#1610=CARTESIAN_POINT('',(0.0143263198105241,-0.00961583057221236,0.0259920143168072));
#1611=CARTESIAN_POINT('',(0.0159337617570728,-0.00662312401797912,0.0255104944166437));
#1612=CARTESIAN_POINT('',(0.0169158477503625,-0.00340832312380176,0.0251882099406297));
#1613=CARTESIAN_POINT('',(0.0173721901207846,0.00113177798085805,0.025030334144762));
#1614=CARTESIAN_POINT('',(0.0164712598491111,0.00562406121796148,0.0253482316777583));
#1615=CARTESIAN_POINT('',(0.0143314272237248,0.00960784407544269,0.0259908261020589));
#1616=CARTESIAN_POINT('',(0.0115021142938871,0.0130541152696237,0.0267277197442269));
#1617=CARTESIAN_POINT('',(0.00770797089795305,0.0156016031740606,0.027454815464574));
#1618=CARTESIAN_POINT('',(0.00340552567883616,0.0169174122533321,0.0278661837221821));
#1619=CARTESIAN_POINT('',(-5.34641076231427E-6,0.0172571711053134,0.0279763785651522));
#1620=CARTESIAN_POINT('',(-0.00336947400413395,0.0169239022799565,0.0278683016811692));
#1621=CARTESIAN_POINT('',(-0.00663370815600101,0.0159310400793531,0.0275575372031255));
#1622=CARTESIAN_POINT('',(-0.00960644551833288,0.0143316055680874,0.0270932717926949));
#1623=CARTESIAN_POINT('',(-0.012195515240667,0.0122065724736575,0.0265462816522918));
#1624=CARTESIAN_POINT('',(-0.0143420467717774,0.00959169919969153,0.0259878786053638));
#1625=CARTESIAN_POINT('',(-0.0159230463618695,0.00664771686261296,0.0255136456700272));
#1626=CARTESIAN_POINT('',(-0.0169224442213818,0.00338340988713111,0.0251861224552311));
#1627=CARTESIAN_POINT('',(-0.0173697575601658,-0.00112644732705301,0.0250311006914629));
#1628=CARTESIAN_POINT('',(-0.0162349608515988,-0.00677902349217846,0.0254312368012954));
#1629=CARTESIAN_POINT('',(-0.017145,1.87202442304903E-19,0.0251094503533745));
#1630=CARTESIAN_POINT('',(0.,0.,0.0762));
#1631=CARTESIAN_POINT('',(0.,0.,0.0381));
#1632=CARTESIAN_POINT('',(-0.0160266754194375,0.01143,0.0381));
#1633=CARTESIAN_POINT('',(-0.0160266754194375,-0.01143,0.0381));
#1634=CARTESIAN_POINT('',(-0.0160266754194375,0.01143,0.0762));
#1635=CARTESIAN_POINT('',(-0.0160266754194375,0.01143,0.04445));
#1636=CARTESIAN_POINT('',(0.,0.,0.04445));
#1637=CARTESIAN_POINT('',(-0.0160266754194375,-0.01143,0.04445));
#1638=CARTESIAN_POINT('',(-0.0160266754194375,-0.01143,0.0762));
#1639=CARTESIAN_POINT('',(0.,0.,0.0381));
#1640=CARTESIAN_POINT('',(0.0160266754194375,-0.01143,0.0381));
#1641=CARTESIAN_POINT('',(0.0160266754194375,0.01143,0.0381));
#1642=CARTESIAN_POINT('',(0.0160266754194375,-0.01143,0.0762));
#1643=CARTESIAN_POINT('',(0.0160266754194375,-0.01143,0.04445));
#1644=CARTESIAN_POINT('',(0.,0.,0.04445));
#1645=CARTESIAN_POINT('',(0.0160266754194375,0.01143,0.04445));
#1646=CARTESIAN_POINT('',(0.0160266754194375,0.01143,0.0762));
#1647=CARTESIAN_POINT('',(0.,0.,0.0381));
#1648=CARTESIAN_POINT('',(0.01143,0.0160266754194375,0.0381));
#1649=CARTESIAN_POINT('',(-0.01143,0.0160266754194375,0.0381));
#1650=CARTESIAN_POINT('',(0.01143,0.0160266754194375,0.0762));
#1651=CARTESIAN_POINT('',(0.01143,0.0160266754194375,0.04445));
#1652=CARTESIAN_POINT('',(0.,0.,0.04445));
#1653=CARTESIAN_POINT('',(-0.01143,0.0160266754194375,0.04445));
#1654=CARTESIAN_POINT('',(-0.01143,0.0160266754194375,0.0762));
#1655=CARTESIAN_POINT('',(0.,0.,0.0381));
#1656=CARTESIAN_POINT('',(-0.01143,-0.0160266754194375,0.0381));
#1657=CARTESIAN_POINT('',(0.01143,-0.0160266754194375,0.0381));
#1658=CARTESIAN_POINT('',(-0.01143,-0.0160266754194375,0.0762));
#1659=CARTESIAN_POINT('',(-0.01143,-0.0160266754194375,0.04445));
#1660=CARTESIAN_POINT('',(0.,0.,0.04445));
#1661=CARTESIAN_POINT('',(0.01143,-0.0160266754194375,0.04445));
#1662=CARTESIAN_POINT('',(0.01143,-0.0160266754194375,0.0762));
#1663=CARTESIAN_POINT('',(-0.0194894830020569,0.00324888479642728,0.0242532740117333));
#1664=CARTESIAN_POINT('',(-0.0198144305991917,-1.71642467160801E-6,0.0241227557837481));
#1665=CARTESIAN_POINT('',(-0.0194277841206031,-0.00389213934196063,0.0242781317305323));
#1666=CARTESIAN_POINT('',(-0.0179008737696121,-0.00888134149011863,0.0248632561895219));
#1667=CARTESIAN_POINT('',(-0.015000370777883,-0.0131917183123507,0.0258508962188293));
#1668=CARTESIAN_POINT('',(-0.0110307178633142,-0.0164539542780394,0.0268209667992161));
#1669=CARTESIAN_POINT('',(-0.0076380139525959,-0.0182810920204712,0.0274320114200493));
#1670=CARTESIAN_POINT('',(-0.00388885257665257,-0.0194276559447011,0.0278441894775551));
#1671=CARTESIAN_POINT('',(-2.3447444461472E-5,-0.0198139359120956,0.0279880014370668));
#1672=CARTESIAN_POINT('',(0.0039039599162313,-0.0194265741986074,0.0278437951020646));
#1673=CARTESIAN_POINT('',(0.0076215368899915,-0.0182860089009751,0.0274338029387649));
#1674=CARTESIAN_POINT('',(0.011032492262519,-0.0164558068724264,0.0268212283589759));
#1675=CARTESIAN_POINT('',(0.0140211092113502,-0.0139924210680162,0.0260897839827506));
#1676=CARTESIAN_POINT('',(0.0164462911961757,-0.0110440261202518,0.0253578007405165));
#1677=CARTESIAN_POINT('',(0.0182909793684797,-0.00761065795407836,0.0247140906190365));
#1678=CARTESIAN_POINT('',(0.0192313552328016,-0.00454194832843952,0.0243535143270685));
#1679=CARTESIAN_POINT('',(0.019621553608456,-0.00194385340644443,0.0242000493776771));
#1680=CARTESIAN_POINT('',(0.0197164080553152,-7.4427922819878E-6,0.0241622344871592));
#1681=CARTESIAN_POINT('',(0.0196228065811509,0.00193128423153377,0.0241995482100118));
#1682=CARTESIAN_POINT('',(0.0192344805046879,0.00452973859555595,0.0243523168278749));
#1683=CARTESIAN_POINT('',(0.0182914778273959,0.00760960058760682,0.0247138319634201));
#1684=CARTESIAN_POINT('',(0.0164498234962763,0.0110406584067013,0.0253568952658518));
#1685=CARTESIAN_POINT('',(0.0140073433683955,0.0140056640338255,0.0260933870173494));
#1686=CARTESIAN_POINT('',(0.0110395511767288,0.0164507010962531,0.0268197473234181));
#1687=CARTESIAN_POINT('',(0.00761140525085781,0.0182902803556855,0.0274352130145356));
#1688=CARTESIAN_POINT('',(0.00391744048576236,0.0194229190229017,0.0278425009238315));
#1689=CARTESIAN_POINT('',(-1.7110007158579E-5,0.0198142254552716,0.0279881185012793));
#1690=CARTESIAN_POINT('',(-0.00323406711733514,0.0194941840155346,0.0278688729217126));
#1691=CARTESIAN_POINT('',(-0.00577692997483654,0.018851804994015,0.0276372821937681));
#1692=CARTESIAN_POINT('',(-0.00819317439096663,0.0179797493461945,0.0273311708115445));
#1693=CARTESIAN_POINT('',(-0.0110563096205281,0.0164379833740901,0.0268159901061664));
#1694=CARTESIAN_POINT('',(-0.0140087925646965,0.0140066192085243,0.0260931098078074));
#1695=CARTESIAN_POINT('',(-0.0164707180931609,0.0110060805233122,0.0253500122169191));
#1696=CARTESIAN_POINT('',(-0.0179784803394753,0.00819858544173606,0.0248232825370419));
#1697=CARTESIAN_POINT('',(-0.0188630092035482,0.00574012270192239,0.0244945663849779));
#1698=CARTESIAN_POINT('',(-0.0194894830020569,0.00324888479642728,0.0242532740117333));
#1699=CARTESIAN_POINT('',(-0.0198144305991917,-1.71642467160801E-6,0.0241227557837481));
#1700=CARTESIAN_POINT('',(-0.0194277841206031,-0.00389213934196063,0.0242781317305323));
#1701=CARTESIAN_POINT('',(-0.019685,-1.7086452476495E-19,0.0241747554204759));
#1702=CARTESIAN_POINT('',(0.,0.,0.0762));
#1703=CARTESIAN_POINT('',(0.,0.,0.0762));
#1704=CARTESIAN_POINT('',(-0.019685,0.,0.0762));
#1705=CARTESIAN_POINT('',(0.,0.,0.0762));
#1706=CARTESIAN_POINT('',(-0.019812,-0.01143,0.041275));
#1707=CARTESIAN_POINT('',(-0.019812,-0.01143,0.0381));
#1708=CARTESIAN_POINT('',(-0.019812,-0.01143,0.04445));
#1709=CARTESIAN_POINT('',(-0.019812,0.005715,0.04445));
#1710=CARTESIAN_POINT('',(-0.019812,0.01143,0.04445));
#1711=CARTESIAN_POINT('',(-0.019812,0.01143,0.041275));
#1712=CARTESIAN_POINT('',(-0.019812,0.01143,0.0381));
#1713=CARTESIAN_POINT('',(-0.019812,0.005715,0.0381));
#1714=CARTESIAN_POINT('',(-0.019812,-0.01143,0.041275));
#1715=CARTESIAN_POINT('',(-0.019812,-0.01143,0.04445));
#1716=CARTESIAN_POINT('',(-0.019812,-0.01143,0.0381));
#1717=CARTESIAN_POINT('',(-0.019812,0.005715,0.04445));
#1718=CARTESIAN_POINT('',(-0.019812,0.01143,0.04445));
#1719=CARTESIAN_POINT('',(-0.019812,0.01143,0.041275));
#1720=CARTESIAN_POINT('',(-0.019812,0.01143,0.0381));
#1721=CARTESIAN_POINT('',(-0.019812,0.005715,0.0381));
#1722=CARTESIAN_POINT('',(-0.019812,0.005715,0.04445));
#1723=CARTESIAN_POINT('',(-0.019812,0.01143,0.04445));
#1724=CARTESIAN_POINT('',(0.019812,0.01143,0.04445));
#1725=CARTESIAN_POINT('',(0.019812,0.005715,0.04445));
#1726=CARTESIAN_POINT('',(-0.019812,0.01143,0.041275));
#1727=CARTESIAN_POINT('',(0.019812,0.01143,0.041275));
#1728=CARTESIAN_POINT('',(0.019812,0.,0.022225));
#1729=CARTESIAN_POINT('',(0.019812,0.,0.022225));
#1730=CARTESIAN_POINT('',(0.019812,-0.01143,0.041275));
#1731=CARTESIAN_POINT('',(0.019812,-0.01143,0.04445));
#1732=CARTESIAN_POINT('',(0.019812,0.005715,0.04445));
#1733=CARTESIAN_POINT('',(-0.019812,-0.01143,0.041275));
#1734=CARTESIAN_POINT('',(-0.019812,-0.01143,0.04445));
#1735=CARTESIAN_POINT('',(-0.019812,0.005715,0.04445));
#1736=CARTESIAN_POINT('',(-0.019812,0.,0.022225));
#1737=CARTESIAN_POINT('',(-0.019812,0.01143,0.041275));
#1738=CARTESIAN_POINT('',(-0.019812,0.01143,0.04445));
#1739=CARTESIAN_POINT('',(-0.019812,0.005715,0.04445));
#1740=CARTESIAN_POINT('',(-0.019812,0.005715,0.04445));
#1741=CARTESIAN_POINT('',(-0.019812,0.01143,0.04445));
#1742=CARTESIAN_POINT('',(-0.019812,0.01143,0.041275));
#1743=CARTESIAN_POINT('',(-0.019812,0.,0.022225));
#1744=CARTESIAN_POINT('',(-0.019812,0.005715,0.04445));
#1745=CARTESIAN_POINT('',(-0.019812,-0.01143,0.04445));
#1746=CARTESIAN_POINT('',(-0.019812,-0.01143,0.041275));
#1747=CARTESIAN_POINT('',(-0.019812,0.005715,0.04445));
#1748=CARTESIAN_POINT('',(-0.019812,-0.01143,0.04445));
#1749=CARTESIAN_POINT('',(-0.019812,-0.01143,0.041275));
#1750=CARTESIAN_POINT('',(-0.01143,0.019812,0.041275));
#1751=CARTESIAN_POINT('',(-0.01143,0.019812,0.0381));
#1752=CARTESIAN_POINT('',(-0.01143,0.019812,0.04445));
#1753=CARTESIAN_POINT('',(0.005715,0.019812,0.04445));
#1754=CARTESIAN_POINT('',(0.01143,0.019812,0.04445));
#1755=CARTESIAN_POINT('',(0.01143,0.019812,0.041275));
#1756=CARTESIAN_POINT('',(0.01143,0.019812,0.0381));
#1757=CARTESIAN_POINT('',(0.005715,0.019812,0.0381));
#1758=CARTESIAN_POINT('',(-0.01143,0.019812,0.041275));
#1759=CARTESIAN_POINT('',(-0.01143,0.019812,0.04445));
#1760=CARTESIAN_POINT('',(-0.01143,0.019812,0.0381));
#1761=CARTESIAN_POINT('',(0.005715,0.019812,0.04445));
#1762=CARTESIAN_POINT('',(0.01143,0.019812,0.04445));
#1763=CARTESIAN_POINT('',(0.01143,0.019812,0.041275));
#1764=CARTESIAN_POINT('',(0.01143,0.019812,0.0381));
#1765=CARTESIAN_POINT('',(0.005715,0.019812,0.0381));
#1766=CARTESIAN_POINT('',(0.005715,0.019812,0.04445));
#1767=CARTESIAN_POINT('',(0.01143,0.019812,0.04445));
#1768=CARTESIAN_POINT('',(0.01143,-0.019812,0.04445));
#1769=CARTESIAN_POINT('',(0.005715,-0.019812,0.04445));
#1770=CARTESIAN_POINT('',(0.01143,0.019812,0.041275));
#1771=CARTESIAN_POINT('',(0.01143,-0.019812,0.041275));
#1772=CARTESIAN_POINT('',(0.,-0.019812,0.022225));
#1773=CARTESIAN_POINT('',(0.,-0.019812,0.022225));
#1774=CARTESIAN_POINT('',(-0.01143,-0.019812,0.041275));
#1775=CARTESIAN_POINT('',(-0.01143,-0.019812,0.04445));
#1776=CARTESIAN_POINT('',(0.005715,-0.019812,0.04445));
#1777=CARTESIAN_POINT('',(-0.01143,0.019812,0.041275));
#1778=CARTESIAN_POINT('',(-0.01143,0.019812,0.04445));
#1779=CARTESIAN_POINT('',(0.005715,0.019812,0.04445));
#1780=CARTESIAN_POINT('',(0.,0.019812,0.022225));
#1781=CARTESIAN_POINT('',(0.01143,0.019812,0.041275));
#1782=CARTESIAN_POINT('',(0.01143,0.019812,0.04445));
#1783=CARTESIAN_POINT('',(0.005715,0.019812,0.04445));
#1784=CARTESIAN_POINT('',(0.005715,0.019812,0.04445));
#1785=CARTESIAN_POINT('',(0.01143,0.019812,0.04445));
#1786=CARTESIAN_POINT('',(0.01143,0.019812,0.041275));
#1787=CARTESIAN_POINT('',(0.,0.019812,0.022225));
#1788=CARTESIAN_POINT('',(0.005715,0.019812,0.04445));
#1789=CARTESIAN_POINT('',(-0.01143,0.019812,0.04445));
#1790=CARTESIAN_POINT('',(-0.01143,0.019812,0.041275));
#1791=CARTESIAN_POINT('',(0.005715,0.019812,0.04445));
#1792=CARTESIAN_POINT('',(-0.01143,0.019812,0.04445));
#1793=CARTESIAN_POINT('',(-0.01143,0.019812,0.041275));
#1794=CARTESIAN_POINT('',(0.,-0.073406,-0.0254));
#1795=CARTESIAN_POINT('',(0.,-0.073406,-0.0254));
#1796=CARTESIAN_POINT('',(-0.0421001273709919,-0.073406,0.00735263157894738));
#1797=CARTESIAN_POINT('',(0.0421001273709919,-0.073406,0.00735263157894738));
#1798=CARTESIAN_POINT('',(0.,-0.073406,-0.0254));
#1799=CARTESIAN_POINT('',(0.0421001273709919,-0.073406,0.00735263157894738));
#1800=CARTESIAN_POINT('',(-0.0421001273709919,-0.073406,0.00735263157894738));
#1801=CARTESIAN_POINT('',(-0.0571358871463461,-0.073406,0.01905));
#1802=CARTESIAN_POINT('',(0.0571358871463461,-0.073406,0.01905));
#1803=CARTESIAN_POINT('',(0.0571358871463461,-0.073406,0.01905));
#1804=CARTESIAN_POINT('',(-0.0571358871463461,-0.073406,0.01905));
#1805=MECHANICAL_DESIGN_GEOMETRIC_PRESENTATION_REPRESENTATION('',(#933),
#1806);
#1806=(
GEOMETRIC_REPRESENTATION_CONTEXT(3)
GLOBAL_UNCERTAINTY_ASSIGNED_CONTEXT((#1807))
GLOBAL_UNIT_ASSIGNED_CONTEXT((#1810,#1809,#1808))
REPRESENTATION_CONTEXT('Part 1','TOP_LEVEL_ASSEMBLY_PART')
);
#1807=UNCERTAINTY_MEASURE_WITH_UNIT(LENGTH_MEASURE(2.E-5),#1810,
'DISTANCE_ACCURACY_VALUE','Maximum Tolerance applied to model');
#1808=(
NAMED_UNIT(*)
SI_UNIT($,.STERADIAN.)
SOLID_ANGLE_UNIT()
);
#1809=(
NAMED_UNIT(*)
PLANE_ANGLE_UNIT()
SI_UNIT($,.RADIAN.)
);
#1810=(
LENGTH_UNIT()
NAMED_UNIT(*)
SI_UNIT($,.METRE.)
);
#1811=PRODUCT_DEFINITION_SHAPE('','',#1812);
#1812=PRODUCT_DEFINITION('','',#1814,#1813);
#1813=PRODUCT_DEFINITION_CONTEXT('',#1820,'design');
#1814=PRODUCT_DEFINITION_FORMATION_WITH_SPECIFIED_SOURCE('','',#1816,
 .NOT_KNOWN.);
#1815=PRODUCT_RELATED_PRODUCT_CATEGORY('','',(#1816));
#1816=PRODUCT('Part 1','Part 1','Part 1',(#1818));
#1817=PRODUCT_CATEGORY('','');
#1818=PRODUCT_CONTEXT('',#1820,'mechanical');
#1819=APPLICATION_PROTOCOL_DEFINITION('international standard',
'ap242_managed_model_based_3d_engineering',2020,#1820);
#1820=APPLICATION_CONTEXT('managed model based 3d engineering');
ENDSEC;
END-ISO-10303-21;
